<mxfile host="app.diagrams.net" agent="Mozilla/5.0 (Macintosh; Intel Mac OS X 10_15_7) AppleWebKit/605.1.15 (KHTML, like Gecko) Version/18.6 Safari/605.1.15" version="28.2.0">
  <diagram name="SAP_Build_Process_Automation_L2" id="oFvMTZ7YrolDxY1caR5L">
    <mxGraphModel dx="4089" dy="3455" grid="1" gridSize="10" guides="1" tooltips="1" connect="1" arrows="1" fold="1" page="1" pageScale="1" pageWidth="1169" pageHeight="827" math="0" shadow="0">
      <root>
        <mxCell id="-Aj5rOMPWS9pz5DeyN8X-0" />
        <mxCell id="-Aj5rOMPWS9pz5DeyN8X-1" parent="-Aj5rOMPWS9pz5DeyN8X-0" />
        <mxCell id="-Aj5rOMPWS9pz5DeyN8X-5" value="" style="rounded=1;whiteSpace=wrap;html=1;strokeColor=#475E75;strokeWidth=1.5;arcSize=16;fillColor=#F5F6F7;perimeterSpacing=0;absoluteArcSize=1;dashed=1;" parent="-Aj5rOMPWS9pz5DeyN8X-1" vertex="1">
          <mxGeometry x="-1158.31" y="-2390" width="266" height="604.12" as="geometry" />
        </mxCell>
        <mxCell id="OHP15Gqe_fe5QjpGXMBg-55" value="&lt;meta charset=&quot;utf-8&quot;&gt;&lt;span data-metadata=&quot;&lt;!--(figmeta)eyJmaWxlS2V5IjoiN2h3ZTRkMkZNdlR2dHlHVzZIbENmNiIsInBhc3RlSUQiOjcyOTE3OTY2MiwiZGF0YVR5cGUiOiJzY2VuZSJ9Cg==(/figmeta)--&gt;&quot;&gt;&lt;/span&gt;&lt;span data-buffer=&quot;&lt;!--(figma)ZmlnLWtpd2kwAAAAPUYAALW9e5xkSVXgH3Ezsx5d/Zj3i5nhDYqI82J4iEg+blVld74mb2b1zKiTZFXe6ko6K7PMm1XTxbouIiIigiIiIiKyiDi6iIiIiDgiIiIiIiIiIiKyLMuyLsu6LMu6v++JiPvI6h7Wf37z+UxHxIkTJ06cOHHixInIWw969TCK+ufCzuFeqNQ1p5vVRi/oFNsdxX+NZsXvldeLjTU/oKi7gd/OlD2D7Tcq5HNBda1RrJHLB517aj6Zgsn0Al9oLRhcQ7kXnKm2em2/1ixKy8VGs1NdvacXrDe7tUqv21prFyvSfslle5VmQ8rLcbntr7b9YB3QsaDsN/we4NZ6766u374H4EoW2PZbNQEer1RXV0lPlGtVv9Hpldr0Xi4GwtvJDG+nm9024/CFs1NBp+0X67aG8mWubEd8ebXR8dvFcqe6wSBrVRizoqHuirZfbjYafpnBZpiJObzy0tUxr1cZfuilV22U234dfos1al0bMK4uXhhGTMDd5JU00cWtLSYSEBxWes2GIaRM4Wy72hGmdGMyCFs7/SgEDbrFjhklSPXmhsnqs8PxYDg+194fCU6j2bjXbzepUM2KqRcKVlMeT6UPSFWa5a5wSFaXi42NYkDOW2s3uy0yudV2sS54+VKzWfOLjV6zhdA61WYDYGGD4TTb5BZExqSLtaohu+TXatVWINllBt5BrkanjrX9tW6t2O61mrV71gyRFbpqVPyKCCjBO97x7xaWTjAxZQGcDO6pl5qin6eqDTprGCgzWi2fEVFdHqwXW37vbLWz3nNtr3DyNgxeWZa1UKo1y2coXXW2Wlkzen01tOoy0mvqfqVaJHPtenVtvcb/Un1dAAE72Otdtoew27WidHrD2WKwXu116JnSwzaK7WqxZPi/seMyN5lMr4w8KN0co7hV9XCGZ9bKI4pBUA2Y0B6Um12pe+TF+unXjDJR+aiEkHDTphLgo+vNStf0+hiLv0YFpcfaUrt5lsLjgp3+Xnh2ONvphBdmVhluDu7qFts+tQo+3bxpxFFvmqXidehMZobVTTGXFCvNsyKa/KWmsNAqtou1GmaC1VHvtZ1EF+bBNX9VoIt+Y61XKSKsoul8Scost64UlqWwWjVUj5l8s1bxZVZXOiw8/96mGebxVtuv+KsoYKXXajfLfiCqfIIZ8mtSfzJW9V5QdTyeSkD1bq1TbRngZfVio8uCrTZaZiIuX/fvLlpdvaK87m+0TfbKFs0c+Komw7ZZ0Sfh7JpWrSvdX1tsI/d4mNfZUiyL64NuvQ4vvdPdBvNsCNxg1PVhQcv3y+u9UrfEJAO40WgDlg1r1mwXjZW6qTQKx4M6a1rYQYN6nXVmYk0sK7a/XTf2XFeK7TO+kPbcIEV1c7JQWYclzCXFfLlZayalglF/02YhwNKYnFnatKg0WTqUl2yTuLgsiojykj0WNFc7PUOD0sp6sY1au5Kx437bt+v3hH93GTnZkZ9cN7N9Kih2uomJucz0QubyWhdRNYNqR7q4otUfjp32LgVN9BugQqMqVaaF3oRVIDoBSWrkgW0jKyA0VWwRsFwCA8kpfb5at2IuYF9PV8ksbLCMxJwuVnfZcoOt/ii00mfPbPudshH8alXGqdFX01vH6m3O394OtxzH+SqGqc2OWWQBUakq7WYrLerVJmaSmWQHKdW6wqBXKpbPzINysn7LZjdYaKJRVZQDsOq2sNCkutY8azKw0LE8BGhErVcutkQz82mJBdUumx2kIEQr4dZk2p8NJ2PaxPsEPTO/yJW8ZrjVM36qbV4t7MvG05kOdynFbaDdW/fdzOvG/u5mOO2Oh7MIuu2iDFW1qnf7tYCMhmv2UsH0ypNxNJumM7zIzANXUm+GpOtF2To9+HBizwVldn0y+VUoVnq2RcEVDPZCMJtOzofF0fDcmAYJMcWGwsSS0Vhel/Uscrm/h0bG42G4RjV0Yi89u6BFLjKInC36d3WrNbZnDB3AvNMpMWHWMSkgPpQPA5qAFrK7zmK6r/RupbyUKd9GeTlTvp3ysUz5DsormfKTKR/PlO+kfKJcbZezvZ+0oz09GYpk6vgbbaCq5G/4MgIdD9wrTSajsD9u7oWxguS7DbtSESPNZJMkr4NuCdts8t7dZgEbfTXCX59Mh8+djGf9Ec2dZczMLbpspOCd7rK9r1YNh2nrjXA6G7L0BNZsUZVpWmp2Os06Oa8+2Y/C8v40mkyRD9tCEdtHhSq3mwErrdomr/17fFl6qB4lD+/PdNUqMhRsYRkVp5zH0pMUSMrVGrmFulhUabLIFONTk1tK5s8UlzdY7JNpfTidCgPJKjKzTqpNBguEZWRH64gKe5V+tGPtiVdmFwakUgXXxubY9ZBvNdYAqdMtX1IdbEjitSriIef8C3uT6ezoGsrhDWHS2fzcQlExAF/I9K9jQLJkvVr/cLI/W5sOB5ZI3i6rjMRTBj27ynJpm1Z/NgunY6rAqrbMCsFGG1utzXzuzybtMBo+F9KJiAw7RjIJHzrJedKsM90fbzn18yrVQPwgoalwudlNyehgdjgKg9CNnalrB01nHzscAUh0Ge2yusJpBFejUZaNJdfx6y02WOPn52MyCHMWJpK8aL8hq+PdAsPR3zpvpzEZ0zoG+l6kazjQbJS4rSZvsY1e091F0rUi9UoomZgY8jnToDzZh6Gpa7fwUO0Qu5ucXLHbkZ0rnyFVMKRO70ez4fYhxYek0iqW8T03fHsoydlyye+ctY4BUoJOYGfRGFyAnEqC6r1+r9PEyhgBzQFQOia5Wm/h3lOSGnCsNFqTaCiTy34CyDGuiiXE3rUHIYN2diq2mb2GA1KxBVi51FZnReSmD+yY2tExaFDGLFm6tZO8HE8dpsD6XXKYpqy7bTNxJTZk0ly51jQeax6Pvhd75ZQL3Rb+rN8zx4peu9voVM1BaoFVVqmKd2MUYDHbrIcDLzhLVfid9jPsXMa5A5tgulTFVVjqCT32K8q63uRkj79K3rN5W5Gj1br4ZeTztgIPQ9AKtmTc+QWwcJ2Nt7zohr1UwcckXabujH9P3OwYxY2mPZGtkLeDWzcTfDwpswwpn7BdxNp00hY5Q25I61OdaX9s59mO8AZ2Yc4OnR7bBvuxCAg0xfJm3k0TvUrwgNSzx5nVdjM5PuQyoHj7yGdgdqMoZCDJTrHQ6gbrFuaILaaQmNZSCrKkllNAQumYHMMtzFFaSSExpeMpyFJCTDEgoXTSMsokghQTOzUHjOldNge1JC+fgyVUrzA9OagjemUWFtO8Kgu0JK/OghKK12DzqmW01szPtTiURGCKDUyhWafXcXZo4mKmkOv9fsSytjN+kiBJuVuqlqlQQjou6GojW/TEXlk3nRay7pKqvODNQQq27RxswZr6pLwYtNp2n1haQz1Zdwlg2aEmgGM2ZxYIK9WujpV5YOes2JTjR4DrnJsAnwi2ppPRqDKcWvMC026NfYNdAQkbq23bYptmYg3CAZZtFlLv391ig7SGtgwF8bRMSa912Zq0FxFMojPyi0qPJrhLJuuVJyP8EZ2fqmWlz/GPt8k/uT7/5K3LQuMLlPQh/3htQGCngPv5J7fDP3lDKZhN9miwJXn1bKX3nOkGwav3Z9PhBaUXdm+5hbLeveVWEm/3lttIcru3CjC/e6sAC7u3CnCh1Z9ipqvjQUg779z+cKDuyxBdUZ49Q1B50B/th7TR++Y8caPyVpFSo78bKp3b7u8OR4fg60g2cDIeRGbR1nS4N6OUE9yN/nTYp8n+bjgdbq0Oz+1PES1btjs3K9SO+SSjCTeYWCh5081802Cvv4VSz7Ul/oAXIUbMlDWBDXfUvASBVZlcGWCWAoaUiILJ42ShzmZ+s63L/b0IZU6bsP7MmVOT9OKC1/I5/wnrOQC9pCR+O/FTyRYAMdg1sgsZ+q1Y7lm28Ov5F/cel4qM4ScwQmZyEqwqOm2Wmg7CXUgNt86Gw3M7szkkwnkypASlyoFguDWHktLhxGE2itWwPzMT9Y+6xfGSKlW+rWVQ3Gi8cisQeE5GRWoGSlpwsdAFoj/iJy8225UG6VJxtS31y5WGMWrHGt26DG0Fb17igcfZd0U0Jyo2PSluPukpTsOSXlYsmpPF5WWbXsHRStIrA1u+qr1hgipXywInvSY4a2Lf15aDs5JexyQL/Ppy2QQibwisy/awdQKCpDc65+imZrsh/N0sQiF9OPukyO8RlY45QD9ytVaUcTyqvtYWN+HRATpL+hiOKtL/Y1fxrEkft27Tx6/bfr+pY8vffJdNn9Cy6bfI8Yv0ibXVkpS/tdky6ZPaHZN+W8u2v6V1piFyurWGGSK9jVT4vL3dqUn5DlIpP7lYam+Q3lksbUj5KaTC91M3LJ2nbcAQ6dNLtbMyP99OKnjPIBW87yieWZdxPLN82hwrv7O8ahbUs8otUy6Wu23BK+EySLmMkZS0smrp+0QGhZ9V0ttI10hvJ12nW+mvSir0T6/b8dDbmvBTW2+eFr3BPTZ+TqOKQ0LaPN16ylNJW6dbTxU6d51uPe0W0vbp1i13kAa103Vp1yHmLPhddkeZlw1xkkjPkgofd9fP1AV+T6Nm3Lt7G90zHdLvYiMRvr6bNCD9ng0ETnpfK+gIvEcq8Ge3z7Sl3G+31iXdbHdLMu9bAd416aBj+Qg7DXPw2WaaZP7ObRBnI93ZsPXDDTvu52ycMfpyfqPdaZOOSG8j3Q0CLLhSY1IpT0hvJ90jvYP0e0mfTDolvZM0In0K6YxU5LRP+jTSgyDA9it1P6nQu0Aq9A5Jhd5zSYXevyEVet9HKvT+LanQ+35SoffvSIXe83QQ3CYEf0CXNwyHz5eMkPxByQjNF0hGiP6QZITqCyUjZH9YMkL3RZIRwj8iGaH8YjKG1R+VjFB+iWSE8o9JRii/VDJC+WWSEco/Lhmh/BOSEcovl4xQ/knJCOVXkDE8/5RkhPIrJSOUf1oyQvlVkhHKPyMZofxqyQjln5WMUH6NZITyz0lGKL+WzO1C+eclI5RfJxmh/AuSEcqvl4xQ/veSEcpvkIxQ/kXJCOU3SkYo/5JkhPKbyNwhlH9ZMkL5AckI5V+RjFD+VckI5f8gGaH8ZskI5V+TjFB+i2SE8q9LRii/lcyThfJvSEYov00yQvk3JSOU3y4ZofxbkhHK75CMUP5tyQjld0pGKP+OZITyu8jcKZR/VzJC+d2SEcq/Jxmh/KBkhPLvS0Yov0cyQvkPJCOU3ysZofyHkhHK7yPzFKH8R5IRyu+XjFD+Y8kI5Q9IRij/iWSE8gclI5T/VDJC+UOSEcp/Jhmh/GEyTxXKfy4ZofwRyQjlv5CMUP6oZITyX0pGKH9MMkL5ryQjlD8uGaH815IRyp8gY0zU30hGKH9SMkL5byUjlD8lGaH8d5IRyp+WjFD+e8kI5c9IRij/g2SE8mf10aATLtqM7VrdoXTsqnnim9b7e3viLGlvezrZFfduNuFfrzSabCqtNw9nYaRy2ka7lJfjunNHymPx7PDjBv1Z3+AuqtzGcBBOlOfFONHt3elIkFr9aBYGk/3pFiS8aIp3h4Mi7uB0qyGRGToExBm7LJ5rcfAcgiBKL82EcXzKaKc/mNwfkfV2cFsIIezgY+K1DsJZfzgilw8ZbySOCN7rASGGkFAX+YVZuGtio7Zq8WC4yTkXNpY5Q4pcbLfu0l55x/7/7XIL72yKMMgvb06F5pieKR0zzCjvGjNJlym9JYJQz1beRLzZmTj7uYNhNNxEcFrlSdxN00lViPD6I7WtF6A9jrYn0121oxaHZsZepNWSyXV2cNXHwjqg5f4YIAeYqlQJ5DILwb3E+2VqF9XllLOXKleoYxayM9kfDcrCX70/BgA/10wnnIRoDJsrkTQhc3zbyNZguil9qVYn9mSkq6YK26xOhruT5wzL9NAi2o2MF/WpA6NIL9bqCiLT54ZjTkvS89nhYMbA1JVz0HXryS6qq7akJ5xl9UBeXS2OcJ25qqCgyiucDw/VWOltoLXhOG7E7AqkMjwXwl2Okwol6z4/V+Wl4PzkAlcXlCA+tOP0cv0Lw6jTP0fHWrINkRq6Hq8uEyC3nV+5tdOXI0U4jcDQScl0VK3IkL1I8s2DcEqcNuz0mV/1Tk/nRiZ4a2J5m8w6t0sjuI/YRHTh3Ohwbydi99ALg+SGKGLv0IubHDHPf+/+RBbvG7W+zJLZgAFQ4Hhpm8Ek0nmF1svb/dFokzDdKhWRGutjOyjilM7OlyYXoPIarVcokXtdTh+fJRFfTsBTd0IsqBMOHg4S+Z4cTc7J7YBB6UzK8dib29tROMP6qGV9ancYhwSTdpfvUoK+7f21Wl8x4Gh2EA5qhonX5/SVFQtI5XzcDtNJS89Jy0ulxRKekxaLaU5ahW14yQpn4WJZLLqRQmNOAksOnpHA8r9CAseOjnZlYAdXM/wz2uPrGR6Ul98knDqI1IADt7Wx7nSe24nxODQUiDImhFkEaaMoZZooBLYkzueG0QbHPlAIBti2Z1g6i6pQcuJU3hJ2z55EkfL9ZlGykKTuHjI5ySSjz0upGG1BitIiZnIyDWuZ20ms4vZwGs0SuUhfMJQtL6zJ5NHx1mR3t88QSnbHSUMRm8quIAbNGGQCjRbQ/8XE+4MDZ48XLrY9iwZkDEsQztRn8oReE3Vh85oSgUGCGgnG3cle6fQHs3DgrsNK2CGkaMD1/pRpc7LPMmpDPEbPpKUUGuHs/gnoboSIa5f5eC6xJv5JxnmxpZDNnAsepKRFFSJ1n9bB4e7mZOTIR6ZAv+zxNh8TiYSAR+BGto4A3sNVhMX2w2TGZNFT4yd4HroBhT1gOJwEB5DeWjiWDQ8Jub4mWcp6PwpX0YI1cUQYx+HYhGc0zsNwe7s5Hh22EfpBf2SwcxWr+dXd3f2ZjM7sR5auN0+XgrNnXjGKwll1AJeMH12bDsF5u9baVfiADiHQl6IoNHbY5KsD3FTXvh1ug3Le1sbEWVqmEkRvUSQro+8LRNDfQVvW0ozBTfb3qgM8XJUzM0T+3awhK2kKD2q8BNk+GBLF92i1EBcDQ/19mkBolpQXr+n57gJH/aGq4w4fon7DdYoi/D8wmohAhF0d/L8wAwZQeSgknId9uhs8VH1nJ9z9BtwEGCOcF3CcDswkD/4H9NwkpXitqbhD3sJMChsJBn5vyq0Rtzdj63DijJgtjfHrACqLH1Hvj/fZEw+DcMS6DFnKKj+MSpPpwLk0l0AoRPubEtTcZFeSzt0YFlLe5hX0IyjoXJ1PhajpTMowKWM0eTumD8FzgCmTRSSzDP2QCC22zFvexqU+Y1U3MpWICLf6wI5/vY9LTqBVRNzqJ8s54jzI/uec/MJoiKs6PZQ135kEbiygCYAzu17A/u5NxuHYLaHF/fH2SC6V5W4wS3JpGHXjKiOZZct2OW5f73MiiA3fVgy1VPXe/uZoGO1ATDoWdjuTTtjfraXsSSfe0U5yVU47YtpjzQ1mMuzUHAmp5nZwP5xiYByyWDHc7TkW5g3Npelu3Pavosze0B8FmRmJm1jS9hmS8k4Yx/8q4QTdMo6/8Q+w+Lkpu+W+nBLy6QmgQJKcABaivWnYH4CxGO1M7kfWnF1KIRIciHkGfcnS2GBTeiCvlk0nrnDMNnallQsuc/zQZU505FRhttnqeFvOd4bVDaUH+9bo06+Hgs4mUlEJD4Zb8buI+GZFQmbm7YYuE8Q0YV3PwLhskaA8Zey+NGzHBwl2Fte4XD7bM8dkfaQT3CApqE8j5sjtjowFqVUHTOVwe8iGj9LTytL8DGu4ifjxE1vOc+gIAbWUXLIr7tfiyzgt+aTGk1J8JZfjRohxxJh5V0yQCw4Q4y/YN4zkFh0DJZztc1h6cb1YCmy4cEMvyajlHpv7LXvNLFd97iWUvoiAHUPSknBotdKL3+ldjF5ER3GHREE9bzMBGypfQJQpqCxqIrrY6HPANTI0WKrQKG4QjTcXF4rbxrZ9aKiDs+YKwJO0xy2JQci5a0dz05/3OTVLYALKTKdYLTDiZ58gqKC9Zq40CBu3INtr3d7buAOAZ1sGHLOxDBj4Y9H+9jY3WliMofhrhjUW5RZ+/Ux8jRmRR5WLDs6JnTHnM+afYrVi1s1XWEWUmvsz8VHF8FOPiWM68AXFL6G8CMbqhMBFYF5kYbfOR4CX8GmKm9FktD8LnWeHkdvKjuqftDrmWN5Yc10qr7raa/i+uyos1s4W7wnI6Jo5ucgjndgU3Mk+yLFSedjwZNXnxvu7AfaCiYgU3r2zEQQgIgsNZBng2J7bxypOXWnR8MU8Lu2JsZyO1VPVcoaSW+jHLDVXWolsrdBwoOMpVQc5scZ+ghqZwzCsakuCPuPNPNfCMoJwP7aIaTMv4ZcUVm7OkceHkl3Y+MSBZDsiArlLsyotD+NIuHhrN88IxHNvynP+6qp94ZbneqHZllzBPWlawA6y5xh6mZ3S9mXtfOxAuO0x3lwFgZlmrKI5cB8JxDWJmNHYelD2ZLJtlbsexvCyXBA4AKP5MsMM4W6/0ju77rOi16u1Sq+52rPV3PT14mf9jJDVfo+rkYZecbqVcMGhDSEWx+eQIkEqdoBM0RuOccPbxtBTzNlNp8ZRkLb70yEc6sEw2hv1D81iWBEH3BSN7sN/a7RPXMX1tmcKSJJmOOcENWhw3g60Zera4ajPaXfHNsjvGaBtsBvagBpN3FSTxb2q4CxZXylf3x/NhtJ7OF0dhqPBhp0KJmiLBYXsUQadvTfnspwBysGk3pdom1JLsX64Z0RisEk8Z5Vz1giTy8d2uJBY6AVp05u78l9MOvDHgz05ESKG0GVlI4UN3NO9ePI3uT23nLzUU7mkMRlsxaglrRhNBt2uaJqBYnFF8gE5qcdVrlYqNfMkC9tpdJlbrhhkX/HED6Ns0/rQMkc3EUCh8govuwoTbNQAE4YWIxa/VmqetRaIBVV0omFrbtufraSt7DL0ks3L3IKjquR0cTx2+yoWj5jD7NBiX+8Wq9C2i1VzgWneT3jJu8Ect3e9GJyXQlJVqBfvTqrYN+9OqxYtyaR2qcwdrN/ucYFW7cpiWU7MwTExEIjRvhJYMSXurtfoKDvlx1fJ9VaL9ap5S3fCFN0F70lTOBt3foqF6qe8XFbzO2hST16usYKBXM6ksVOngCssoFWsuGeQV1qAe1V2lS0Zrtzmd3VTGptr4mvKzXoL9Tbwaw0r8Wiuu1j0ytMzkf5rmP20FrUY9TdDiQ/pPYspx47XctpPkephX6LYEuwRHQ/EoKu8XUkqWUHarSkvXkm5S1IgRmPMvpbbBCFH3ptNXC4XQ00nr/dUfjYJ+ru2yG5sDFjTKK/YlhlxAJR4gZ0xBq8OL2A92NIszcBECMwW8wCbsjsg1CcHoXNVJ6PBGWOyCFhgz1cTW+1lcNeHRNCnh1UC9zSJzD2FUK+akdhy+cgBAQ80HIlEDaMmUHceGzi2zehvO+1qRJ2zuBIcO981Ebv82eHgXMhWwvrF2HmEekxbuvQHQ4JzMoD8bIgpnfV396rR5Kl3cp0KaXyPKYhCmUEJcjgoSgQ8t4UnHxfyUhEv4VzFlx8UMm/q7Hq145eaxbYsdW2epsnS8djwzjvkYq21LlfP8gpMtJ6cNj/3cD/zcmd6h91ASwGqACXHVMXvMs2PW+KSF2BPUJUAjWF3wqN0jUpd9kJSPYdgB68jU1BvR6kbCIco3pg9xXuZOcaKoCS1Mfgn7+30o1AtKM9kLPDOPbbz+AHTc1QuU7QIT5nJEI6hh6QW9NSxnamCpBb0tGHUskdS0TYU9c2a4xtn4z3hGNx3e6NUmwzvb/TU87JAp2LqTZ7+GbeJ/p7xHIoS65Dww9u0+r/WNWGXWVS3uqzlIBxGwWR75nbPQKpg4y2aa4fJuLs3YNIda78ObHU4GsU4P0fZuq4x5BeANA/sGVRS2Ufiuq9aDjpIQ31dcx9tipW5wf5e7DSR/xWNTC7hMT3P4+o5U5W6X/+iuYsWBSbEiO+ykZB6We6IY/WgN3kOB89gn0WGckxDY56MqyD0/5od76A+mYxHQ250Rodxv5/EDdohhIipcFJAnvcRU3fgjDBMxevjikQOBvxLMdi58EnFm5IKc3JPK345rhAvPgU/EIMz/HCgsGxQ/9s6MsABQEEhDqU+aKfBwCxiXPOnmRphWGAfysAsUwL9swxUOBLYhzPHvVYfuxOpl2v9+/qSHJYSVLh8D0oTsBptcBJN+XvYjostu7UQMMBLbEqALFKvzukvxRpg/NBUBT6q1XOhZqDz6+rfkEsaZONJ35etSHXm+y04sc0ZDfyYVq9ygbB59f1xvR8HjaCe7eQN3A5i6bsPUf3ZOC6FmMRAfMztDDW7ys+YRf2jOYdk5v6v5JxjWbPVH0eM5dsY6V/HxMLE711Rn9D2YrM83+jrKRWRdCXcjtTXPf1i/OQMGPlG6p89/aOeG7VI4Ve1+t60aG2JzA8bqxOmwCUQ9W+5Z8K0xKGrdhhxyvPHMjHirb84jnQRWLENzQBfNs8axowLHvEDIvU1T7+EaAxhy+I0LO1vOkK/nsS/AgmiIRH9VT0HIq72Ca2/Zmx7vLNP4oIdwl7coCa7sCqo3/d20x3pbZ76F3OtGzAEfIWr47xtXGUX6J+b9vd2ZCPAZVlW1xwBWcTTCTR+Ubqsrj0Ks6hnZqzF4ojBZ35L9U3qEZcA2wadpGaDlSP3ReoJ6pEXAS1yV+BldjV1jXpUnLdVG1LMXFBdpx49D7FoZ3E74js5GEtLtvq7RUIN9juuyL85ztuq7zHkRElepdUT4oKtu89pUsdB1au1+o9G8oQHhv0xUZ7d3cm4JqEj/EMJkfy7uVocnwuz/T5n1BTjeazCBKUyZOmGMg5WWBbrB7JYdnMVeWVRnp9FwSrJgwHAP5gFBzhQLMF7w+mEqhdkqxr79i2wfYe8p37oEpVOB9RUvfAStVxcGZdGzdQPZ6vL8k74QL0oC0v2vQvqRzSbPGYsJj5Sv2gxEzvxATD6jMdeoN6g3uOJY0S5xWkceRpCWv15DK4hH8p/wWn1Qo2pl9DR37F9Gu5Yc87H+vQ8yPgx7/DUP3gyS1227JoJUsV8LKo/0VLDBjkabrEJH6l9SW42OUdkYtAcNzur+KXIMWJ69Z/quILbv7maD+nk9lq9K6f+TospEWoP5tRHU8USUKReqfULDGul4WCYdvvTBtax1/ACeoZ6FYKI1vuDdqfWoQ5RvMELj17z/nAusjcx7pnMOpqBrF+UeXWz4LJW+59OZP+8sWmLNmfB354+2FlyWVvxDFomEfvlpGArvyPCPhEZWJHUgr6TGGbymud4UrCVzxrAHgYRPRmrZX0iU7QIxV3ceXi7TFILqki2GjVtvJO6K+YAFmlVYMaMvtVTv5vxF5p2LAzryouAtukaNofzWxKAuipbtijrkfFm3KOaZXVDtmxRGhZkzKB6hLopU7QId1kIq0g9St2cFGxl25bND2cfox6elmx1sI2Lk3o+j0uLtv5e28CCBOPxWYDF+a7Q+FiR+qTW3+LytqaXCqbsIq63HQFZxG3pdy2c7IZy3fc1rW/PAizOOdtzDBSsO+ZBFm9HXiSwzlHLyV4t3MasplJHxD+hswhtEfQRjJenGKXJbDbZvQSVnzyKcylCr0iR0pqhbKl7KDtLGZ37qaM4nQm+BLUpyitNrAKnm9UbsUkwasRvVtpPy9GhuHkk7v58b3MiXg3jWzceCrCfdzDLbQJ+nQPLEBPgLzigGVMCfb2DMrmcF1B0WTJvdEC6skrLsH/JwWxXCfhNDixdJcBfdkDTVQJ9wEEDM78WjP3NCuVXvB22OOtCJDKZqZvVjZeCW9VoRfLDSzEyqqTYA1zBVj7HlGVc7BDwcD5btigjA2r1B7LXgLKbLVsUOgRUZiYwPWaRqlV1wQBP79sfsq6rQ1O2tRX1YW2K6wnbjiAd/Lmtwpgb7yet+IitIGKCP3ha/YUtWheG8kdtucV2iJ8QDJ8rrU6rf5wDm/6rxHgiWPqcrcoybqsq6j+6qp3haOCark0n8kOrz9sax5aZQqD/aQ5qlQDwFyzYkDH0g3C0jXC+aOHxhk8TVVM/xmENYBt3dhqF98rUX2DSX2bB5pe1DfUHtuR4djNFT+/1dodjBh2qt+fVH8omHxfeN9fCcIGOcLSZqZb6K+7PgzG6vdbfZS31p7LAPu6hQO62V47bxsv/UVmQ9uI1kCuIpOIlaUWJfs6ldg7T92M6JWV8iU9p9TMZWIdW3CK/OgOqpBfKP6sJKjI+g3W3ek0Gq4W3EE4PwsDctsD0b3IKIXJofBeD31Zvz4DkB8Ir6rdSXondye3xZ7V6h2axxJevHapUR/1OpqsO0bfJvszyu7KY9T4F/jc26Xc1hbgmM4J3S5CI6xpTZpdlakd9uVJ8MNNBYB7TBijZrGge4IqR+bOU1WpKOlK/mtOfSavMVCAhE0BUb8+p/6XtDYxxxV/k6Q+6skQo8YbsNc2LPf03sWwkuAAN9eOe+nIK8znwA/nvKaTGSE1cAE+KW9MEblqz9bIP/48USnsL++cUVkbrmCzDKvuqp/9PWicuWXKP8UpP/d9MFcNUr/bU//D6SbA5wobr/+btoh64jeIgRrhz+nk5YgFHvqN0XP03baBd9MUZi2X1P5kXc2y5xAuzt2oCVA9ZvcHihAP1Ek99xBuzCI68e3uL5tJ3Czi3mlvna2xy+/iX6hU59YPeCJ8WxT0Yhvcb3PflGKthzrmqeMCasToXvIzAZGjJbvSz3AIPwkkLFdpkqal3EWGT1b27Z8i9N6f+Q9yWbiJiirLkPptXX/buN3FmeXbHoR8hhlgM9RMZcNl+lmORibHAipVAsL85m4bxVzve46mfdPXl/hanpiIEI2YJRrh1sjXV8d7+LLkAfXFO/ZyrkG2e6z4W4msdZH1ygBUzavWgp/491uisgQfY/vMid0b9i4hIFghicGxwL2/RTHNQPu/I1cNZfyCieElOvdDB/AORIT68/mEHaeFZsLsc1sPxvjX4L8/pH/HMPLcn98dWOVIf84gjGDD2bH93PFfzm7aGBlarIvUJjxOUAVr0s7JTGfBvEY90axiTJUcM5nZ7aN4kyET894vqW6wqDlR7HAtjpK94kdQEeyH2etqYiLasqB/KmbdhmOIPaPW/LUpHIKbZB7X6PxkYoSy2XvVCd8wJd/eIcklc0d1S/EhuMJTIxi7dI7XqAPv+n7lgkENdezKZUfyCK8ayoNUXuUI2rWqmRq73zdL7J099Ka5yBM2e9mVP/dcYbpu0+vsRdvQrHm2Is7NgKkNRdZnbr1vZcHD3x/u7qxgEFE69Mqf+t7W5VMhQ44pX5dQPEBRjs0OXj5mM9VKe2TcfNhmzjqF6Mi3Z6pKsKLt5+UnE69RFQItcDk1AmEk0C7Rpn4lcfjHUovsRRrKKPZuah7XYn+vmIRattjtkPLUhCSjXk7iSra7PxKahJOcx+CA8LFu2KM1NVtjcp4Aepx5zFGZR72bloGFZhxFH8rEXQy36PYQRBoT3zbdz6E89ST3xCMgiPtsKISB8ASxiU9HfOg+yeOgdcS4zCZF4Kk9XT5qHWLTNkVEQCV4T2dT62zJli7Fln0yLDhCXV7ekRVs/2EbN0PzoPIEkM4dMVXQR0CJj6kzfk1XmQCs2l6RoEQ7sWEpI3epF3B7s+yVAyaL8qtYv1kjO6KZoAXUv1ZHxVNJPDtyrfp59Qk4/wS5LawfRMKmvc3iERSJiEpvqjdr22BHhRMHGmmQg+GsOkYlinrYI2wbGrH83+9dWCoN7iPwGN5HcmRo/dBqO48W1woWTpZJY6+d76p26716bvMBTfxDvhDbgK+CamYENtw8W1Hv1mLbE3Ciadf8lrf7QhHNHR57YfU6r98UV4pCItYsR4PKP4rpUulWRIiMRhM9r9f6LMYrpQ7YvavXHBgHlMAbtPvWXRhZ9fJcpd0giR3cxJmes4hg/VSZAdt1PWpe8DE26RG4yH6fV36YE5BZKKDwEgU/p8+Ehwbhz55DsO3Pq0/pggofpy/bT2pkSrUXe/6CFU9kwCdTslMLtyRRPlFifDPA+/Z/dbUUNRyFiB9P/Rc+YbondieTVa3LqvzIhMLrT5C6DdQqj+CYT7CKBTPIw8kP4GdEsPRq8iDjXZjgwBN6TUy/1CEvu1EMMsAG9Ko+nh1IwzzLLsOc06b2e+ikvGrJHcIKL7wRa/XE4kuG+xutvMRITC1vv1GuyPN6RV2/2JDjXxuKod+bVr2WQau4Rwlu8A0EBYrp/IE+QKYaUsTr7u4xM3Os99X5P/UZSJ6fW0mHAJk/Nhzycn7hGYFTiG+f1O7JQNsX3afXbCagdEjRAl40yvibPlUdcI6yYmytuefLqdxJ4h1keNzAVMP6pBBpsTfbAfGte/z1bDVvyISpyAX9Qfc4zTwwCcynE0Ui9ILeJVjERG3Fb2BoIW//LO1ID+PN5rky4HWJFWivhX2ArGUgtIv+B3BRDEaOfQcFX1PNzYoUn29sBc7YfiWw+mlf/yWMLpV28uAT8KU/9kQPHbpKAP+sh5t0he7EgWirqXXn1x/CRuW6m+w946AxbOC7lmz31J4ycMx6+1Dbug3pPXv2lZzUT/TFKzHge1HhKW2J12jZYnZq/9+VxjKYWat2CFfU33mCyRdyc8HiW9nvz6m+hzS0PYs++tYgImujPWP+mCNkD6+VwGWeF81mjjMXZbDrcJFYUqQ/l1T+aUZgZNEP5WF79F5zmXRyt5IMY38cdWgxyH8D4fvU/EQgKxEVXREdMo+IeITcIt/v7o9lcBQO/T700t4ewjaa9xVM/Zn8X28J0yawrL9dno9ujCBW9C0v92kQ+26I8DhxG3Lm6QGVYSEstyzNYxX+tYjeQRxO601yTlxYC78VAr24/xpXrNlwu79Ck2EugBfO16NVm+6x9AbJgyqVi+YwDLBqAeU+3hBuL02xcbeupewtMC4GZIU4OgUOtI2MNU0D296r4fasJNsJhZHlgQaaJhRaGUdM2s+UF22/FbT9zxxCP6cGqcKSWZxKYaGO0yXqZB4Wi3enPLN7naT1f6VNzCKnzRlfS543xAqu4FZLS+AA0jtT6VEEkJydB+ywBfg4yOGLgEsNhMT7oqdzGHEQ9ul4N5OkM8lZH37Np+TjvWls+Zp0+K/NSYLVRsQ/EcvHLuPh5Wt4+LktbFSzAPUaLH67Ld6IzUPvqa3EeGL/4WpoHJ0/DljeqQbVUE+Wyr+4qxY68HlqJn+kdTx7NnUg+SCxdGSZ6R8d8ch7H9H4R0qkUyfJxaVqXXYR2aXKXl5rtCgDpMBHhFQ7oWibwKx3c9JhAr3JQ20ECvtp8S67R6ckXiPx2p+pLf9dYUZabXXmNmpmla+vV9F3kdfL4MS5cLzWJIG+QqqT0MPM8MHnFeKMpxq8FbzIlw0an2mxI9zenzwwfbmrdi8dH1I6+aXyUPP9KO3pMrLuy6SY7crpKPpxZJVkUn3qWSrIYgLJ82QmT9SLYgO5TXpmc3VVpmKH9UWjP1flUCFFW9Qxnale9LS/03FLuCFVO6GwnnMezu2FK8uOQfEg8HyQhPxzAVfro9yLS4nqBniH7yYvIOhwfhJRkBBAz6RXNxtxyHYCWIfVpSF1U71OZktlzFcKZRa3Owl2z+8gzO/P8TpVq9kPrjljWC0g7+1zSWabepzLtTICEXOKeYjz2hXHfeEr2GepnwOCUiw1vMGNmXnMzYqmce9l3v+Cp/AExDFP4oqcKu/sRu62UvuSpBUu6k6B7eib5Wjg+R/QfG2sRNmIKHt72DP+RjSCtrSck2TAm+BkVYS6CqVkHavUIVK+SDUQksQuRmn2c2LGfjNMOLxvI0PEPHObk7xAtQRfZEHIQUfeYlY8KZx7MtMNt5RXGyMhuBrCPVwGvrIPnTnY3h+Fq3/4uv2HFm9vKNm8kDb+KSLOv6wvlS+OpfGqsVdZYa/kVT7taYT/pBebT/j3YgPlqY91vV7Eu1VrN2hRbkZvrIX35o7x8PAS3GP8FZWCZb5jCA3mVG4Xn+luHbnfvhOnjkfwczYoIZ9kKeWyHTzwIWfdHlhaEjz4azO+ZOXLNq9K2MJNJfV5OLWQFtLg3lQdpnHsMrQhvWi1luVye48WCvZwEVGwe2zWDdVt4lbY/eLEllH2ucUcYkN+Ime9UGbGT6PgXWoiY7aBR9nvysykA861bRxhFn1mucnYwxRWth+6AJj8/dNAX5LRXzYDniUBjJjy9MKfk5IrcvgFyRzCVl32OruAXn1K+fy78auuu+XLcxdGwHxZ1XyhV5udrpFqG3fMrqJL9JYNX7LAJrvsVtAoU+d5q0LN/8UOq8Wi6bJHSUzcLd8+m5wPNKue+NcuS7TbKxY5P1r5Alg2MgmebpQZr7vctNr/BaR41MiAXL25YvcudNSWZDoJkSfTYimaxWJaNlU5U4Itv1jHTms5vha3fiSNngL3Ar+GYmFrnpZMrwKpIynm/2c64O+TsNJnKyR899/CyTQbWZ2gkni1ZN8RsO2GSNbTnQG402TZDMMwwXppTueGWoZm31CP14zldiEzX4aBpYNSyjDr2/Q5rYHEHXQG4hJlis+PKd7LLlseUaFlBeABzVyHqss49LT8ot6vmU3Cq3JJJ0+4LaV45EBOZO13cKCY4eYkwkBZOB0bGC8bzvUtAi617OusGuLQmJnY5MOBjwdmqcW5XzjTl+Tq54+1uIJATpaL51t9Jjk7yIWGzEE9V5QRBvM7PBJkxiPZdelxZQWviSnYkEmNRi0TB5APHD/kUlsnac0DkZE2irFqvg/WoEa0RwhjNEVk0D2qb+4QA7A3Wa3PMEPsNHo9IP37uKL8iCBv7hHamlPKltIHKGy/UrBTVbaQFnRwV2I56NftJvpzlYWxPK96xEVlD5g0YhkgOfFjQgjp2CRbYVCXOkRzqOSkzwDfm1PJgHvQm9GoeJBLFUDyQU/nB5P4xGyZOXdJZAR2MkEU43jpMoQsiHsQ8nTVtdLSgFuWh+zQy/De3a9Sjc0uVdFeRCjswPc+A8KSl1oxVFYwyIA7lxBWLRycCjCGe8aPu6jaNgcmt+0WqyeWDS0lDxV/5VjXz5T7dNh/AxEuYR/NstbLVeBvZaictLHTdfpwbFOXfneTTH0ULZhww9QpD2fs0s0XjN6NGtiJSb8vp+d/hRUwszql8yWkXZGcEEXAhoewbKt7iMO2hA5jLcvaeBDR3K47aJhWZS/Ec200nDZTiBl4UJy0Qv0YDpIF4ajhStFvYlYjIOqF4QJQXE9423AGiY9xN5pqBv4fNuTwZE+yBSH9UNFzIztl3OYRA5MAhyG6f/n69aFCUd1PKhrhPLE3EmcI6oKoNvNwEkh0ll9Ps0AbnbpVPcYR7O6DMKANzxXnkDYD8Dlkuwak3ZNryK94YYl80LElYZnTJcPryxWH5Y2mH7O9ciBOv2poSbaSzFcvvKhfRUq+W9XHWz7RvEdyK21QnZkbGscSNSE7OwzbEvKnX5tUpM2FOmO/21GWQc9236X1mY2Ixx1ygYSLH3emoOm6E93N4AnTFPGn1lpy6ch5kVjezd5XpLDg/3OtMRMTI9+oEVDos7pqzwbK6BhHaOSd8mNfXJsVUR96a09cdYdVKIcPr9UcQqrGqH4SJ5yZx8hvmuQ3ANIfeh83Dk6PvjfNw8M8Y5+ymRDkDMOQirWUeSxB6chs6EfDMTxzSn5ziubjVVgnNmxdVOOPfE//4iw3iTAO/hDhEg/BRrWZsmb671Ly7h6tH3msFd5Dk2FE75XWJYVDKw5WjypI6Hx7KPh+pgmZ5GKjr6x1YnXWYtu95PW/f/OzNvOtnsF4dKcGjtZx0lf2bIM3WPb1KV2xc7MpZZLFB0ljv2nI46KLJ1QF0vQRUOkyAuW2CyGeMEPOR7ejdOc6bMapFrCLLU2JiHDQmYOGLPvusvULxTrgxRNOtrsl5s+EM1aSnWfxw2Fbk75cXAOhcYccGlrFhoRDqIBHqFxP8qjxCdq+Nl7ZZt2hlFibe2wGrRe7sjnHbem6Iusr+RnkFwWcm/rjpYcNacCOAE2iMeyLi5fbNqIDKgRktClwgVUAcKkBMxw4oV2PesBXJmxVvad+MTceDFs8mZo1weJaV/CXHV7jE+BbmMc86uR0VUCzFpQ3Ykbs4fKat/vigH8l1V+geg7L17HHdOXJsswg9U66EsmBNVNo2WrNamK/L36Vhu9yy0eUnKm3rDdHaZKtvxrOpvAw4YPNktduvqg2OUrSU1s3DnTaGleaLnMe5SThP1AAcDvl7Zv1CNThiW8yzIqi4u9nE9HodJp6lhR9+wIKSuwPzixxyrl+9M5lxETFzRS/iIOfysQ1IGtvZLExsyWF9IwLMszVA1djUTcauLu+alTD8e5xLZ9WB/GKnkPQZpBataBra3s1PZXGoV3Eu0cXOZG93gou3RaRfNBJ+sHUZawgMhZuHGUqo3tRd7sVwsaj42JytLsGEVGYZsfH7fz0jkLIW5QgzQhd82NlgSUwCcavK3NCds2x6BYvesGiQHUYtpE+XoqVJIRBFBpJDjySUIfsZwSqd7xue5TGycSMiWa/oEl4aexDTMgikR+zsJn6UY78i/bhpjtRHCAp0kq0rcTOxvel1kGr7BILMjZJGFMbdF842iUHZ0WCDJ7grprNP4EiPw/uTgneRMlREGXLkYrUBgtIMo3WLWR03wvuPDAHtGSTMfVICN3FwYiaClutzobpYTcGxqBFzJCXTiz7abcxeMEcH7qKYTgacNz8kVp9jvxBrWzbLGnWJ5le/sxduNZgfn8gUu7I5YQVxC0QXxXlaM68D/NBv2F7KQdymbYa4iXEFKljNaZnL/z5RMSKc264NisYwyuFoRPy5KpCFBMLZ3EAW5+e0ZYaqcvJJda4JzIlRFbnRsFlCGfV6lasBKXjzTVkL5kENktkzVBCYPFI9x5zKjwLYIWNlxfgGMjlEleVXldiAyDAWS1yP+tEsVjpLXX0KpboYHECGu+rPc7bMks+j9ljNhH5uc14P46VQ5TwrH7v0IoOfWNlcPDT7k2qm6+KuhaNLMBokHDmijolIfZED1xyTxvgTz043F+4/Y2qrIktLknWwQKNEXpH6Qk4vUkcUy35dhTAeioDJQeDsd2xlHVv2NuRclQa75LAjZ4dwUCZQgwbQZD3El9wM+zOmlPXvSzTPBOZUibuppKS7+AN0Kgx5j4zoGZ4R5yKaHxOFU8+5ogSoJfrzbJa4bNv2pFKQvdjs2e9nNe/CZ6g+kFPpYlD36aXJJh0dME6M3fIgxE8IG5bmMWwB5sFsoZH6YE6vWBHH2yaX+zn5Jq2z9U07ydxG5fQJuprC7Yo6aeYsxlm3hoCVcGoO3rrERkfz++T84lBi8hWRLCb18j1KqdJE6ks5fcVWZpb+iXPLwdx8fDmnrmLZn50SfUN2V8sXplc5PQTMNkqk1TUZkxSbNi6DcvraGRPsTNFncuo6KQaJFD+bU9cnk1I0W0fARN2wPdnaj5rjDsiuLYeQnWT+v5Lj6BEPL0h3tKKhWhGOP5rTNx0ML7GtfTynb94aDZkexLSiHm66goq8y0DP7lOPuBRl2Ssz1D+W049MBI4YpLE/CsUht11hKqBqJ1L3x5PxoShRNwYZr4kc9hKrwwEssszhAQRoDqG5/t7OXfvh9DATMZ47bzQ6hIC48uR22/zVON2qdddMUAgXbY4CViViJxf/uUGv9Mnpaw8DhjnZjKl/DcMktZb7KJl4T2+O0HMTOXRWh3Vk5wRfkdEzi4QwzNKxvrZMorsHW8JJsHdKmLIZ8Ha4a22/vc5CczkZADfF3IycyGdR5emoJC5LAW9UrsIWCaih9m3WFfIeBEA7YDOw3T3TeDEC1JUPLXIoqad3aViqlAUaiIKDROfSgBwW4BtTZusPZpM9jhqQSJyXaWOyy7nGjt+bszLDqCwrgRCntCBQ41pYhuZxxymVFxLUKRvFLE0n/cEWTHFLOYe9NS/359FiBq9T9fy8uLyuH/WiPDY7tgutLNheXKoX5NVCHcLIQnmPFiz0Rme78jAPJmOcTacV6p2eNmodl/+ZcPtQaAtDl1wGX82pRxgNUi/UekFypX6ErbLb2c1yB9cfOau52N/aggWVV0uRxFEDfE9bsxyXO8LqM9WxuFzGmaAzA36WWjHv2WC7oI6brNNYAkGmuJqcrU/ajlv9wxGiBnAqmls0crn89Zy+LDP4ZEn8S05dvg2lDXtqZRhXGOpVFI1VxnZ12NyfRSKK8dYIi0+cSvZIdOFKg9hC7MbSXIWmEFvDno7YWkfd8UCs1dZ59ZK8vsaA2mEGdO1mrBeRenFeXzcNt6zpDMLv3Q/ROBdgX1TXm35KU9RwB/ecKMIqDNuh32DqfMJI3A2I3N7iqYftyQHicLxVZB4xRqDdmHzugZvS0Jyx5AvNN+Hnzg7lEWfVXmzWYIkRPHxrNNzblN9kJca9HZ7jXy7p8/qRcIcknQWJ7PS/NK8ehf/VDvcw6QipbOcSYo/2L4Fuz19uMo7Yo6M1yc27JxpnYQl2RqMtjGujvM7LR1qL8nQ+0zXH23MMnKmKv1AGycpwe7u8sy8RopWUFJZCa+tPLihvYD9T16CaRYOPYVzmqlDK27zT7IItVRkkywiVZPgLW0I9Kppf6iKYzg56IiC6WNwk8CmKhqTWhyy86dbOIV3opb2LYcuXQl5jQDKTx/YuDV+R8cULw1sYM4R4hJC024EsZsbo5BCpl+d1Tool6U/Q8puSa5keGvMUCnuXgi6043e+RieV5/7kX6VHYjY4Ff/tbJ2gVmQ5esTRyK/b2IyexpWGzivzeJZ9u4ULtgGqlRIX235RNku1WmsWZUvVQUf++B45r1irFs21nrn6JCNfamz7gfsr44W6ubhdyD46WLSPkuSxAaUluaeL3yksVxsbUBSsYzEr7dAe/1OWlr4xSwkntu9Ctu+Fub4Xs30vxR0Wx/aCjyuzh3gQsKK8babclTj4cJfTj+RiIm8cZAt/tiqEF/amWGmWtgW9nr1k113jqzfm2Yjdg1oLeZArrm1WdiAW24LelFfL0rGM3kJeRbTfT+gmUX11pbzcS66q3R+EtkXNhMif9bTvxOw9obk+d3+dvlIVfSGX9+/qFmsyn4VGk6t8KVFY4PJe/ty9EfliUuhx1x2jLK21fVSwbSooL2fLWcRj9u+orZgpOk4vJCfs5FVXhZuTtGrYvwh8Cn7N9/R6tWbzjHmNcFnDd1+mvbwKF+1uZ10wr0glgpKHSSERz+vySn5v4cDF6bl92XjNRUGi9PV4Zkzcm1m297ngpAsDHFw4A4/UG/Lpg7jVeN5oTSQRv5izDi11P1oVXZF8QkVmE1fTkJH7FD0AYJT71WDB5LzGvwaPJW4ahOZNPK2HYiH12NpGPLS5pzIJvhDZkH64IdMM2WzXb8kwniL41OIBy9d2xDGA+EEGZ24A5pm1UtfIHzkMCOj7ojPm7Yu5brB30QQW5h9ieua5Y/rgMLdmVmheqMgLJMEpmI+lmiKlhWBd/oy6K9n16gpLKE3TfIFy2eZ6sS04Zr8TmZRXXDk2DMfTB5Luk5DOHthvQiYvLU+Zons9eVmtmn0reflFjymvkMch5vlCBnhlCkyu6K8yZFFtYjGsTxn01WVEjk8x619ocd23Le8dVe6sL59KViyYdpP5QKDDpmB79rVGf7TBnsd5xOkjrpuW5xTygw1Viy+ni+1OtWxGp+WvxdMhWa9R3CDJFd1Xp/Pr8vepCuu38e/C+u38u7h+B/8urcvfpFpev5N/j61L1EDmayW5GT++2uSyXHInsD5YmYDsScE5tS7Qy9gKSC6fu1i/wjyUurIr/15V9xtd0qtr8kf6rqkI7NpKh3+vq8iIr1+trnUNjRvIlYstN4CH1TnRkd6I6SK5SQz4zX6dfx8uymBk/4igjmKReaRw9ShmXOg8+i7+eUxlVVo/tlgqCZuPc09UHt+Wnr+pLQP4ZrctPEH+8jPpt5SxQ6RPZOJIvjUomr8f+aQzJeHz2zC4JLcERkC3ymBuE8DtMrg73N8ifHLJ/CnCO0sVmZmnBC1jKZ9qWHjaWZM8vVUtd+yAvz1odtvmg4zPqNZlPN9BHEdG+MxaseTLuL6z2miZvzz9rFK30zFyKdq3R+RKwr972MAC7cSTVyFvZejLaipipsmvNrsdS2uNa0Bst5nJ9To4wlZ1terXKvYj76dr/pp943VGVLgtvwhSz47VrWGvFu8otlrmfs92dXOp2MASkCsTbGzVfKadrkXmFWcvqo1VIeC7Qa66CV5DU+Vb5JbOOoEsm6sGfrFt/nLn6eyzrBOpuj+c5d6tNxJdfTQhAaIAjtJjKlV5Pd40PDyukn6h/PGxoJ4oLe0q/lY7AU9y4rxFUrRJ+LwVx0u4uI2dTHp9Mhqf/fD9U9rNsyRPJYkJP4280DZcPb0jT+PIPLODU1MyulVMplOX1/3yGW5syXvy4euybzQ6hzESjcrDdNdxUojzmTYLMUxMsIh3MZn9pXiebZ/LMcaxoNzmsthCV8wHRCV3MmhVGwlfp+Ca5HISlNgo4xWiTbbXKztt35deyV/FfJeaFn61jID0GpGfBV0rDJJeJ6nt83rDSSysG+hC0Mk+TMiS3iipI3WTSA0/hmypyA234J2pNWW2avVi+66uaVG37wzJoWd1M56mwa5Uixa5leTusopl2Ttur8bJXTZnwh6RWqJHuil5VIWV52CP9eutdWyr9PhNq74JrH8z9ssu7CewfPy2+Su531JtBLBhW31bvNpuF302mwaFO4PYnn07NobJsQ/nnoGl4SYnLn4HLUXc3ynjI31WfBJoi6ahxb1bKQRx4TYKnbhwO4VuXLiDwkZceDIFo6pSuJPC3VIwPN6TWP57ZQ+xU/dd6Q7z3bJ+3dKm+D0yjX7Pyeo+/IA1Y0x69SM/UPP0IBqU5WfN5kOU5suw5khqHa8QF0UcmAdxYLJVPnBcl+TTsdsClwOohKvqE85bQ8JVR4/+ubJ46y33azTluT9OoNI/TkBBVwh6irM4j5zDDBbLYj0u8TcNKHnlS/46jsihtZDK/MCkk/4deG0yApEaAF4R85r8xi09lRTmTiUR9e65MG7fkXPJcOzyBaKEBrE4nfYdoRVdmOtBnDzjbsrft0gOWKgfs09Gx+6UVzVTmrM18eO5/EW08CRnQu4D+LcHpsf340HOoZmfNaaz+mFm9aJ6n0qm1uvHQIbp6H0Qeut9IkGZX0nG6LEm7GTr5Yt3F7XIMPARGPCJ9hj31oUgw7hMA7mh+AQ40bi/F+1wy6A+zvnBTzAcGIrbEsWyyGm1EKAuMukns1X0Y2T1KWQ16tvf06Z0O1KVPRzjaQd4pn7H2EjdxYiQeklYOxfcE1j7m8fEd3rFljgehWbDPA5i1igtyJYdFDd88otFqV8KrJK2OICEHGb6yFpmG+oEF0BQ0pF55W2K2p/7zB5zy6bvU4EXYLyB+LPPlqCVZ54w2Uje7p9Seua+U2FK3HbZUgPJMXwJxMPAp4nPlh8iXgY1GyCRiR5jDiQm47HEM5HEpo1FbaqcieVVJdAisbiHDjzm40NOddDkKG/zci8kvz6H1fSHThQ486OMtpjBea9GcBKKk2PhhtQL10X5AwG6MMNBR4fH0h3TTFBb1upu/wJJfhCa351uGAVfVoVLU7HV2nOkDkyR69gE2x1Fkx/u7BG05F5tuGcuEO+P39vkhlwqEORm1NiHcLYlj3MKBxd1xUVnXi8k1FfFBJpfi4ZxB4xdTtZYVW+7vzscyfmZKYQL7swIGWZoAvlCXhf2I3NolsPMlv29O2y4PgyFtiWuvcloYCHQlBcJScGON5BessgGQLXgxnmLalsaGMFU12LbABtSoE0klbYuUl9heZuGMSDGVl9m+RpU9c8xjlkO8SajNDeo3B3JdbCJd6YoUOEmSz43aeSlI4YuKNx22LaR+hpBQhGOaYSaR1s73AZtJDJmg2ME6p/oeuo4+ypBgtCS/zpr5v8D+QQAAH2Ve2xURRTGz91Xbbul2AfQ9xZKa6QKUlLU7t2dGwyt0rVNoZoahJaylpclgRZSIPQhUgiCETRQtEn5QyQiYAQia/fuLkQjhi1CgQgRTW2aSiAVS5REIKnfmWXxmhi/5HR+3507c8/MnNkqionMZP9o3/EvrQmdRKFOhU6Pm71svXfW0plzPesWrGtqKX21uGzVnDeKKVlJOWkNxqZSBmVRrqIcscWb8Mdujg60KGRBkIksivWF1fXNb3obm8imPNZKRLFk5waSzXjSTbTVjLdJIZkF5ZLFZK2sa/A6nvm/QcmMicp6DMTHeaSCkTbrK976ptVrMDKGHo6N33I57NwyMLY4Mkln+fTTcp7OitrTCZHJUiidn2Qp2ZRD+YpCpo39Fy9uWrF8+aY7o6PcZeY/WI9CBZRpSWuHm2oppBl4teNqONzRPzZGPQonM/B1rInTocm8kBcbm7xrGutWOSoaV7U45tQ1rqtbS7ZoapGM/nNZu5CFTWlLmArPgbmlFjoGRPj7DCeQelL3uTxPzxEEnc0Iqau9CwQ91O+zagU91PYs0tBIvf98meTxE3vUzUdfkryldIer8tjLkrOrV4o7fzRIdtweEYdrWyX/+FetduuDCsllv3i1+yOReQovezVnw0JB0J++Wu1qrRAE7Zk0TdOW6G4gdeTeEE9VVJcAqeLYBG3BmScFQbb257SB7pWCoGcPDIsrd08IgpYdnymiz7fHDIuQ8oOcpyupXcyeGxIEbesOi5ueQUEQc2bCEzKf4pvnhEKLJS8JbBbFtz2SD2Wdd5+66HzE9n6r5Mrsfvfe0W5B0L6fyrXoc2bbN5H3D7sKNLM/Ms+9U6QVDS+SnH51THTkR77bkkTaroZBQdCZifnab0mRPIfeKteWBiLzs0baiwN3pglVATfnhNTS6j06kNifnL9WnzFdqCZwoq9GfXA/LPvYR4XC+peM3oIwyuitCKOM3oYwiv0KT5F649pnagz42oatuutGjcyF/e6jXapv51b1MXD9hrjQz6aWIJDYf+hYIpLrzrljwYVlewIlSp8KRLETLfpquauqoEePA1+faw50tx2Ufex9O20ufE+PBx9oKNKP3Mt0AYn97HShVhU4AnYw+tT0Hfmyjz36dN/O/EACGHO6PIEuOSf7+tYa3fKrXR8Hfm9kyN181uMGEvv6E87Q9vxPg4lg71Ch61JvmrxT7EurL2FMXy+QOq/bVYs/zQ/EDSV6d2i/+1BVvPtxcF+43Bm4Wy772O/vStMTfWlqEtgTqFE/d3jkHOwLy4p0+JJk8IXjNerU14tknuyxn/7mnDZ/Crjz+jt6XzhcAsTPEtdImxPjevnbtwb3B7/LsQeBlIqIagLCKKOfiDAq6mPOj7onoUX+TjRS7Hcfjaw1DTE4dNBt8qe6gdJHlY4wyugzEEZFfZ4vLpSJlteK9fUCif2mOLm+El5P1eaDwdd6U4NA/G/5R9kIo4w+B2EU+ytffBycdzPF7SD8br097Gw2pfuB5CB5LtjfcmcumPOofFApCGIf1WSEUUY/BWEU+2/nfeLeuG1CMA+ct7fVz+sBEnv+FppH65l/YTSooLUg+ExZ7E0IM4Kf893kO8h3je8U3x2+I3wXuOa5trmGuVb5XZ6H64/rjOuJ64bH8Z5yLfCZ89nyGfJZZSAyEfwO58X7yfvmoMg+TEZMQeQh6G8=(/figma)--&gt;&quot;&gt;&lt;/span&gt;&lt;span style=&quot;&quot;&gt;&lt;/span&gt;" style="rounded=1;whiteSpace=wrap;html=1;strokeColor=#0070F2;strokeWidth=1.5;arcSize=16;fillColor=#ECF8FF;perimeterSpacing=0;absoluteArcSize=1;" vertex="1" parent="-Aj5rOMPWS9pz5DeyN8X-1">
          <mxGeometry x="-1147.63" y="-1975.21" width="244.63" height="176.21" as="geometry" />
        </mxCell>
        <mxCell id="-Aj5rOMPWS9pz5DeyN8X-2" value="" style="rounded=1;whiteSpace=wrap;html=1;strokeColor=#0070F2;fillColor=#EBF8FF;arcSize=16;absoluteArcSize=1;imageWidth=64;imageHeight=64;strokeWidth=1.5;" parent="-Aj5rOMPWS9pz5DeyN8X-1" vertex="1">
          <mxGeometry x="-2199.5" y="-2428" width="989.5" height="705" as="geometry" />
        </mxCell>
        <mxCell id="-Aj5rOMPWS9pz5DeyN8X-8" value="" style="shape=image;verticalLabelPosition=bottom;labelBackgroundColor=default;verticalAlign=top;aspect=fixed;imageAspect=0;image=data:image/svg+xml,PHN2ZyB4bWxuczp4bGluaz0iaHR0cDovL3d3dy53My5vcmcvMTk5OS94bGluayIgeG1sbnM9Imh0dHA6Ly93d3cudzMub3JnLzIwMDAvc3ZnIiB2aWV3Qm94PSIwIDAgMTQ0Ljc0NyAzOS44MzIiIGlkPSJhIj48ZGVmcz48bGluZWFyR3JhZGllbnQgZ3JhZGllbnRVbml0cz0idXNlclNwYWNlT25Vc2UiIHkyPSIzOS44MzIiIHgyPSI0MC4yNTgiIHkxPSIwIiB4MT0iNDAuMjU4IiBpZD0iYiI+PHN0b3Agc3RvcC1jb2xvcj0iIzAwYjhmMSIgb2Zmc2V0PSIwIi8+PHN0b3Agc3RvcC1jb2xvcj0iIzAwYjVlZiIgb2Zmc2V0PSIuMDE2Ii8+PHN0b3Agc3RvcC1jb2xvcj0iIzBkOTBkOCIgb2Zmc2V0PSIuMzA4Ii8+PHN0b3Agc3RvcC1jb2xvcj0iIzE2NzVjOCIgb2Zmc2V0PSIuNTc4Ii8+PHN0b3Agc3RvcC1jb2xvcj0iIzFjNjRiZSIgb2Zmc2V0PSIuODE3Ii8+PHN0b3Agc3RvcC1jb2xvcj0iIzFlNWZiYiIgb2Zmc2V0PSIxIi8+PC9saW5lYXJHcmFkaWVudD48L2RlZnM+PHBvbHlsaW5lIGZpbGwtcnVsZT0iZXZlbm9kZCIgZmlsbD0idXJsKCNiKSIgcG9pbnRzPSIwIDM5LjgzMiA0MC42OTIgMzkuODMyIDgwLjUxNyAwIDAgMCAwIDM5LjgzMiIvPjxwYXRoIGZpbGwtcnVsZT0iZXZlbm9kZCIgZmlsbD0iI2ZmZiIgZD0ibTQ3Ljc4Miw3LjQ4OWwtNy45MjUtLjAwNXYxOC44NDVsLTYuOTI0LTE4Ljg0NWgtNi44NjVsLTUuOTEyLDE1Ljc1OWMtLjYzLTMuOTczLTQuNzQtNS4zNDUtNy45NzQtNi4zNzQtMi4xMzUtLjY4Ni00LjQwMS0xLjY5NC00LjM4LTIuODA5LjAxNy0uOTE1LDEuMjE1LTEuNzY1LDMuNTg5LTEuNjM3LDEuNTk1LjA4NCwzLjAwMS4yMTMsNS44LDEuNTYzbDIuNzUzLTQuNzk1Yy0yLjU1NS0xLjMtNi4wODYtMi4xMjEtOC45NzgtMi4xMjRoLS4wMTdjLTMuMzc0LDAtNi4xODUsMS4wOTMtNy45MjgsMi44OTQtMS4yMTQsMS4yNTgtMS44NjksMi44NTYtMS44OTYsNC42MjMtLjA0NCwyLjQzMi44NDgsNC4xNTcsMi43MjEsNS41MzMsMS41ODMsMS4xNiwzLjYwNiwxLjkxMiw1LjM5LDIuNDY1LDIuMjAxLjY4MSwzLjk5NiwxLjI3NCwzLjk3NSwyLjUzOS0uMDE2LjQ1OS0uMTkxLjg4OC0uNTIxLDEuMjM2LS41NDguNTY2LTEuMzkxLjc3OS0yLjU1NS43OTktMi4yNDQuMDQ4LTMuOTEtLjMwMy02LjU2Mi0xLjg3bC0yLjQ0OCw0Ljg2MWMyLjY0NCwxLjUwNiw1Ljc3NiwyLjM4OCw4Ljk3MiwyLjM4OGwuNDExLS4wMDZjMi43ODItLjA1LDUuMDI2LS44NDIsNi44Mi0yLjI4Ni4xMDMtLjA4MS4xOTYtLjE2Ni4yOTEtLjI1bC0uNzk1LDIuMTIzaDcuMmwxLjIwOC0zLjY3NGMxLjI2NS40MzMsMi43MDQuNjcxLDQuMjMyLjY3MSwxLjQ4NywwLDIuODg5LS4yMjksNC4xMzEtLjYzNWwxLjE2NCwzLjYzN2gxMS43NDJ2LTcuNjA3aDIuNTYxYzYuMTg4LDAsOS44NTEtMy4xNTQsOS44NTEtOC40MzYsMC01Ljg4NS0zLjU1Ny04LjU4NS0xMS4xMzItOC41ODVabS0xOC4zMTcsMTYuMTI0Yy0uOTI1LDAtMS43OTItLjE2LTIuNTM5LS40NDNsMi41MTItNy45MjZoLjA0OGwyLjQ2OCw3Ljk0OGMtLjc0Mi4yNjMtMS41ODkuNDIxLTIuNDg4LjQyMVptMTguNzgzLTQuNTUzaC0xLjc0NnYtNi4zODZoMS43NDZjMi4zMjgsMCw0LjE4NS43NzMsNC4xODUsMy4xNTEsMCwyLjQ2MS0xLjg1NywzLjIzNi00LjE4NSwzLjIzNiIvPjxwYXRoIGZpbGw9IiMwMDJhODYiIGQ9Im04MC4yMTcsNy40MDFoMTAuMDYzYzUuNTk1LDAsOC42NzQsMS45MTcsOC42NzQsNi4xNTgsMCwyLjkwMy0xLjUxMyw1LjAxNC00LjMxMSw1LjcsMy4yOS40NTgsNS4yNzgsMi41ODYsNS4yNzgsNS44OTQsMCw1LjAxNC00LjA2NCw3LjAzNy05LjE4NCw3LjAzN2gtMTAuNTIxVjcuNDAxWm0xMy45NjksNi44MjZjMC0yLjE2NC0xLjQ5Ni0yLjk3My00LjI0LTIuOTczaC01LjA0OXY2LjI5OGg0Ljg5MWMzLjIwMiwwLDQuMzk4LTEuMTYxLDQuMzk4LTMuMzI1Wm0xLjAyMSwxMC41MjFjMC0yLjM1Ny0xLjc3Ny0zLjQ2Ni00LjgzOS0zLjQ2NmgtNS40NzF2Ny4wNTVoNS41MDZjMi44MTUsMCw0LjgwNC0uNzc0LDQuODA0LTMuNTg5WiIvPjxwYXRoIGZpbGw9IiMwMDJhODYiIGQ9Im0xMDkuMDUxLDExLjVoLTcuNTgzdi00LjA5OWgxOS44NDZ2NC4wOTloLTcuNTY1djIwLjY5aC00LjY5N1YxMS41WiIvPjxwYXRoIGZpbGw9IiMwMDJhODYiIGQ9Im0xMjUuMTQ4LDcuNDAxaDEwLjUwNGM2LjE5MiwwLDkuMDk2LDMuMTg1LDkuMDk2LDcuODk5LDAsNC4zOTgtMi44MzMsOC4xNDYtOC44NSw4LjE0NmgtNi4wN3Y4Ljc0NGgtNC42OFY3LjQwMVptMTQuOTAyLDcuOTUyYzAtMi41NTEtMS42ODktMy45MjMtNC45NDQtMy45MjNoLTUuMjc4djguMDRoNS40MTljMy4yNzIsMCw0LjgwNC0xLjU4Myw0LjgwNC00LjExN1oiLz48L3N2Zz4=;strokeWidth=1.5;" parent="-Aj5rOMPWS9pz5DeyN8X-1" vertex="1">
          <mxGeometry x="-2180.45" y="-2409.25" width="67.25" height="18.55" as="geometry" />
        </mxCell>
        <mxCell id="-Aj5rOMPWS9pz5DeyN8X-11" value="" style="endArrow=blockThin;html=1;strokeColor=#475E75;bendable=1;rounded=0;endFill=1;endSize=4;strokeWidth=1.5;startSize=4;exitX=0.495;exitY=1.098;exitDx=0;exitDy=0;exitPerimeter=0;entryX=0.5;entryY=0;entryDx=0;entryDy=0;entryPerimeter=0;" parent="-Aj5rOMPWS9pz5DeyN8X-1" source="-Aj5rOMPWS9pz5DeyN8X-32" target="-Aj5rOMPWS9pz5DeyN8X-22" edge="1">
          <mxGeometry width="50" height="50" relative="1" as="geometry">
            <mxPoint x="-2267.5" y="-2044" as="sourcePoint" />
            <mxPoint x="-2269" y="-1975" as="targetPoint" />
            <Array as="points" />
          </mxGeometry>
        </mxCell>
        <mxCell id="-Aj5rOMPWS9pz5DeyN8X-12" value="" style="endArrow=none;html=1;strokeColor=#188918;bendable=1;rounded=0;endFill=0;endSize=3;strokeWidth=1.5;entryX=0.5;entryY=0;entryDx=0;entryDy=0;dashed=1;" parent="-Aj5rOMPWS9pz5DeyN8X-1" edge="1">
          <mxGeometry width="50" height="50" relative="1" as="geometry">
            <mxPoint x="-2086.717098445596" y="-1747" as="sourcePoint" />
            <mxPoint x="-2086" y="-1707" as="targetPoint" />
            <Array as="points" />
          </mxGeometry>
        </mxCell>
        <mxCell id="-Aj5rOMPWS9pz5DeyN8X-13" value="&lt;font color=&quot;#188918&quot; size=&quot;1&quot;&gt;&lt;b style=&quot;&quot;&gt;SAML2/OIDC&lt;/b&gt;&lt;/font&gt;" style="rounded=1;whiteSpace=wrap;html=1;arcSize=50;strokeColor=#188918;fillColor=#f5fae5;fontColor=#266f3a;strokeWidth=1.5;" parent="-Aj5rOMPWS9pz5DeyN8X-1" vertex="1">
          <mxGeometry x="-2123" y="-1731" width="72" height="16" as="geometry" />
        </mxCell>
        <mxCell id="-Aj5rOMPWS9pz5DeyN8X-14" value="" style="endArrow=none;html=1;strokeColor=#470BED;bendable=1;rounded=0;endFill=0;endSize=3;strokeWidth=1.5;entryX=0.5;entryY=0;entryDx=0;entryDy=0;dashed=1;" parent="-Aj5rOMPWS9pz5DeyN8X-1" edge="1">
          <mxGeometry width="50" height="50" relative="1" as="geometry">
            <mxPoint x="-2009.23" y="-1747" as="sourcePoint" />
            <mxPoint x="-2009.23" y="-1707" as="targetPoint" />
            <Array as="points" />
          </mxGeometry>
        </mxCell>
        <mxCell id="-Aj5rOMPWS9pz5DeyN8X-15" style="edgeStyle=orthogonalEdgeStyle;rounded=0;orthogonalLoop=1;jettySize=auto;html=1;fontSize=18;strokeColor=#188918;fontFamily=Helvetica;fontColor=default;targetPerimeterSpacing=15;endSize=4;startSize=4;endArrow=blockThin;endFill=1;strokeWidth=1.5;startArrow=none;startFill=0;exitX=1;exitY=0.5;exitDx=0;exitDy=0;entryX=0;entryY=0.5;entryDx=0;entryDy=0;" parent="-Aj5rOMPWS9pz5DeyN8X-1" source="-Aj5rOMPWS9pz5DeyN8X-16" target="-Aj5rOMPWS9pz5DeyN8X-34" edge="1">
          <mxGeometry relative="1" as="geometry">
            <mxPoint x="-2092.3" y="-1809" as="targetPoint" />
            <mxPoint x="-2189.9999999999995" y="-1809" as="sourcePoint" />
            <Array as="points" />
          </mxGeometry>
        </mxCell>
        <mxCell id="-Aj5rOMPWS9pz5DeyN8X-16" value="&lt;font color=&quot;#188918&quot; size=&quot;1&quot;&gt;&lt;b style=&quot;&quot;&gt;SAML2/OIDC&lt;/b&gt;&lt;/font&gt;" style="rounded=1;whiteSpace=wrap;html=1;arcSize=50;strokeColor=#188918;fillColor=#f5fae5;fontColor=#266f3a;strokeWidth=1.5;" parent="-Aj5rOMPWS9pz5DeyN8X-1" vertex="1">
          <mxGeometry x="-2301.4999999999995" y="-1806" width="72" height="16" as="geometry" />
        </mxCell>
        <mxCell id="-Aj5rOMPWS9pz5DeyN8X-21" value="" style="group" parent="-Aj5rOMPWS9pz5DeyN8X-1" vertex="1" connectable="0">
          <mxGeometry x="-2320" y="-1997" width="105" height="112.21000000000004" as="geometry" />
        </mxCell>
        <mxCell id="-Aj5rOMPWS9pz5DeyN8X-22" value="" style="shape=image;verticalLabelPosition=bottom;verticalAlign=top;imageAspect=0;aspect=fixed;image=data:image/svg+xml,PHN2ZyB4bWxucz0iaHR0cDovL3d3dy53My5vcmcvMjAwMC9zdmciIGZpbGw9Im5vbmUiIHZpZXdCb3g9IjAgMCAxNyAxNyIgaGVpZ2h0PSIxNyIgd2lkdGg9IjE3Ij4mI3hhOzxnIGNsaXAtcGF0aD0idXJsKCNjbGlwMF8yXzI4NzkzKSI+JiN4YTs8cGF0aCBmaWxsPSJ1cmwoI3BhaW50MF9saW5lYXJfMl8yODc5MykiIGQ9Ik04Ljg4ODg3IDExLjI5MTRDOC44ODg4NyAxMS43MzE0IDguNTI4ODcgMTIuMDkxNCA4LjA4ODg3IDEyLjA5MTRINy4yODg4N1YxMy42MzU0SDguMDg4ODdDOC41Mjg4NyAxMy42MzU0IDguODg4ODcgMTMuOTk1NCA4Ljg4ODg3IDE0LjQzNTRDOC44ODg4NyAxNC44NzU0IDguNTI4ODcgMTUuMjM1NCA4LjA4ODg3IDE1LjIzNTRINC4wODg4N0MzLjY0ODg3IDE1LjIzNTQgMy4yODg4NyAxNC44NzU0IDMuMjg4ODcgMTQuNDM1NEMzLjI4ODg3IDEzLjk5NTQgMy42NDg4NyAxMy42MzU0IDQuMDg4ODcgMTMuNjM1NEg1LjY4ODg3VjEyLjA5MTRIMi40ODg4N0MxLjE2ODg3IDEyLjA5MTQgMC4wODg4NjcyIDExLjA3NTQgMC4wODg4NjcyIDkuODI3NFYzLjk1NTRDMC4wODg4NjcyIDIuNzA3NCAxLjE2ODg3IDEuNjgzNCAyLjQ4ODg3IDEuNjk5NEgxMS4yODg5QzEyLjYwODkgMS42OTk0IDEzLjY4ODkgMi43MTU0IDEzLjY4ODkgMy45NjM0QzEzLjY4ODkgNC40MDM0IDEzLjMyODkgNC43Nzk0IDEyLjg4ODkgNC43Nzk0QzEyLjQ0ODkgNC43Nzk0IDEyLjA4ODkgNC40MzU0IDEyLjA4ODkgMy45OTU0QzEyLjA4ODkgMy41ODc0IDExLjcyODkgMy4yOTE0IDExLjI4ODkgMy4yOTE0SDIuNDg4ODdDMi4wNDg4NyAzLjI5MTQgMS42ODg4NyAzLjU4NzQgMS42ODg4NyAzLjk1NTRWOS44Mjc0QzEuNjg4ODcgMTAuMTk1NCAyLjA0ODg3IDEwLjQ5MTQgMi40ODg4NyAxMC40OTE0SDguMDg4ODdDOC41Mjg4NyAxMC40OTE0IDguODg4ODcgMTAuODUxNCA4Ljg4ODg3IDExLjI5MTRaTTkuNjg4ODcgNy40MDMzOUM5LjY4ODg3IDYuMjk5MzkgMTAuNTg0OSA1LjQwMzM5IDExLjY4ODkgNS40MDMzOUgxNC4wODg5QzE1LjE5MjkgNS40MDMzOSAxNi4wODg5IDYuMjk5MzkgMTYuMDg4OSA3LjQwMzM5VjEzLjIzNTRDMTYuMDg4OSAxNC4zMzk0IDE1LjE5MjkgMTUuMjM1NCAxNC4wODg5IDE1LjIzNTRIMTEuNjg4OUMxMC41ODQ5IDE1LjIzNTQgOS42ODg4NyAxNC4zMzk0IDkuNjg4ODcgMTMuMjM1NFY3LjQwMzM5Wk0xNC4wODg5IDEzLjYzNTRDMTQuMzEyOSAxMy42MzU0IDE0LjQ4ODkgMTMuNDU5NCAxNC40ODg5IDEzLjIzNTRWNy40MDMzOUMxNC40ODg5IDcuMTc5MzkgMTQuMzEyOSA3LjAwMzM5IDE0LjA4ODkgNy4wMDMzOUgxMS42ODg5QzExLjQ2NDkgNy4wMDMzOSAxMS4yODg5IDcuMTc5MzkgMTEuMjg4OSA3LjQwMzM5VjEzLjIzNTRDMTEuMjg4OSAxMy40NTk0IDExLjQ2NDkgMTMuNjM1NCAxMS42ODg5IDEzLjYzNTRIMTQuMDg4OVoiIGNsaXAtcnVsZT0iZXZlbm9kZCIgZmlsbC1ydWxlPSJldmVub2RkIi8+JiN4YTs8L2c+JiN4YTs8ZGVmcz4mI3hhOzxsaW5lYXJHcmFkaWVudCBncmFkaWVudFVuaXRzPSJ1c2VyU3BhY2VPblVzZSIgeTI9IjE1LjIzNTQiIHgyPSI4LjA4ODg3IiB5MT0iMS42OTkyMiIgeDE9IjguMDg4ODciIGlkPSJwYWludDBfbGluZWFyXzJfMjg3OTMiPiYjeGE7PHN0b3Agc3RvcC1jb2xvcj0iIzVCNzM4QiIvPiYjeGE7PHN0b3Agc3RvcC1jb2xvcj0iIzIyMzU0OCIgb2Zmc2V0PSIxIi8+JiN4YTs8L2xpbmVhckdyYWRpZW50PiYjeGE7PGNsaXBQYXRoIGlkPSJjbGlwMF8yXzI4NzkzIj4mI3hhOzxyZWN0IHRyYW5zZm9ybT0idHJhbnNsYXRlKDAuMDg4ODY3MiAwLjQ1ODk4NCkiIGZpbGw9IndoaXRlIiBoZWlnaHQ9IjE2IiB3aWR0aD0iMTYiLz4mI3hhOzwvY2xpcFBhdGg+JiN4YTs8L2RlZnM+JiN4YTs8L3N2Zz4=;strokeWidth=1.5;points=[[0,0.25,0,0,0],[0,0.5,0,0,0],[0,0.75,0,0,0],[0.25,0,0,0,0],[0.25,1,0,0,0],[0.5,0,0,0,0],[0.5,1,0,0,0],[0.75,0,0,0,0],[0.75,1,0,0,0],[1,0.25,0,0,0],[1,0.5,0,0,0],[1,0.75,0,0,0]];" parent="-Aj5rOMPWS9pz5DeyN8X-21" vertex="1">
          <mxGeometry x="38.5" y="19" width="28" height="28" as="geometry" />
        </mxCell>
        <mxCell id="-Aj5rOMPWS9pz5DeyN8X-23" value="&lt;font color=&quot;#1d2d3e&quot; face=&quot;arial&quot; style=&quot;font-size: 14px;&quot;&gt;&lt;span style=&quot;&quot;&gt;Application &lt;br&gt;Clients&lt;/span&gt;&lt;/font&gt;" style="text;html=1;align=center;verticalAlign=middle;resizable=0;points=[];autosize=1;strokeColor=none;fillColor=none;fontSize=12;fontColor=default;fontFamily=Helvetica;strokeWidth=1.5;" parent="-Aj5rOMPWS9pz5DeyN8X-21" vertex="1">
          <mxGeometry x="9" y="44.50999999999999" width="87" height="46" as="geometry" />
        </mxCell>
        <mxCell id="-Aj5rOMPWS9pz5DeyN8X-24" value="&lt;div style=&quot;&quot;&gt;&lt;span style=&quot;font-size: 10px;&quot;&gt;Mobile or Desktop&lt;/span&gt;&lt;/div&gt;" style="text;html=1;align=center;verticalAlign=middle;resizable=0;points=[];autosize=1;strokeColor=none;fillColor=none;fontSize=12;fontColor=#556B82;fontFamily=Helvetica;" parent="-Aj5rOMPWS9pz5DeyN8X-21" vertex="1">
          <mxGeometry x="3" y="78.00000000000004" width="99" height="26" as="geometry" />
        </mxCell>
        <mxCell id="-Aj5rOMPWS9pz5DeyN8X-25" style="edgeStyle=orthogonalEdgeStyle;rounded=0;orthogonalLoop=1;jettySize=auto;html=1;fontSize=18;strokeColor=#188918;fontFamily=Helvetica;fontColor=default;targetPerimeterSpacing=15;endSize=4;startSize=4;endArrow=blockThin;endFill=1;strokeWidth=1.5;startArrow=blockThin;startFill=1;exitX=0.337;exitY=-0.002;exitDx=0;exitDy=0;exitPerimeter=0;" parent="-Aj5rOMPWS9pz5DeyN8X-1" source="-Aj5rOMPWS9pz5DeyN8X-34" edge="1">
          <mxGeometry relative="1" as="geometry">
            <mxPoint x="-2058" y="-1899" as="targetPoint" />
            <mxPoint x="-2058.808" y="-1854.908" as="sourcePoint" />
          </mxGeometry>
        </mxCell>
        <mxCell id="-Aj5rOMPWS9pz5DeyN8X-31" style="rounded=0;orthogonalLoop=1;jettySize=auto;html=1;fontSize=18;strokeColor=#188918;fontFamily=Helvetica;fontColor=default;targetPerimeterSpacing=15;endSize=4;startSize=4;endArrow=none;endFill=0;strokeWidth=1.5;startArrow=blockThin;startFill=1;entryX=0.5;entryY=0;entryDx=0;entryDy=0;" parent="-Aj5rOMPWS9pz5DeyN8X-1" target="-Aj5rOMPWS9pz5DeyN8X-16" edge="1">
          <mxGeometry relative="1" as="geometry">
            <mxPoint x="-2265.56" y="-1817" as="targetPoint" />
            <mxPoint x="-2265" y="-1889" as="sourcePoint" />
          </mxGeometry>
        </mxCell>
        <mxCell id="-Aj5rOMPWS9pz5DeyN8X-32" value="&lt;font color=&quot;#1d2d3e&quot; face=&quot;arial&quot; style=&quot;font-size: 12px;&quot;&gt;End User&lt;/font&gt;" style="text;html=1;align=center;verticalAlign=middle;resizable=0;points=[];autosize=1;strokeColor=none;fillColor=none;fontSize=12;fontColor=default;fontFamily=Helvetica;strokeWidth=1.5;" parent="-Aj5rOMPWS9pz5DeyN8X-1" vertex="1">
          <mxGeometry x="-2301.5" y="-2041" width="68" height="26" as="geometry" />
        </mxCell>
        <mxCell id="-Aj5rOMPWS9pz5DeyN8X-33" value="" style="shape=image;verticalLabelPosition=bottom;verticalAlign=top;imageAspect=0;aspect=fixed;image=data:image/svg+xml,PHN2ZyB4bWxucz0iaHR0cDovL3d3dy53My5vcmcvMjAwMC9zdmciIGZpbGw9Im5vbmUiIHZpZXdCb3g9IjAgMCAxNyAxNyIgaGVpZ2h0PSIxNyIgd2lkdGg9IjE3Ij4mI3hhOzxwYXRoIGZpbGw9InVybCgjcGFpbnQwX2xpbmVhcl8yXzI4Nzk4KSIgZD0iTTAuMjEzODY3IDguNTUyNzNDMC4yMTM4NjcgNy40Njk0IDAuNDIyMjAxIDYuNDU4OTggMC44Mzg4NjcgNS41MjE0OEMxLjI1NTUzIDQuNTYzMTUgMS44MTgwMyAzLjcyOTgyIDIuNTI2MzcgMy4wMjE0OEMzLjIzNDcgMi4zMTMxNSA0LjA2ODAzIDEuNzUwNjUgNS4wMjYzNyAxLjMzMzk4QzUuOTg0NyAwLjkxNzMxOCA3LjAwNTUzIDAuNzA4OTg0IDguMDg4ODcgMC43MDg5ODRDOS4xNzIyIDAuNzA4OTg0IDEwLjE4MjYgMC45MTczMTggMTEuMTIwMSAxLjMzMzk4QzEyLjA3ODUgMS43NTA2NSAxMi45MTE4IDIuMzEzMTUgMTMuNjIwMSAzLjAyMTQ4QzE0LjMyODUgMy43Mjk4MiAxNC44OTEgNC41NjMxNSAxNS4zMDc2IDUuNTIxNDhDMTUuNzI0MyA2LjQ1ODk4IDE1LjkzMjYgNy40Njk0IDE1LjkzMjYgOC41NTI3M0MxNS45MzI2IDkuNjM2MDcgMTUuNzI0MyAxMC42NTY5IDE1LjMwNzYgMTEuNjE1MkMxNC44OTEgMTIuNTczNiAxNC4zMjg1IDEzLjQwNjkgMTMuNjIwMSAxNC4xMTUyQzEyLjkxMTggMTQuODIzNiAxMi4wNzg1IDE1LjM4NjEgMTEuMTIwMSAxNS44MDI3QzEwLjE4MjYgMTYuMjE5NCA5LjE3MjIgMTYuNDI3NyA4LjA4ODg3IDE2LjQyNzdDNy4wMDU1MyAxNi40Mjc3IDUuOTg0NyAxNi4yMTk0IDUuMDI2MzcgMTUuODAyN0M0LjA2ODAzIDE1LjM4NjEgMy4yMzQ3IDE0LjgyMzYgMi41MjYzNyAxNC4xMTUyQzEuODE4MDMgMTMuNDA2OSAxLjI1NTUzIDEyLjU3MzYgMC44Mzg4NjcgMTEuNjE1MkMwLjQyMjIwMSAxMC42NTY5IDAuMjEzODY3IDkuNjM2MDcgMC4yMTM4NjcgOC41NTI3M1pNOS42NTEzNyAxMC45Mjc3QzEwLjMxOCAxMC45Mjc3IDEwLjkzMjYgMTEuMDg0IDExLjQ5NTEgMTEuMzk2NUMxMi4wNTc2IDExLjY4ODIgMTIuNTE2IDEyLjA5NDQgMTIuODcwMSAxMi42MTUyQzEzLjM0OTMgMTIuMDczNiAxMy43MTM5IDExLjQ1OSAxMy45NjM5IDEwLjc3MTVDMTQuMjM0NyAxMC4wODQgMTQuMzcwMSA5LjM0NDQgMTQuMzcwMSA4LjU1MjczQzE0LjM3MDEgNy42Nzc3MyAxNC4yMDM1IDYuODY1MjMgMTMuODcwMSA2LjExNTIzQzEzLjUzNjggNS4zNDQ0IDEzLjA4ODkgNC42Nzc3MyAxMi41MjY0IDQuMTE1MjNDMTEuOTYzOSAzLjU1MjczIDExLjI5NzIgMy4xMDQ4MiAxMC41MjY0IDIuNzcxNDhDOS43NzYzNyAyLjQzODE1IDguOTYzODcgMi4yNzE0OCA4LjA4ODg3IDIuMjcxNDhDNy4yMTM4NyAyLjI3MTQ4IDYuMzkwOTUgMi40MzgxNSA1LjYyMDEyIDIuNzcxNDhDNC44NzAxMiAzLjEwNDgyIDQuMjAzNDUgMy41NTI3MyAzLjYyMDEyIDQuMTE1MjNDMy4wNTc2MiA0LjY3NzczIDIuNjA5NyA1LjM0NDQgMi4yNzYzNyA2LjExNTIzQzEuOTQzMDMgNi44NjUyMyAxLjc3NjM3IDcuNjc3NzMgMS43NzYzNyA4LjU1MjczQzEuNzc2MzcgOS4zNDQ0IDEuOTAxMzcgMTAuMDg0IDIuMTUxMzcgMTAuNzcxNUMyLjQyMjIgMTEuNDU5IDIuNzk3MiAxMi4wNzM2IDMuMjc2MzcgMTIuNjE1MkMzLjYzMDUzIDEyLjA5NDQgNC4wODg4NyAxMS42ODgyIDQuNjUxMzcgMTEuMzk2NUM1LjIxMzg3IDExLjA4NCA1LjgyODQ1IDEwLjkyNzcgNi40OTUxMiAxMC45Mjc3SDkuNjUxMzdaTTExLjIxMzkgNi45OTAyM0MxMS4yMTM5IDcuNDI3NzMgMTEuMTMwNSA3Ljg0NDQgMTAuOTYzOSA4LjI0MDIzQzEwLjc5NzIgOC42MTUyMyAxMC41NjggOC45NDg1NyAxMC4yNzY0IDkuMjQwMjNDMTAuMDA1NSA5LjUxMTA3IDkuNjgyNjIgOS43Mjk4MiA5LjMwNzYyIDkuODk2NDhDOC45MzI2MiAxMC4wNjMyIDguNTI2MzcgMTAuMTQ2NSA4LjA4ODg3IDEwLjE0NjVDNy42NTEzNyAxMC4xNDY1IDcuMjM0NyAxMC4wNjMyIDYuODM4ODcgOS44OTY0OEM2LjQ2Mzg3IDkuNzI5ODIgNi4xMzA1MyA5LjUxMTA3IDUuODM4ODcgOS4yNDAyM0M1LjU2ODAzIDguOTQ4NTcgNS4zNDkyOCA4LjYxNTIzIDUuMTgyNjIgOC4yNDAyM0M1LjAxNTk1IDcuODQ0NCA0LjkzMjYyIDcuNDI3NzMgNC45MzI2MiA2Ljk5MDIzQzQuOTMyNjIgNi41NTI3MyA1LjAxNTk1IDYuMTQ2NDggNS4xODI2MiA1Ljc3MTQ4QzUuMzQ5MjggNS4zOTY0OCA1LjU2ODAzIDUuMDYzMTUgNS44Mzg4NyA0Ljc3MTQ4QzYuMTMwNTMgNC40Nzk4MiA2LjQ2Mzg3IDQuMjUwNjUgNi44Mzg4NyA0LjA4Mzk4QzcuMjM0NyAzLjkxNzMyIDcuNjUxMzcgMy44MzM5OCA4LjA4ODg3IDMuODMzOThDOC41MjYzNyAzLjgzMzk4IDguOTMyNjIgMy45MTczMiA5LjMwNzYyIDQuMDgzOThDOS42ODI2MiA0LjI1MDY1IDEwLjAwNTUgNC40Nzk4MiAxMC4yNzY0IDQuNzcxNDhDMTAuNTY4IDUuMDYzMTUgMTAuNzk3MiA1LjM5NjQ4IDEwLjk2MzkgNS43NzE0OEMxMS4xMzA1IDYuMTQ2NDggMTEuMjEzOSA2LjU1MjczIDExLjIxMzkgNi45OTAyM1pNOS42NTEzNyA2Ljk5MDIzQzkuNjUxMzcgNi41NTI3MyA5LjQ5NTEyIDYuMTg4MTUgOS4xODI2MiA1Ljg5NjQ4QzguODcwMTIgNS41ODM5OCA4LjUwNTUzIDUuNDI3NzMgOC4wODg4NyA1LjQyNzczQzcuNjUxMzcgNS40Mjc3MyA3LjI3NjM3IDUuNTgzOTggNi45NjM4NyA1Ljg5NjQ4QzYuNjUxMzcgNi4xODgxNSA2LjQ5NTEyIDYuNTUyNzMgNi40OTUxMiA2Ljk5MDIzQzYuNDk1MTIgNy40Mjc3MyA2LjY1MTM3IDcuODAyNzMgNi45NjM4NyA4LjExNTIzQzcuMjc2MzcgOC40MDY5IDcuNjUxMzcgOC41NTI3MyA4LjA4ODg3IDguNTUyNzNDOC41MDU1MyA4LjU1MjczIDguODcwMTIgOC40MDY5IDkuMTgyNjIgOC4xMTUyM0M5LjQ5NTEyIDcuODAyNzMgOS42NTEzNyA3LjQyNzczIDkuNjUxMzcgNi45OTAyM1pNNC40NjM4NyAxMy43MDlDNC45NjM4NyAxNC4wNjMyIDUuNTE1OTUgMTQuMzQ0NCA2LjEyMDEyIDE0LjU1MjdDNi43NDUxMiAxNC43NjExIDcuNDAxMzcgMTQuODY1MiA4LjA4ODg3IDE0Ljg2NTJDOC43NTU1MyAxNC44NjUyIDkuMzkwOTUgMTQuNzYxMSA5Ljk5NTEyIDE0LjU1MjdDMTAuNjIwMSAxNC4zNDQ0IDExLjE4MjYgMTQuMDYzMiAxMS42ODI2IDEzLjcwOUMxMS40NzQzIDEzLjMzNCAxMS4xODI2IDEzLjA0MjMgMTAuODA3NiAxMi44MzRDMTAuNDUzNSAxMi42MDQ4IDEwLjA2OCAxMi40OTAyIDkuNjUxMzcgMTIuNDkwMkg2LjQ5NTEyQzYuMDc4NDUgMTIuNDkwMiA1LjY4MjYyIDEyLjYwNDggNS4zMDc2MiAxMi44MzRDNC45NTM0NSAxMy4wNDIzIDQuNjcyMiAxMy4zMzQgNC40NjM4NyAxMy43MDlaIi8+JiN4YTs8ZGVmcz4mI3hhOzxsaW5lYXJHcmFkaWVudCBncmFkaWVudFVuaXRzPSJ1c2VyU3BhY2VPblVzZSIgeTI9IjE2LjQyNzciIHgyPSI4LjA3MzI0IiB5MT0iMC43MDg5ODQiIHgxPSI4LjA3MzI0IiBpZD0icGFpbnQwX2xpbmVhcl8yXzI4Nzk4Ij4mI3hhOzxzdG9wIHN0b3AtY29sb3I9IiM1QjczOEIiLz4mI3hhOzxzdG9wIHN0b3AtY29sb3I9IiMyMjM1NDgiIG9mZnNldD0iMSIvPiYjeGE7PC9saW5lYXJHcmFkaWVudD4mI3hhOzwvZGVmcz4mI3hhOzwvc3ZnPg==;strokeWidth=1.5;" parent="-Aj5rOMPWS9pz5DeyN8X-1" vertex="1">
          <mxGeometry x="-2281.5" y="-2067.1099999999997" width="28" height="28" as="geometry" />
        </mxCell>
        <mxCell id="-Aj5rOMPWS9pz5DeyN8X-34" value="" style="rounded=1;whiteSpace=wrap;html=1;strokeColor=#0070F2;strokeWidth=1.5;arcSize=16;fillColor=#FFFFFF;perimeterSpacing=0;absoluteArcSize=1;" parent="-Aj5rOMPWS9pz5DeyN8X-1" vertex="1">
          <mxGeometry x="-2180" y="-1849" width="390" height="102" as="geometry" />
        </mxCell>
        <mxCell id="-Aj5rOMPWS9pz5DeyN8X-35" value="&lt;font face=&quot;arial&quot; style=&quot;font-size: 16px;&quot;&gt;&lt;b style=&quot;font-size: 16px;&quot;&gt;SAP Cloud &lt;br&gt;Identity &lt;br&gt;Services&lt;/b&gt;&lt;/font&gt;" style="text;html=1;align=left;verticalAlign=middle;resizable=0;points=[];autosize=1;strokeColor=none;fillColor=none;fontSize=12;fontColor=#1d2d3e;fontFamily=Helvetica;" parent="-Aj5rOMPWS9pz5DeyN8X-1" vertex="1">
          <mxGeometry x="-2165.5" y="-1831" width="100" height="70" as="geometry" />
        </mxCell>
        <mxCell id="-Aj5rOMPWS9pz5DeyN8X-36" value="&lt;div style=&quot;&quot;&gt;&lt;font style=&quot;font-size: 10px;&quot;&gt;3rd party identity provider /&lt;br&gt;identity management&lt;/font&gt;&lt;br&gt;&lt;/div&gt;" style="text;html=1;align=left;verticalAlign=middle;resizable=0;points=[];autosize=1;strokeColor=none;fillColor=none;fontSize=12;fontColor=#556B82;fontFamily=Helvetica;" parent="-Aj5rOMPWS9pz5DeyN8X-1" vertex="1">
          <mxGeometry x="-2069" y="-1704" width="140" height="40" as="geometry" />
        </mxCell>
        <mxCell id="-Aj5rOMPWS9pz5DeyN8X-37" value="" style="shape=image;verticalLabelPosition=bottom;labelBackgroundColor=default;verticalAlign=top;aspect=fixed;imageAspect=0;image=data:image/svg+xml,PHN2ZyB4bWxucz0iaHR0cDovL3d3dy53My5vcmcvMjAwMC9zdmciIGZpbGw9Im5vbmUiIHZpZXdCb3g9IjAgMCAxNyAxNyIgaGVpZ2h0PSIxNyIgd2lkdGg9IjE3Ij4mI3hhOzxwYXRoIGZpbGw9InVybCgjcGFpbnQwX2xpbmVhcl83NzVfOCkiIGQ9Ik0xMy42NzU2IDguNjM3NDhDMTQuNjQ2OSA5LjE3MTcxIDE1LjQ2NDcgOS45NDY0NiAxNi4wNTA2IDEwLjg4NzVDMTYuNjU0NiAxMS44NDU1IDE2Ljk1NjYgMTIuOTI4NSAxNi45NTY2IDE0LjEzNzVWMTUuOTE4NUMxNi45NTY2IDE2LjUwMTUgMTYuNjU0NiAxNi43OTM1IDE2LjA1MDYgMTYuNzkzNUg1LjQyNTY0QzUuMTU0NjQgMTYuNzkzNSA0LjkzNTY0IDE2LjcxMDUgNC43Njg2NCAxNi41NDM1QzQuNjAyNjQgMTYuMzk3NSA0LjUxODY0IDE2LjE4OTUgNC41MTg2NCAxNS45MTg1VjE1LjAxMjVIMS44NjI2NEMxLjI3OTY0IDE1LjAxMjUgMC45ODc2NCAxNC43MjA1IDAuOTg3NjQgMTQuMTM3NVYxMi4zNTY1QzAuOTg3NjQgMTEuNDgwNSAxLjIyNzY0IDEwLjY4OTUgMS43MDY2NCA5Ljk4MDQ4QzIuMTY0MzUgOS4yOTEwOSAyLjgwMjA3IDguNzQwMTcgMy41NTA2NCA4LjM4NzQ4QzMuMjg2MjIgOC4wODYyMyAzLjA4NDMxIDcuNzM1NDMgMi45NTY2NCA3LjM1NTQ4QzIuODMzNCA2Ljk3MTgxIDIuNzY5OTkgNi41NzE0NSAyLjc2ODY0IDYuMTY4NDhDMi43Njg2NCA1LjY2ODQ4IDIuODYyNjQgNS4yMTA0OCAzLjA1MDY0IDQuNzkzNDhDMy4yMzc2NCA0LjM1NTQ4IDMuNDg3NjQgMy45ODA0OCAzLjgwMDY0IDMuNjY4NDhDNC4xMjQ3OCAzLjM0MTYxIDQuNTA2MDggMy4wNzY5IDQuOTI1NjQgMi44ODc0OEM1LjM1OTkyIDIuNzAwNzMgNS44Mjc5MSAyLjYwNTA5IDYuMzAwNjQgMi42MDY0OEM2LjQ0NjY0IDIuNjA2NDggNi41ODE2NCAyLjYxNjQ4IDYuNzA2NjQgMi42MzY0OEM2LjgzMTY0IDIuNjM2NDggNi45NjY2NCAyLjY1ODQ4IDcuMTEyNjQgMi42OTk0OEM3LjUwMjE5IDIuMTIxOSA4LjAyODQ3IDEuNjQ5NTYgOC42NDQ2NCAxLjMyNDQ4QzkuMjkxNTggMC45OTA5MiAxMC4wMDk4IDAuODE5MzQzIDEwLjczNzYgMC44MjQ0NzZDMTEuMzYyNiAwLjgyNDQ3NiAxMS45NDY2IDAuOTM5NDc2IDEyLjQ4NzYgMS4xNjg0OEMxMy4wMjk2IDEuMzk4NDggMTMuNDk3NiAxLjcyMDQ4IDEzLjg5MzYgMi4xMzc0OEMxNC4yODk2IDIuNTMzNDggMTQuNjAyNiAzLjAwMTQ4IDE0LjgzMTYgMy41NDM0OEMxNS4wNjE2IDQuMDYzNDggMTUuMTc1NiA0LjYzNzQ4IDE1LjE3NTYgNS4yNjI0OEMxNS4xNzc3IDUuOTE5NDggMTUuMDM5MiA2LjU2OTMzIDE0Ljc2OTYgNy4xNjg0OEMxNC41MjkgNy43MzkzMiAxNC4xNTM2IDguMjQzMzYgMTMuNjc1NiA4LjYzNzQ4Wk0xMC43MzY2IDIuNjA1NDhDOS45ODY2NCAyLjYwNTQ4IDkuMzUxNjQgMi44NjU0OCA4LjgzMDY0IDMuMzg3NDhDOC4zMzA2NCAzLjg4NzQ4IDguMDgwNjQgNC41MTI0OCA4LjA4MDY0IDUuMjYyNDhDOC4wODA2NCA2LjAxMjQ4IDguMzMwNjQgNi42NDc0OCA4LjgzMDY0IDcuMTY4NDhDOS4zNTA2NCA3LjY2ODQ4IDkuOTg2NjQgNy45MTg0OCAxMC43MzY2IDcuOTE4NDhDMTEuNDg2NiA3LjkxODQ4IDEyLjExMTYgNy42Njg0OCAxMi42MTE2IDcuMTY4NDhDMTMuMTMyNiA2LjY0ODQ4IDEzLjM5MjYgNi4wMTI0OCAxMy4zOTI2IDUuMjYyNDhDMTMuMzkyNiA0LjUxMjQ4IDEzLjEzMjYgMy44ODc0OCAxMi42MTI2IDMuMzg3NDhDMTIuMTEyNiAyLjg2NjQ4IDExLjQ4NjYgMi42MDU0OCAxMC43MzY2IDIuNjA1NDhaTTYuMjA2NjQgNC4zODg0OEM1LjcyNjY0IDQuMzg4NDggNS4zMTA2NCA0LjU2NTQ4IDQuOTU2NjQgNC45MTk0OEM0LjYyMzY0IDUuMjUyNDggNC40NTY2NCA1LjY2OTQ4IDQuNDU2NjQgNi4xNjk0OEM0LjQ1NjY0IDYuNjQ5NDggNC42MjM2NCA3LjA2NTQ4IDQuOTU2NjQgNy40MTk0OEM1LjMxMDY0IDcuNzUyNDggNS43MjY2NCA3LjkxOTQ4IDYuMjA2NjQgNy45MTk0OEg3LjIwNjY0QzYuOTI3MDggNy41NDg5OCA2LjcwNTg1IDcuMTM3ODkgNi41NTA2NCA2LjcwMDQ4QzYuMzg3MDYgNi4yMzg5NSA2LjMwMjU0IDUuNzUzMTMgNi4zMDA2NCA1LjI2MzQ4VjQuODIzNDhDNi4zMTczMiA0LjY3NTEzIDYuMzQ4NDcgNC41Mjg3NiA2LjM5MzY0IDQuMzg2NDhINi4yMDY2NFY0LjM4ODQ4Wk0yLjc2ODY0IDEzLjI2MzVINC42MTI2NEM0LjgwMDY0IDExLjgyNTUgNS4zOTM2NCAxMC42Mzg1IDYuMzkzNjQgOS43MDA0N0g1LjQyNjY0QzQuNjc2NjQgOS43MDA0NyA0LjA0MDY0IDkuOTYwNDcgMy41MTk2NCAxMC40ODE1QzMuMDE5NjQgMTAuOTgxNSAyLjc2OTY0IDExLjYwNzUgMi43Njk2NCAxMi4zNTc1TDIuNzY4NjQgMTMuMjYzNVpNMTUuMTc1NiAxNC4xMzg1QzE1LjE4MjYgMTMuNTQ3NyAxNS4wNjU0IDEyLjk2MjEgMTQuODMxNiAxMi40MTk1QzE0LjYxMzMgMTEuODk0MyAxNC4yOTQ3IDExLjQxNjcgMTMuODkzNiAxMS4wMTM1QzEzLjQ5NzQgMTAuNTk2MyAxMy4wMTg1IDEwLjI2NjMgMTIuNDg3NiAxMC4wNDQ1QzExLjkzMzUgOS44MTI3MyAxMS4zMzgyIDkuNjk1NzEgMTAuNzM3NiA5LjcwMDQ3QzEwLjExMjYgOS43MDA0NyA5LjUyOTY0IDkuODE1NDggOC45ODc2NCAxMC4wNDQ1QzguNDY3NjQgMTAuMjc0NSA3Ljk5NzY0IDEwLjU5NjUgNy41ODE2NCAxMS4wMTM1QzcuMTgwNTggMTEuNDE2NyA2Ljg2MTk3IDExLjg5NDMgNi42NDM2NCAxMi40MTk1QzYuNDEwMjggMTIuOTYyMiA2LjI5MzQzIDEzLjU0NzggNi4zMDA2NCAxNC4xMzg1VjE1LjAxMzVIMTUuMTc1NlYxNC4xMzg1WiIvPiYjeGE7PGRlZnM+JiN4YTs8bGluZWFyR3JhZGllbnQgZ3JhZGllbnRVbml0cz0idXNlclNwYWNlT25Vc2UiIHkyPSIxNi43OTM1IiB4Mj0iOC45NzIxNCIgeTE9IjAuODI0MzY0IiB4MT0iOC45NzIxNCIgaWQ9InBhaW50MF9saW5lYXJfNzc1XzgiPiYjeGE7PHN0b3Agc3RvcC1jb2xvcj0iIzVCNzM4QiIvPiYjeGE7PHN0b3Agc3RvcC1jb2xvcj0iIzIyMzU0OCIgb2Zmc2V0PSIxIi8+JiN4YTs8L2xpbmVhckdyYWRpZW50PiYjeGE7PC9kZWZzPiYjeGE7PC9zdmc+;" parent="-Aj5rOMPWS9pz5DeyN8X-1" vertex="1">
          <mxGeometry x="-2104" y="-1700" width="28" height="28" as="geometry" />
        </mxCell>
        <mxCell id="-Aj5rOMPWS9pz5DeyN8X-38" value="" style="endArrow=blockThin;html=1;strokeColor=#475E75;bendable=1;rounded=0;endFill=1;endSize=4;strokeWidth=1.5;startSize=4;exitX=0.973;exitY=0.564;exitDx=0;exitDy=0;exitPerimeter=0;" parent="-Aj5rOMPWS9pz5DeyN8X-1" source="-Aj5rOMPWS9pz5DeyN8X-22" edge="1">
          <mxGeometry width="50" height="50" relative="1" as="geometry">
            <mxPoint x="-2246" y="-1962" as="sourcePoint" />
            <mxPoint x="-2165" y="-1962" as="targetPoint" />
          </mxGeometry>
        </mxCell>
        <mxCell id="-Aj5rOMPWS9pz5DeyN8X-39" style="edgeStyle=orthogonalEdgeStyle;rounded=0;orthogonalLoop=1;jettySize=auto;html=1;exitX=0.5;exitY=1;exitDx=0;exitDy=0;" parent="-Aj5rOMPWS9pz5DeyN8X-1" edge="1">
          <mxGeometry relative="1" as="geometry">
            <mxPoint x="-1299.5" y="-2137" as="sourcePoint" />
            <mxPoint x="-1299.5" y="-2137" as="targetPoint" />
          </mxGeometry>
        </mxCell>
        <mxCell id="-Aj5rOMPWS9pz5DeyN8X-41" value="&lt;font size=&quot;1&quot;&gt;&lt;b style=&quot;&quot;&gt;SCIM&lt;/b&gt;&lt;/font&gt;" style="rounded=1;whiteSpace=wrap;html=1;arcSize=50;strokeColor=#470BED;fillColor=#f1ecff;fontColor=#470bed;strokeWidth=1.5;" parent="-Aj5rOMPWS9pz5DeyN8X-1" vertex="1">
          <mxGeometry x="-2030.01" y="-1731" width="38.01" height="16" as="geometry" />
        </mxCell>
        <mxCell id="-Aj5rOMPWS9pz5DeyN8X-52" value="" style="rounded=0;whiteSpace=wrap;html=1;strokeColor=#eaecee;strokeWidth=1.5;arcSize=16;fillColor=#FFFFFF;perimeterSpacing=0;imageHeight=24;absoluteArcSize=1;points=[];connectable=0;container=0;" parent="-Aj5rOMPWS9pz5DeyN8X-1" vertex="1">
          <mxGeometry x="-1169" y="-1787" width="323" height="130.75" as="geometry" />
        </mxCell>
        <mxCell id="-Aj5rOMPWS9pz5DeyN8X-53" value="&lt;font size=&quot;1&quot; style=&quot;&quot; face=&quot;arial&quot; color=&quot;#1d2d3e&quot;&gt;&lt;b style=&quot;font-size: 12px;&quot;&gt;Legend&lt;/b&gt;&lt;/font&gt;" style="text;html=1;align=left;verticalAlign=top;resizable=0;points=[];autosize=1;strokeColor=none;fillColor=none;fontSize=12;fontColor=default;fontFamily=Helvetica;" parent="-Aj5rOMPWS9pz5DeyN8X-1" vertex="1">
          <mxGeometry x="-1148.0017948717948" y="-1778" width="61" height="26" as="geometry" />
        </mxCell>
        <mxCell id="-Aj5rOMPWS9pz5DeyN8X-54" value="&lt;div style=&quot;font-size: 10px; line-height: 100%;&quot;&gt;&lt;span style=&quot;font-family: arial; font-size: 10px; background-color: initial;&quot;&gt;&lt;font style=&quot;font-size: 10px;&quot;&gt;Access&lt;/font&gt;&lt;/span&gt;&lt;/div&gt;" style="text;html=1;align=left;verticalAlign=middle;resizable=0;points=[];autosize=1;strokeColor=none;fillColor=none;fontSize=10;fontColor=#1D2D3E;fontFamily=Helvetica;labelPosition=center;verticalLabelPosition=middle;" parent="-Aj5rOMPWS9pz5DeyN8X-1" vertex="1">
          <mxGeometry x="-1129.13" y="-1708" width="50" height="23" as="geometry" />
        </mxCell>
        <mxCell id="-Aj5rOMPWS9pz5DeyN8X-55" value="" style="ellipse;whiteSpace=wrap;html=1;aspect=fixed;strokeColor=none;fillColor=#475E75;fontColor=#475E75;" parent="-Aj5rOMPWS9pz5DeyN8X-1" vertex="1">
          <mxGeometry x="-1147.63" y="-1703.5" width="16" height="16" as="geometry" />
        </mxCell>
        <mxCell id="-Aj5rOMPWS9pz5DeyN8X-56" value="" style="ellipse;whiteSpace=wrap;html=1;aspect=fixed;strokeColor=none;fillColor=#188918;" parent="-Aj5rOMPWS9pz5DeyN8X-1" vertex="1">
          <mxGeometry x="-1148" y="-1726.5" width="16" height="16" as="geometry" />
        </mxCell>
        <mxCell id="-Aj5rOMPWS9pz5DeyN8X-57" value="&lt;div style=&quot;font-size: 10px; line-height: 100%;&quot;&gt;&lt;span style=&quot;font-family: arial; font-size: 10px; background-color: initial;&quot;&gt;&lt;font style=&quot;font-size: 10px;&quot;&gt;Authentication&lt;/font&gt;&lt;/span&gt;&lt;/div&gt;" style="text;html=1;align=left;verticalAlign=middle;resizable=0;points=[];autosize=1;strokeColor=none;fillColor=none;fontSize=10;fontColor=#1D2D3E;fontFamily=Helvetica;labelPosition=center;verticalLabelPosition=middle;" parent="-Aj5rOMPWS9pz5DeyN8X-1" vertex="1">
          <mxGeometry x="-1129.5" y="-1731" width="81" height="23" as="geometry" />
        </mxCell>
        <mxCell id="-Aj5rOMPWS9pz5DeyN8X-58" value="" style="ellipse;whiteSpace=wrap;html=1;aspect=fixed;strokeColor=none;fillColor=#7F00FF;fontColor=#475E75;" parent="-Aj5rOMPWS9pz5DeyN8X-1" vertex="1">
          <mxGeometry x="-1147.63" y="-1749.5" width="16" height="16" as="geometry" />
        </mxCell>
        <mxCell id="-Aj5rOMPWS9pz5DeyN8X-59" value="&lt;div style=&quot;font-size: 10px; line-height: 100%;&quot;&gt;&lt;span style=&quot;font-family: arial; font-size: 10px; background-color: initial;&quot;&gt;&lt;font style=&quot;font-size: 10px;&quot;&gt;Provisioning&lt;/font&gt;&lt;/span&gt;&lt;/div&gt;" style="text;html=1;align=left;verticalAlign=middle;resizable=0;points=[];autosize=1;strokeColor=none;fillColor=none;fontSize=10;fontColor=#1D2D3E;fontFamily=Helvetica;labelPosition=center;verticalLabelPosition=middle;" parent="-Aj5rOMPWS9pz5DeyN8X-1" vertex="1">
          <mxGeometry x="-1129.3000000000002" y="-1754" width="72" height="23" as="geometry" />
        </mxCell>
        <mxCell id="-Aj5rOMPWS9pz5DeyN8X-60" value="&lt;div style=&quot;font-size: 10px; line-height: 100%;&quot;&gt;&lt;span style=&quot;font-family: arial; font-size: 10px; background-color: initial;&quot;&gt;&lt;font style=&quot;font-size: 10px;&quot;&gt;Deployment&lt;/font&gt;&lt;/span&gt;&lt;/div&gt;" style="text;html=1;align=left;verticalAlign=middle;resizable=0;points=[];autosize=1;strokeColor=none;fillColor=none;fontSize=10;fontColor=#1D2D3E;fontFamily=Helvetica;labelPosition=center;verticalLabelPosition=middle;" parent="-Aj5rOMPWS9pz5DeyN8X-1" vertex="1">
          <mxGeometry x="-1030.3300000000002" y="-1756.5" width="71" height="23" as="geometry" />
        </mxCell>
        <mxCell id="-Aj5rOMPWS9pz5DeyN8X-61" value="" style="ellipse;whiteSpace=wrap;html=1;aspect=fixed;strokeColor=none;fillColor=#0070F2;fontColor=#0070F2;" parent="-Aj5rOMPWS9pz5DeyN8X-1" vertex="1">
          <mxGeometry x="-1051.66" y="-1752" width="16" height="16" as="geometry" />
        </mxCell>
        <mxCell id="-Aj5rOMPWS9pz5DeyN8X-62" value="" style="shape=image;verticalLabelPosition=bottom;verticalAlign=top;imageAspect=0;aspect=fixed;image=data:image/svg+xml,PHN2ZyB4bWxucz0iaHR0cDovL3d3dy53My5vcmcvMjAwMC9zdmciIGZpbGw9Im5vbmUiIHZpZXdCb3g9IjAgMCA0OSA0OSIgaGVpZ2h0PSI0OSIgd2lkdGg9IjQ5Ij4mI3hhOzxjaXJjbGUgc3Ryb2tlLXdpZHRoPSIwLjg1NzE0MyIgc3Ryb2tlPSIjRDVEQUREIiBmaWxsPSJ1cmwoI3BhaW50MF9saW5lYXJfMjYyMl8yMDQ3NSkiIHI9IjIzLjU3MTQiIGN5PSIyNC4wMzQ5IiBjeD0iMjQuNSIvPiYjeGE7PHBhdGggZmlsbD0idXJsKCNwYWludDFfcmFkaWFsXzI2MjJfMjA0NzUpIiBkPSJNMjQuMzkzMSAxMi4yMzcxQzIwLjExMDcgMTIuMjM3MSAxNy4wNjgxIDE1LjcyMzEgMTYuNTYxMSAxOS4zNjI1QzE1LjE4MzYgMTkuNDQ0NCAxMy45NjcyIDE5Ljk2MjEgMTMuMDIyNSAyMC44MzE3QzExLjc0NDUgMjIuMDA4MSAxMS4wODQ0IDIzLjcxNTYgMTEuMDg0NCAyNS41MTYzQzExLjA4NDQgMjcuMTg5NyAxMS41OTIgMjguNzcxNSAxMi43MzE2IDI5Ljk0MDlDMTMuNTg2MSAzMC44MTc4IDE0LjcwNzcgMzEuMzcyNCAxNi4wMTcgMzEuNTk4NEMxNi4xMzc2IDMxLjM1MzUgMTYuMjczNSAzMS4xMTY4IDE2LjQyNTIgMzAuODg5MkwxNi40NDEgMzAuODY1NUwxNi40NTQ4IDMwLjg0NjFDMTYuNzA2OSAzMC40OTAxIDE2Ljk5NDggMzAuMTY2IDE3LjMxNjkgMjkuODc2MUMxNy4xODMxIDI5LjQzMTcgMTcuMTE4IDI4Ljk2NDUgMTcuMTE4IDI4LjQ4MzVDMTcuMTE4IDI3Ljg1NDkgMTcuMjM4NiAyNy4yNDEzIDE3LjQ4NDkgMjYuNjU5MkMxNy43MiAyNi4xMDMzIDE4LjA1MTMgMjUuNjAwMSAxOC40ODI0IDI1LjE2OTFDMTguOTE4IDI0LjczMzQgMTkuNDI1IDI0LjM5MTYgMTkuOTkyNiAyNC4xNTE1QzIwLjU3NDcgMjMuOTA1MiAyMS4xODgyIDIzLjc4NDYgMjEuODE2OCAyMy43ODQ2QzIyLjA3NTkgMjMuNzg0NiAyMi4zMzI0IDIzLjgwNTEgMjIuNTg1MyAyMy44NDY0QzIyLjkwNjUgMjMuNjE3OSAyMy4yNTIyIDIzLjQyNTEgMjMuNjIwNCAyMy4yNjkzQzI0LjI4NTEgMjIuOTg4MSAyNC45ODYzIDIyLjg0OTcgMjUuNzA4OSAyMi44NDk3QzI2LjQzMTYgMjIuODQ5NyAyNy4xMzI3IDIyLjk4ODEgMjcuNzk3NSAyMy4yNjkzQzI4LjQ0MzYgMjMuNTQyNyAyOS4wMTc2IDIzLjkzMjYgMjkuNTA0MyAyNC40MzY1QzMwLjAwODIgMjQuOTIzMiAzMC4zOTgxIDI1LjQ5NzIgMzAuNjcxNSAyNi4xNDMzQzMwLjk1MjcgMjYuODA4MSAzMS4wOTExIDI3LjUwOTMgMzEuMDkxMSAyOC4yMzE5QzMxLjA5MTEgMjguOTI1MiAzMC45NjM3IDI5LjU5ODggMzAuNzA1IDMwLjIzOTVDMzEuMTk2OSAzMC42Mjg4IDMxLjYzNDYgMzEuMDg3NyAzMi4wMTUyIDMxLjYxMjdDMzUuMjc5MiAzMS4wNDI2IDM3Ljk5OTkgMjguMzY4IDM3Ljk5OTkgMjQuMzU5MUMzNy45OTk5IDIwLjM3NTEgMzUuMTUyNiAxNy4zMTM1IDMxLjcyNDcgMTYuOTg5N0MzMC4zNTA3IDE0LjE0ODMgMjcuOCAxMi4yMzcxIDI0LjM5MzEgMTIuMjM3MVoiIGNsaXAtcnVsZT0iZXZlbm9kZCIgZmlsbC1ydWxlPSJldmVub2RkIi8+JiN4YTs8cGF0aCBmaWxsPSJ1cmwoI3BhaW50Ml9yYWRpYWxfMjYyMl8yMDQ3NSkiIGQ9Ik0yOC4zMzY4IDMwLjgwNzhDMjkuMzA4MiAzMS4xODk0IDMwLjA5NzQgMzEuODEzOCAzMC43MDQ1IDMyLjY4MTFDMzEuMzExNiAzMy41NDg0IDMxLjYxNTIgMzQuNTI4NSAzMS42MTUyIDM1LjYyMTNWMzcuMTA0NEMzMS42MTUyIDM3LjMxMjUgMzEuNTM3MSAzNy40ODYgMzEuMzgxIDM3LjYyNDdDMzEuMjQyMiAzNy43NjM1IDMxLjA3NzQgMzcuODMyOSAzMC44ODY2IDM3LjgzMjlIMjkuNDAzNkMyOS4xOTU0IDM3LjgzMjkgMjkuMDEzMyAzNy43NjM1IDI4Ljg1NzIgMzcuNjI0N0MyOC43MTg0IDM3LjQ4NiAyOC42NDkgMzcuMzEyNSAyOC42NDkgMzcuMTA0NEMyOC42NDkgMzYuODk2MiAyOC43MTg0IDM2LjcyMjcgMjguODU3MiAzNi41ODRDMjkuMDEzMyAzNi40Mjc5IDI5LjE5NTQgMzYuMzQ5OCAyOS40MDM2IDM2LjM0OThIMzAuMTMyMVYzNS42MjEzQzMwLjEzMjEgMzUuMTE4MiAzMC4wMzY3IDM0LjY0MTIgMjkuODQ1OSAzNC4xOTAyQzI5LjY1NTEgMzMuNzM5MiAyOS4zODYyIDMzLjM0OSAyOS4wMzkzIDMzLjAxOTRDMjguNzA5NyAzMi42NzI1IDI4LjMxOTUgMzIuNDAzNiAyNy44Njg1IDMyLjIxMjhDMjcuNDM0OCAzMi4wMjIgMjYuOTU3OCAzMS45MjY2IDI2LjQzNzUgMzEuOTI2NkgyNC45ODA0QzI0LjQ2IDMxLjkyNjYgMjMuOTc0NCAzMi4wMjIgMjMuNTIzNCAzMi4yMTI4QzIzLjA4OTcgMzIuNDAzNiAyMi42OTk0IDMyLjY3MjUgMjIuMzUyNSAzMy4wMTk0QzIyLjAyMyAzMy4zNDkgMjEuNzYyOCAzMy43MzkyIDIxLjU3MiAzNC4xOTAyQzIxLjM4MTIgMzQuNjQxMiAyMS4yODU4IDM1LjExODIgMjEuMjg1OCAzNS42MjEzVjM2LjM0OThIMjIuMDE0M0MyMi4yMjI0IDM2LjM0OTggMjIuMzk1OSAzNi40Mjc5IDIyLjUzNDcgMzYuNTg0QzIyLjY3MzQgMzYuNzIyNyAyMi43NDI4IDM2Ljg5NjIgMjIuNzQyOCAzNy4xMDQ0QzIyLjc0MjggMzcuMzEyNSAyMi42NzM0IDM3LjQ4NiAyMi41MzQ3IDM3LjYyNDdDMjIuMzk1OSAzNy43NjM1IDIyLjIyMjQgMzcuODMyOSAyMi4wMTQzIDM3LjgzMjlIMjAuNTMxMkMyMC4zNDA0IDM3LjgzMjkgMjAuMTY3IDM3Ljc2MzUgMjAuMDEwOSAzNy42MjQ3QzE5Ljg3MjEgMzcuNDg2IDE5LjgwMjcgMzcuMzEyNSAxOS44MDI3IDM3LjEwNDRMMTkuODAyNyAzNi4wNTAySDE3LjgyMzRDMTcuNjMyOCAzNi4wNTAyIDE3LjQ2MTYgMzUuOTc5NSAxNy4zMTQ2IDM1Ljg0ODhMMTcuMzA3NSAzNS44NDI1QzE3LjE2ODEgMzUuNzAzMSAxNy4wOTk4IDM1LjUyNzEgMTcuMDk5OCAzNS4zMjY1VjM0LjE4MjdDMTcuMDk5OCAzMy43MzkyIDE3LjE2MjEgMzMuMzIxIDE3LjI4ODEgMzIuOTI5MUwxNy4yODkyIDMyLjkyNTlDMTcuNDI3MiAzMi41MjU2IDE3LjYwNzEgMzIuMTU4NiAxNy44MjkzIDMxLjgyNTNMMTcuODMxOCAzMS44MjE1QzE4LjA2NzggMzEuNDg4MyAxOC4zNDU4IDMxLjE5NjQgMTguNjY1MiAzMC45NDYxQzE4LjkyNDIgMzAuNzMyNCAxOS4yMDU5IDMwLjU1NSAxOS41MTAxIDMwLjQxNEMxOS4wMzk4IDI5Ljg4ODUgMTguODA1NSAyOS4yNDE5IDE4LjgwNTUgMjguNDgzNUMxOC44MDU1IDI4LjA3NDUgMTguODgzMiAyNy42ODUxIDE5LjAzOSAyNy4zMTY3QzE5LjE5MzkgMjYuOTUwNyAxOS40MDYgMjYuNjMyIDE5LjY3NTYgMjYuMzYyM0MxOS45NTc5IDI2LjA4MDEgMjAuMjgzIDI1Ljg2MDkgMjAuNjUwMSAyNS43MDU2QzIxLjAxODQgMjUuNTQ5OCAyMS40MDc4IDI1LjQ3MjEgMjEuODE2OCAyNS40NzIxQzIyLjIyNTkgMjUuNDcyMSAyMi42MTUyIDI1LjU0OTggMjIuOTgzNiAyNS43MDU2TDIzLjAwMDggMjUuNzEzQzIzLjAyNzEgMjUuNjg0OSAyMy4wNTM4IDI1LjY1NzMgMjMuMDgxIDI1LjYzQzIzLjQyOCAyNS4yODMxIDIzLjgyNjkgMjUuMDE0MiAyNC4yNzc5IDI0LjgyMzRDMjQuNzI4OSAyNC42MzI2IDI1LjIwNTkgMjQuNTM3MiAyNS43MDg5IDI0LjUzNzJDMjYuMjEyIDI0LjUzNzIgMjYuNjg5IDI0LjYzMjYgMjcuMTQgMjQuODIzNEMyNy41OTA5IDI1LjAxNDIgMjcuOTgxMiAyNS4yODMxIDI4LjMxMDggMjUuNjNDMjguNjU3NyAyNS45NTk2IDI4LjkyNjYgMjYuMzQ5OSAyOS4xMTc0IDI2LjgwMDlDMjkuMzA4MiAyNy4yNTE5IDI5LjQwMzYgMjcuNzI4OSAyOS40MDM2IDI4LjIzMTlDMjkuNDAzNiAyOC43MzQ5IDI5LjMwODIgMjkuMjEyIDI5LjExNzQgMjkuNjYzQzI4LjkyNjYgMzAuMDk2NiAyOC42NjY0IDMwLjQ3ODIgMjguMzM2OCAzMC44MDc4Wk0yMC4wMzY5IDM0LjA2MDFDMTkuOTgyMiAzNC4yMzAxIDE5LjkzNzIgMzQuNDA0MyAxOS45MDE3IDM0LjU4MjdIMTguNTY3MlYzNC4xODI3QzE4LjU2NzIgMzMuODE1NyAxOC42MzY3IDMzLjQ2OTMgMTguNzc1MiAzMy4xNDJDMTguOTE0NiAzMi44MTI0IDE5LjEwMzkgMzIuNTI5IDE5LjM0MjYgMzIuMjkwM0MxOS41OTYyIDMyLjAzNjcgMTkuODgwMyAzMS44NDEyIDIwLjE5NTMgMzEuNzAyNEMyMC41MjE2IDMxLjU2NDUgMjAuODc0MyAzMS40OTQ5IDIxLjI1NDkgMzEuNDk0OUgyMS44NzA4QzIxLjgzMTUgMzEuNTI1NCAyMS43OTI2IDMxLjU1NjYgMjEuNzU0MSAzMS41ODg0QzIxLjM1NTEgMzEuOTAwNiAyMS4wMDgyIDMyLjI2NDggMjAuNzEzNCAzMi42ODExQzIwLjQzNTggMzMuMDk3NCAyMC4yMTAzIDMzLjU1NzEgMjAuMDM2OSAzNC4wNjAxWk0yNS43MDg5IDI2LjAyMDNDMjUuMTAxOCAyNi4wMjAzIDI0LjU4MTUgMjYuMjM3MSAyNC4xNDc4IDI2LjY3MDhDMjMuNzE0MiAyNy4xMDQ0IDIzLjQ5NzMgMjcuNjI0OCAyMy40OTczIDI4LjIzMTlDMjMuNDk3MyAyOC44MzkgMjMuNzE0MiAyOS4zNTk0IDI0LjE0NzggMjkuNzkzQzI0LjU4MTUgMzAuMjI2NyAyNS4xMDE4IDMwLjQ0MzUgMjUuNzA4OSAzMC40NDM1QzI2LjMxNiAzMC40NDM1IDI2LjgzNjQgMzAuMjI2NyAyNy4yNyAyOS43OTNDMjcuNzAzNyAyOS4zNTk0IDI3LjkyMDUgMjguODM5IDI3LjkyMDUgMjguMjMxOUMyNy45MjA1IDI3LjYyNDggMjcuNzAzNyAyNy4xMDQ0IDI3LjI3IDI2LjY3MDhDMjYuODM2NCAyNi4yMzcxIDI2LjMxNiAyNi4wMjAzIDI1LjcwODkgMjYuMDIwM1pNMjIuMDE0MyAyOC4yMzE5QzIyLjAxNDMgMjguODU5NiAyMi4xNDM2IDI5LjQyMTEgMjIuNDAyMyAyOS45MTYzQzIyLjIyMjMgMjkuOTkwNiAyMi4wMjc1IDMwLjAyNzQgMjEuODE2OCAzMC4wMjc0QzIxLjM5MiAzMC4wMjc0IDIxLjAzMTcgMjkuODc3NiAyMC43MjcyIDI5LjU3MzFDMjAuNDIyOCAyOS4yNjg3IDIwLjI3MjkgMjguOTA4MyAyMC4yNzI5IDI4LjQ4MzVDMjAuMjcyOSAyOC4wNTg3IDIwLjQyMjggMjcuNjk4MyAyMC43MjcyIDI3LjM5MzlDMjEuMDMxNyAyNy4wODk0IDIxLjM5MiAyNi45Mzk2IDIxLjgxNjggMjYuOTM5NkMyMS45NjA1IDI2LjkzOTYgMjIuMDk2OSAyNi45NTY3IDIyLjIyNjIgMjYuOTkxMkMyMi4wODQ5IDI3LjM4NTUgMjIuMDE0MyAyNy43OTkxIDIyLjAxNDMgMjguMjMxOVoiIGNsaXAtcnVsZT0iZXZlbm9kZCIgZmlsbC1ydWxlPSJldmVub2RkIi8+JiN4YTs8ZGVmcz4mI3hhOzxsaW5lYXJHcmFkaWVudCBncmFkaWVudFVuaXRzPSJ1c2VyU3BhY2VPblVzZSIgeTI9IjQ0LjI3OTIiIHgyPSI0MS41NjQ1IiB5MT0iNi44NDc3NSIgeDE9IjQuODUyODciIGlkPSJwYWludDBfbGluZWFyXzI2MjJfMjA0NzUiPiYjeGE7PHN0b3Agc3RvcC1jb2xvcj0id2hpdGUiLz4mI3hhOzxzdG9wIHN0b3AtY29sb3I9IiNFQUVDRUUiIG9mZnNldD0iMSIvPiYjeGE7PC9saW5lYXJHcmFkaWVudD4mI3hhOzxyYWRpYWxHcmFkaWVudCBncmFkaWVudFRyYW5zZm9ybT0idHJhbnNsYXRlKDE1LjI1ODMgMTUuOTk1NCkgcm90YXRlKDQzLjg3NzkpIHNjYWxlKDI1Ljg1MjQgNDguODExNykiIGdyYWRpZW50VW5pdHM9InVzZXJTcGFjZU9uVXNlIiByPSIxIiBjeT0iMCIgY3g9IjAiIGlkPSJwYWludDFfcmFkaWFsXzI2MjJfMjA0NzUiPiYjeGE7PHN0b3Agc3RvcC1jb2xvcj0iIzAxOTVGRiIvPiYjeGE7PHN0b3Agc3RvcC1jb2xvcj0iIzExNDdFOSIgb2Zmc2V0PSIxIi8+JiN4YTs8L3JhZGlhbEdyYWRpZW50PiYjeGE7PHJhZGlhbEdyYWRpZW50IGdyYWRpZW50VHJhbnNmb3JtPSJ0cmFuc2xhdGUoMTUuMjUyMiAxNi4wODc2KSByb3RhdGUoNDMuNTYwMikgc2NhbGUoMjUuODcyNyAyMy41NDcxKSIgZ3JhZGllbnRVbml0cz0idXNlclNwYWNlT25Vc2UiIHI9IjEiIGN5PSIwIiBjeD0iMCIgaWQ9InBhaW50Ml9yYWRpYWxfMjYyMl8yMDQ3NSI+JiN4YTs8c3RvcCBzdG9wLWNvbG9yPSIjMTM0OEZGIi8+JiN4YTs8c3RvcCBzdG9wLWNvbG9yPSIjMDYyMzhEIiBvZmZzZXQ9IjEiLz4mI3hhOzwvcmFkaWFsR3JhZGllbnQ+JiN4YTs8L2RlZnM+JiN4YTs8L3N2Zz4=;points=[[0,0,0,0,0],[0,0.25,0,0,0],[0,0.5,0,0,0],[0,0.75,0,0,0],[0.25,0,0,0,0],[0.5,0,0,0,0],[0.75,0,0,0,0],[1,0,0,0,0],[1,0.25,0,0,0],[1,0.5,0,0,0],[1,0.75,0,0,0]];" parent="-Aj5rOMPWS9pz5DeyN8X-1" vertex="1">
          <mxGeometry x="-1051.66" y="-1727.5" width="16" height="16" as="geometry" />
        </mxCell>
        <mxCell id="-Aj5rOMPWS9pz5DeyN8X-63" value="&lt;div style=&quot;font-size: 10px; line-height: 100%;&quot;&gt;&lt;span style=&quot;font-family: arial; font-size: 10px; background-color: initial;&quot;&gt;&lt;font style=&quot;font-size: 10px;&quot;&gt;BTP Service&lt;/font&gt;&lt;/span&gt;&lt;/div&gt;" style="text;html=1;align=left;verticalAlign=middle;resizable=0;points=[];autosize=1;strokeColor=none;fillColor=none;fontSize=10;fontColor=#1D2D3E;fontFamily=Helvetica;labelPosition=center;verticalLabelPosition=middle;" parent="-Aj5rOMPWS9pz5DeyN8X-1" vertex="1">
          <mxGeometry x="-1027.66" y="-1730" width="80" height="20" as="geometry" />
        </mxCell>
        <mxCell id="-Aj5rOMPWS9pz5DeyN8X-64" value="" style="endArrow=blockThin;html=1;strokeColor=#188918;bendable=1;rounded=0;endFill=1;endSize=4;strokeWidth=1.5;startSize=4;startArrow=blockThin;startFill=1;entryX=0.04;entryY=0.52;entryDx=0;entryDy=0;entryPerimeter=0;" parent="-Aj5rOMPWS9pz5DeyN8X-1" edge="1">
          <mxGeometry width="50" height="50" relative="1" as="geometry">
            <mxPoint x="-954" y="-1745.22" as="sourcePoint" />
            <mxPoint x="-932" y="-1745.22" as="targetPoint" />
            <Array as="points" />
          </mxGeometry>
        </mxCell>
        <mxCell id="-Aj5rOMPWS9pz5DeyN8X-65" value="&lt;div style=&quot;font-size: 10px; line-height: 100%;&quot;&gt;&lt;span style=&quot;font-family: arial; font-size: 10px; background-color: initial;&quot;&gt;&lt;font style=&quot;font-size: 10px;&quot;&gt;Mutual Trust&lt;/font&gt;&lt;/span&gt;&lt;/div&gt;" style="text;html=1;align=left;verticalAlign=middle;resizable=0;points=[];autosize=1;strokeColor=none;fillColor=none;fontSize=10;fontColor=#1D2D3E;fontFamily=Helvetica;labelPosition=center;verticalLabelPosition=middle;" parent="-Aj5rOMPWS9pz5DeyN8X-1" vertex="1">
          <mxGeometry x="-923" y="-1757.5" width="73" height="23" as="geometry" />
        </mxCell>
        <mxCell id="-Aj5rOMPWS9pz5DeyN8X-66" value="" style="endArrow=none;html=1;strokeColor=#188918;bendable=1;rounded=0;endFill=0;endSize=3;strokeWidth=1.5;dashed=1;" parent="-Aj5rOMPWS9pz5DeyN8X-1" edge="1">
          <mxGeometry width="50" height="50" relative="1" as="geometry">
            <mxPoint x="-931.75" y="-1720.53" as="sourcePoint" />
            <mxPoint x="-952.75" y="-1720.53" as="targetPoint" />
            <Array as="points" />
          </mxGeometry>
        </mxCell>
        <mxCell id="-Aj5rOMPWS9pz5DeyN8X-67" value="&lt;div style=&quot;font-size: 10px; line-height: 100%;&quot;&gt;&lt;span style=&quot;font-family: arial; font-size: 10px; background-color: initial;&quot;&gt;&lt;font style=&quot;font-size: 10px;&quot;&gt;Optional&lt;/font&gt;&lt;/span&gt;&lt;/div&gt;" style="text;html=1;align=left;verticalAlign=middle;resizable=0;points=[];autosize=1;strokeColor=none;fillColor=none;fontSize=10;fontColor=#1D2D3E;fontFamily=Helvetica;labelPosition=center;verticalLabelPosition=middle;" parent="-Aj5rOMPWS9pz5DeyN8X-1" vertex="1">
          <mxGeometry x="-923" y="-1733.5" width="55" height="23" as="geometry" />
        </mxCell>
        <mxCell id="-Aj5rOMPWS9pz5DeyN8X-68" value="&lt;font color=&quot;#1d2d3e&quot; face=&quot;arial&quot; style=&quot;font-size: 12px;&quot;&gt;Process Expert&lt;/font&gt;" style="text;html=1;align=center;verticalAlign=middle;resizable=0;points=[];autosize=1;strokeColor=none;fillColor=none;fontSize=12;fontColor=default;fontFamily=Helvetica;strokeWidth=1.5;" parent="-Aj5rOMPWS9pz5DeyN8X-1" vertex="1">
          <mxGeometry x="-2316.5" y="-2184.8900000000003" width="100" height="30" as="geometry" />
        </mxCell>
        <mxCell id="-Aj5rOMPWS9pz5DeyN8X-69" value="" style="shape=image;verticalLabelPosition=bottom;verticalAlign=top;imageAspect=0;aspect=fixed;image=data:image/svg+xml,PHN2ZyB4bWxucz0iaHR0cDovL3d3dy53My5vcmcvMjAwMC9zdmciIGZpbGw9Im5vbmUiIHZpZXdCb3g9IjAgMCAxNyAxNyIgaGVpZ2h0PSIxNyIgd2lkdGg9IjE3Ij4mI3hhOzxwYXRoIGZpbGw9InVybCgjcGFpbnQwX2xpbmVhcl8yXzI4Nzk3KSIgZD0iTTE1LjUyNjQgMTMuMDYyNUMxNS45NjM5IDEzLjA2MjUgMTYuMTgyNiAxMy4yODEyIDE2LjE4MjYgMTMuNzE4OEMxNi4xODI2IDE0LjE1NjIgMTUuOTYzOSAxNC4zNzUgMTUuNTI2NCAxNC4zNzVIMC44Mzg4NjdDMC42NTEzNjcgMTQuMzc1IDAuNDk1MTE3IDE0LjMyMjkgMC4zNzAxMTcgMTQuMjE4OEMwLjI0NTExNyAxNC4wOTM4IDAuMTgyNjE3IDEzLjkyNzEgMC4xODI2MTcgMTMuNzE4OEMwLjE4MjYxNyAxMy41MTA0IDAuMjQ1MTE3IDEzLjM1NDIgMC4zNzAxMTcgMTMuMjVDMC40OTUxMTcgMTMuMTI1IDAuNjUxMzY3IDEzLjA2MjUgMC44Mzg4NjcgMTMuMDYyNUgxLjY1MTM3QzEuNjUxMzcgMTMuMDIwOCAxLjY0MDk1IDEyLjk4OTYgMS42MjAxMiAxMi45Njg4VjEyLjkzNzVDMS41NTc2MiAxMi43NSAxLjUyNjM3IDEyLjU2MjUgMS41MjYzNyAxMi4zNzVWNS43MTg3NUMxLjUyNjM3IDUuMTU2MjUgMS43MTM4NyA0LjY4NzUgMi4wODg4NyA0LjMxMjVDMi40NjM4NyAzLjkxNjY3IDIuOTQzMDMgMy43MTg3NSAzLjUyNjM3IDMuNzE4NzVIMTIuODM4OUMxMy40MjIyIDMuNzE4NzUgMTMuOTAxNCAzLjkxNjY3IDE0LjI3NjQgNC4zMTI1QzE0LjY1MTQgNC42ODc1IDE0LjgzODkgNS4xNTYyNSAxNC44Mzg5IDUuNzE4NzVWMTIuMzc1QzE0LjgzODkgMTIuNjA0MiAxNC43OTcyIDEyLjgzMzMgMTQuNzEzOSAxMy4wNjI1SDE1LjUyNjRaTTIuODM4ODcgMTIuMzc1SDEzLjUyNjRWNS43MTg3NUMxMy41MjY0IDUuMjgxMjUgMTMuMjk3MiA1LjA2MjUgMTIuODM4OSA1LjA2MjVIMy41MjYzN0MzLjA2ODAzIDUuMDYyNSAyLjgzODg3IDUuMjgxMjUgMi44Mzg4NyA1LjcxODc1VjEyLjM3NVoiLz4mI3hhOzxkZWZzPiYjeGE7PGxpbmVhckdyYWRpZW50IGdyYWRpZW50VW5pdHM9InVzZXJTcGFjZU9uVXNlIiB5Mj0iMTQuMzc1IiB4Mj0iOC4xODI2MiIgeTE9IjMuNzE4NzUiIHgxPSI4LjE4MjYyIiBpZD0icGFpbnQwX2xpbmVhcl8yXzI4Nzk3Ij4mI3hhOzxzdG9wIHN0b3AtY29sb3I9IiM1QjczOEIiLz4mI3hhOzxzdG9wIHN0b3AtY29sb3I9IiMyMjM1NDgiIG9mZnNldD0iMSIvPiYjeGE7PC9saW5lYXJHcmFkaWVudD4mI3hhOzwvZGVmcz4mI3hhOzwvc3ZnPg==" parent="-Aj5rOMPWS9pz5DeyN8X-1" vertex="1">
          <mxGeometry x="-2283.75" y="-2122" width="36.5" height="36.5" as="geometry" />
        </mxCell>
        <mxCell id="-Aj5rOMPWS9pz5DeyN8X-70" value="" style="endArrow=blockThin;html=1;strokeColor=#475E75;bendable=1;rounded=0;endFill=1;endSize=4;strokeWidth=1.5;startSize=4;" parent="-Aj5rOMPWS9pz5DeyN8X-1" source="-Aj5rOMPWS9pz5DeyN8X-68" edge="1">
          <mxGeometry width="50" height="50" relative="1" as="geometry">
            <mxPoint x="-2266" y="-2149" as="sourcePoint" />
            <mxPoint x="-2266" y="-2119" as="targetPoint" />
            <Array as="points" />
          </mxGeometry>
        </mxCell>
        <mxCell id="-Aj5rOMPWS9pz5DeyN8X-71" value="" style="endArrow=blockThin;html=1;strokeColor=#475E75;bendable=1;rounded=0;endFill=1;endSize=4;strokeWidth=1.5;startSize=4;" parent="-Aj5rOMPWS9pz5DeyN8X-1" edge="1">
          <mxGeometry width="50" height="50" relative="1" as="geometry">
            <mxPoint x="-2250" y="-2102" as="sourcePoint" />
            <mxPoint x="-2166" y="-2102" as="targetPoint" />
          </mxGeometry>
        </mxCell>
        <mxCell id="-Aj5rOMPWS9pz5DeyN8X-72" value="" style="shape=image;verticalLabelPosition=bottom;labelBackgroundColor=default;verticalAlign=top;aspect=fixed;imageAspect=0;image=data:image/svg+xml,PHN2ZyB4bWxucz0iaHR0cDovL3d3dy53My5vcmcvMjAwMC9zdmciIGZpbGw9Im5vbmUiIHZpZXdCb3g9IjAgMCAyOCAyOCIgaGVpZ2h0PSIyOCIgd2lkdGg9IjI4Ij4mI3hhOzxwYXRoIGZpbGw9InVybCgjcGFpbnQwX2xpbmVhcl84NTlfMzcpIiBkPSJNMTguMDAyOCAxMi4xODUzQzE3LjY0MzggMTIuMDA1OCAxNy4zMzgyIDExLjg2MjUgMTcuMDg2MiAxMS43NTM4SDE3LjA4NzlDMTcuNzA1NyAxMS4xMzMyIDE4LjIgMTAuNDAxIDE4LjU0NDggOS41OTYwN0MxOC45NDAxIDguNzY5MjUgMTkuMTM4NiA3Ljg2OTkzIDE5LjEzODYgNi44OTk4M0MxOS4xMzg2IDUuOTY0MjYgMTguOTU3NCA1LjEwMTE5IDE4LjU5ODMgNC4zMTA2MUMxOC4yNzM4IDMuNTE4MzEgMTcuODA3NyAyLjgxNzUgMTcuMTk2NyAyLjIwNjQ0QzE2LjU4MzkgMS41OTUzOSAxNS44ODMxIDEuMTI3NiAxNS4wOTI1IDAuODA0ODFDMTQuMzAwMiAwLjQ0NDA0NiAxMy40MzcxIDAuMjY0NTI2IDEyLjUwMzMgMC4yNjQ1MjZDMTEuNjA0IDAuMjY0NTI2IDEwLjc0MDkgMC40NDQwNDYgOS45MTQwOCAwLjgwMzA4NEM5LjA4NTUzIDEuMTI3NiA4LjM2NzQ1IDEuNTk1MzkgNy43NTYzOSAyLjIwNjQ0QzcuMTc1NTYgMi44MjU0NyA2LjcwMTM0IDMuNTM2NSA2LjM1MzA0IDQuMzEwNjFDNS45OTQgNS4xMDExOSA1LjgxNDQ4IDUuOTY0MjYgNS44MTQ0OCA2Ljg5OTgzQzUuODA5NTggNy44NDg1NiA2LjAxMTYzIDguNzg2OTUgNi40MDY1NSA5LjY0OTU4QzYuNzk2OTcgMTAuNDY5NiA3LjM0NzQ4IDExLjIwMzIgOC4wMjU2NyAxMS44MDczQzYuMjk5NTMgMTIuNDkwOCA0Ljg5NzkgMTMuNjI0OSAzLjgxOTA2IDE1LjIwNkMyLjc0MDIxIDE2Ljc1MjcgMi4xOTk5MyAxOC41MzIzIDIuMTk5OTMgMjAuNTQ2N1YyMy4yNDQ3QzIuMTkxMTYgMjMuNTc5NSAyLjMwNjA4IDIzLjkwNTkgMi41MjI3MiAyNC4xNjEzQzIuNzc4NTMgMjQuMzc4NSAzLjEwNTU5IDI0LjQ5MzUgMy40NDEwMyAyNC40ODQxSDEyLjYwNjlDMTIuNzU2OCAyNC40ODgyIDEyLjkwNiAyNC40NjE1IDEzLjA0NTMgMjQuNDA1N0MxMy4xODQ1IDI0LjM0OTkgMTMuMzEwOCAyNC4yNjYxIDEzLjQxNjQgMjQuMTU5NkMxMy41Mzg0IDI0LjA0MDkgMTMuNjM0OSAyMy44OTg1IDEzLjY5OTkgMjMuNzQxMkMxMy43NjQ5IDIzLjU4MzggMTMuNzk3MSAyMy40MTQ5IDEzLjc5NDUgMjMuMjQ0N0MxMy43OTY5IDIzLjA5IDEzLjc2NDEgMjIuOTM2NyAxMy42OTg2IDIyLjc5NjRDMTMuNjMzMSAyMi42NTYyIDEzLjUzNjYgMjIuNTMyNyAxMy40MTY0IDIyLjQzNTJDMTMuMjAwNyAyMi4xODMxIDEyLjkzMTQgMjIuMDU3MSAxMi42MDY5IDIyLjA1NzFINC42MjY4OVYyMC41NDY3QzQuNjI2ODkgMTkuNTc0OSA0Ljc4NzQyIDE4LjY3NzMgNS4xMTAyMSAxNy44NDg4QzUuNDQ1NDcgMTcuMDIzIDUuOTQwNTcgMTYuMjcxNSA2LjU2NzA4IDE1LjYzNzZDNy4xNzgxNCAxNC45OTAzIDcuODgwNjggMTQuNDg4IDguNjcxMjUgMTQuMTI3MkM5LjQ5ODA4IDEzLjc2ODIgMTAuMzgwMSAxMy41ODg2IDExLjMxNCAxMy41ODg2SDEzLjkwMzJDMTQuNjk3IDEzLjU4MjMgMTUuNDg0NyAxMy43Mjg4IDE2LjIyMzEgMTQuMDIwMkMxNi45Nzc1IDE0LjI3MjIgMTcuNTcxMyAxNC41OTUgMTguMDAyOCAxNC45OTJDMTguMTkxNCAxNS4xODY3IDE4LjQwOTkgMTUuMzQ5OCAxOC42NTAxIDE1LjQ3NTNDMTguODQ0NSAxNS41NDE2IDE5LjA0MjggMTUuNTk1OCAxOS4yNDM5IDE1LjYzNzZDMTkuNTMyMiAxNS42Mzc2IDE5LjgwMTQgMTUuNTExNiAyMC4wNTM1IDE1LjI2MTNDMjAuMjMzIDE1LjA4MTggMjAuMzIyNyAxNC44ODMzIDIwLjMyMjcgMTQuNjY3NVYxNC41MDUyQzIwLjMxNTIgMTQuMTYzMyAyMC4xODA0IDEzLjgzNjUgMTkuOTQ0NyAxMy41ODg2QzE5LjY5MjcgMTMuMzAwNCAxOS4zODcyIDEzLjAzMTEgMTkuMDI4MSAxMi43NzkxQzE4LjcwMzYgMTIuNTI3MSAxOC4zNjM2IDEyLjMzMDMgMTguMDAyOCAxMi4xODUzWk0xNS40NjcxIDkuOTE4ODZDMTQuNjQyIDEwLjc0NzQgMTMuNjUxMiAxMS4xNjE3IDEyLjUwMTYgMTEuMTYxN1YxMS4xNkMxMS4zNTAyIDExLjE2IDEwLjM0MzkgMTAuNzQ3NCA5LjQ4MDgxIDkuOTIwNTlDOC42NTM5OSA5LjA5MjA0IDguMjM5NzIgOC4wODU3IDguMjM5NzIgNi44OTk4M0M4LjIzMjg1IDYuMzQ2NjggOC4zMzk0NCA1Ljc5OCA4LjU1MjkgNS4yODc2NUM4Ljc2NjM2IDQuNzc3MyA5LjA4MjE2IDQuMzE2MTIgOS40ODA4MSAzLjkzMjU5QzEwLjM0MzkgMy4xMDU3NiAxMS4zNTAyIDIuNjkxNDkgMTIuNTAxNiAyLjY5MTQ5QzEzLjA1NDQgMi42ODQ4NiAxMy42MDI4IDIuNzkxNTYgMTQuMTEyOCAzLjAwNTAyQzE0LjYyMjkgMy4yMTg0NyAxNS4wODM4IDMuNTM0MTUgMTUuNDY3MSAzLjkzMjU5QzE2LjMzMDIgNC43NTk0MSAxNi43NjE3IDUuNzQ4NDkgMTYuNzYxNyA2Ljg5ODExQzE2Ljc2MTcgOC4wODU3IDE2LjMzMDIgOS4wOTM3NyAxNS40NjcxIDkuOTE4ODZaTTE1LjYxNTkgMjUuOTc1QzE1LjYxNTkgMjUuNzYzNCAxNS42ODU4IDI1LjU3NjIgMTUuODI1NiAyNS40MTM0TDE5Ljc2NDUgMjEuMzM1N0MxOS42NzEzIDIxLjAyNjUgMTkuNjI0NyAyMC43MDkgMTkuNjI0NyAyMC4zODM1QzE5LjYyNDcgMTkuOTExNCAxOS43MTAxIDE5LjQ2MzggMTkuODgxMSAxOS4wNDA2QzIwLjA1MiAxOC42MTczIDIwLjI5MjggMTguMjUxMSAyMC42MDM2IDE3Ljk0MThDMjAuODk4OCAxNy42MTYyIDIxLjI0ODQgMTcuMzYzOSAyMS42NTI0IDE3LjE4NDlDMjIuMDQwOSAxNi45ODk1IDIyLjQ2ODIgMTYuODkxOSAyMi45MzQzIDE2Ljg5MTlDMjMuNjY0NiAxNi44OTE5IDI0LjMwOTQgMTcuMTExNiAyNC44Njg4IDE3LjU1MTFDMjUuNDI4MiAxNy45NzQzIDI1LjgyNDQgMTguNTI3OCAyNi4wNTc1IDE5LjIxMTVIMjMuMzA3MkMyMy4wODk3IDE5LjIxMTUgMjIuODc5OSAxOS4yODQ3IDIyLjY3NzkgMTkuNDMxMkMyMi40NjA0IDE5LjU3NzcgMjIuMzUxNiAxOS43NjQ5IDIyLjM1MTYgMTkuOTkyOFYyMC43NzQyQzIyLjM1MTYgMjEuMDAyMSAyMi40NjA0IDIxLjE5NzQgMjIuNjc3OSAyMS4zNjAyQzIyLjg3OTkgMjEuNTA2NyAyMy4wODk3IDIxLjU3OTkgMjMuMzA3MiAyMS41Nzk5SDI2LjA1NzVDMjUuODI0NCAyMi4yMzEgMjUuNDI4MiAyMi43NzY0IDI0Ljg2ODggMjMuMjE1OUMyNC4zMDk0IDIzLjYzOTEgMjMuNjY0NiAyMy44NTA3IDIyLjkzNDMgMjMuODUwN0MyMi40ODM3IDIzLjg1MDcgMjIuMDc5NyAyMy43NjkzIDIxLjcyMjMgMjMuNjA2NUwxNy45MjMzIDI3LjYxMDlDMTcuNzgzNCAyNy43NTc0IDE3LjYwNDcgMjcuODMwNyAxNy4zODcyIDI3LjgzMDdDMTcuMjAwOCAyNy44MzA3IDE3LjAzNzYgMjcuNzU3NCAxNi44OTc4IDI3LjYxMDlMMTUuODI1NiAyNi40ODc3QzE1LjY4NTggMjYuMzQxMiAxNS42MTU5IDI2LjE3MDMgMTUuNjE1OSAyNS45NzVaIiBjbGlwLXJ1bGU9ImV2ZW5vZGQiIGZpbGwtcnVsZT0iZXZlbm9kZCIvPiYjeGE7PGRlZnM+JiN4YTs8bGluZWFyR3JhZGllbnQgZ3JhZGllbnRVbml0cz0idXNlclNwYWNlT25Vc2UiIHkyPSIyNy44MzA3IiB4Mj0iMTQuMTI4NCIgeTE9IjAuMjY0NTI2IiB4MT0iMTQuMTI4NCIgaWQ9InBhaW50MF9saW5lYXJfODU5XzM3Ij4mI3hhOzxzdG9wIHN0b3AtY29sb3I9IiM1QjczOEIiLz4mI3hhOzxzdG9wIHN0b3AtY29sb3I9IiMyMjM1NDgiIG9mZnNldD0iMSIvPiYjeGE7PC9saW5lYXJHcmFkaWVudD4mI3hhOzwvZGVmcz4mI3hhOzwvc3ZnPg==;" parent="-Aj5rOMPWS9pz5DeyN8X-1" vertex="1">
          <mxGeometry x="-2279.5" y="-2209" width="28" height="28" as="geometry" />
        </mxCell>
        <mxCell id="-Aj5rOMPWS9pz5DeyN8X-81" value="&lt;font color=&quot;#188918&quot; size=&quot;1&quot;&gt;&lt;b style=&quot;&quot;&gt;OIDC&lt;/b&gt;&lt;/font&gt;" style="rounded=1;whiteSpace=wrap;html=1;arcSize=50;strokeColor=#188918;fillColor=#f5fae5;fontColor=#266f3a;strokeWidth=1.5;" parent="-Aj5rOMPWS9pz5DeyN8X-1" vertex="1">
          <mxGeometry x="-2076" y="-1883" width="35.56" height="15.79" as="geometry" />
        </mxCell>
        <mxCell id="-Aj5rOMPWS9pz5DeyN8X-107" value="" style="endArrow=none;html=1;strokeColor=#475E75;bendable=1;rounded=0;endFill=0;endSize=3;strokeWidth=1.5;dashed=1;" parent="-Aj5rOMPWS9pz5DeyN8X-1" edge="1">
          <mxGeometry width="50" height="50" relative="1" as="geometry">
            <mxPoint x="-931.75" y="-1695.03" as="sourcePoint" />
            <mxPoint x="-952.75" y="-1695.03" as="targetPoint" />
            <Array as="points" />
          </mxGeometry>
        </mxCell>
        <mxCell id="-Aj5rOMPWS9pz5DeyN8X-108" value="&lt;div style=&quot;font-size: 10px; line-height: 100%;&quot;&gt;&lt;font face=&quot;arial&quot;&gt;Group&lt;/font&gt;&lt;/div&gt;" style="text;html=1;align=left;verticalAlign=middle;resizable=0;points=[];autosize=1;strokeColor=none;fillColor=none;fontSize=10;fontColor=#1D2D3E;fontFamily=Helvetica;labelPosition=center;verticalLabelPosition=middle;" parent="-Aj5rOMPWS9pz5DeyN8X-1" vertex="1">
          <mxGeometry x="-923" y="-1706" width="50" height="20" as="geometry" />
        </mxCell>
        <mxCell id="-Aj5rOMPWS9pz5DeyN8X-119" value="&lt;font color=&quot;#475e75&quot; size=&quot;1&quot;&gt;&lt;b style=&quot;&quot;&gt;REST / OData&lt;/b&gt;&lt;/font&gt;" style="rounded=1;whiteSpace=wrap;html=1;arcSize=50;strokeColor=#475E75;fillColor=#F5F6F7;strokeWidth=1.5;" parent="-Aj5rOMPWS9pz5DeyN8X-1" vertex="1">
          <mxGeometry x="-1320" y="-2130" width="74.5" height="16" as="geometry" />
        </mxCell>
        <mxCell id="-Aj5rOMPWS9pz5DeyN8X-120" value="" style="group" parent="-Aj5rOMPWS9pz5DeyN8X-1" vertex="1" connectable="0">
          <mxGeometry x="-1415" y="-2138" width="71.5" height="55.539999999999964" as="geometry" />
        </mxCell>
        <mxCell id="-Aj5rOMPWS9pz5DeyN8X-121" value="Connectivity" style="shape=image;verticalLabelPosition=bottom;verticalAlign=top;imageAspect=0;aspect=fixed;image=data:image/svg+xml,PHN2ZyB4bWxucz0iaHR0cDovL3d3dy53My5vcmcvMjAwMC9zdmciIGZpbGw9Im5vbmUiIHZpZXdCb3g9IjAgMCA0OSA0OSIgaGVpZ2h0PSI0OSIgd2lkdGg9IjQ5Ij4mI3hhOzxjaXJjbGUgc3Ryb2tlLXdpZHRoPSIwLjg1NzE0MyIgc3Ryb2tlPSIjRDVEQUREIiBmaWxsPSJ1cmwoI3BhaW50MF9saW5lYXJfMjYyMl8yOTA3KSIgcj0iMjMuNTcxNCIgY3k9IjI0LjAzNDkiIGN4PSIyNC41Ii8+JiN4YTs8ZyBjbGlwLXBhdGg9InVybCgjY2xpcDBfMjYyMl8yOTA3KSI+JiN4YTs8cGF0aCBmaWxsPSJ1cmwoI3BhaW50MV9yYWRpYWxfMjYyMl8yOTA3KSIgZD0iTTI2LjA3NjEgMTMuNTQ3OEMyNi4wNzYxIDEyLjgwMjIgMjYuNjgwNSAxMi4xOTc4IDI3LjQyNjEgMTIuMTk3OEgzMS41OTM0QzM0LjIwMjkgMTIuMTk3OCAzNi4zMTg0IDE0LjMxMzIgMzYuMzE4NCAxNi45MjI4VjIwLjUxMTdDMzYuMzE4NCAyMS4yNTczIDM1LjcxNCAyMS44NjE3IDM0Ljk2ODQgMjEuODYxN0MzNC4yMjI4IDIxLjg2MTcgMzMuNjE4NCAyMS4yNTczIDMzLjYxODQgMjAuNTExN1YxNi45MjI4QzMzLjYxODQgMTUuODA0NCAzMi43MTE4IDE0Ljg5NzggMzEuNTkzNCAxNC44OTc4SDI3LjQyNjFDMjYuNjgwNSAxNC44OTc4IDI2LjA3NjEgMTQuMjkzNCAyNi4wNzYxIDEzLjU0NzhaTTE0LjAzMDQgMjUuNDc3OEMxNC43NzYgMjUuNDc3OCAxNS4zODA0IDI2LjA4MjIgMTUuMzgwNCAyNi44Mjc4VjMxLjEzMzlDMTUuMzgwNCAzMi4yNTIzIDE2LjI4NyAzMy4xNTg5IDE3LjQwNTQgMzMuMTU4OUgyMS45ODkyQzIyLjczNDcgMzMuMTU4OSAyMy4zMzkyIDMzLjc2MzMgMjMuMzM5MiAzNC41MDg5QzIzLjMzOTIgMzUuMjU0NSAyMi43MzQ3IDM1Ljg1ODkgMjEuOTg5MiAzNS44NTg5SDE3LjQwNTRDMTQuNzk1OSAzNS44NTg5IDEyLjY4MDQgMzMuNzQzNCAxMi42ODA0IDMxLjEzMzlWMjYuODI3OEMxMi42ODA0IDI2LjA4MjIgMTMuMjg0OCAyNS40Nzc4IDE0LjAzMDQgMjUuNDc3OFoiIGNsaXAtcnVsZT0iZXZlbm9kZCIgZmlsbC1ydWxlPSJldmVub2RkIi8+JiN4YTs8cGF0aCBmaWxsPSJ1cmwoI3BhaW50Ml9yYWRpYWxfMjYyMl8yOTA3KSIgZD0iTTM3LjU3ODEgMzQuNjU2NkMzNy44NTk0IDM0LjkzNzggMzggMzUuMjM2NyAzOCAzNS41NTMxQzM4IDM1LjkwNDYgMzcuODU5NCAzNi4yMjEgMzcuNTc4MSAzNi41MDIzQzM3LjI5NjkgMzYuNzgzNSAzNi45ODA1IDM2LjkyNDIgMzYuNjI4OSAzNi45MjQyQzM2LjMxMjUgMzYuOTI0MiAzNi4wMTM3IDM2Ljc4MzUgMzUuNzMyNCAzNi41MDIzTDMxLjk4ODMgMzIuNzU4MUMzMC44OTg0IDMzLjcwNzQgMjkuNjY4IDM0LjE2NDQgMjguMjk2OSAzNC4xMjkyQzI2LjkyNTggMzQuMDU4OSAyNS43MzA1IDMzLjUxNCAyNC43MTA5IDMyLjQ5NDVMMjMuNDk4IDMxLjI4MTZDMjMuMjE2OCAzMS4wMDAzIDIzLjA3NjIgMzAuNzAxNSAyMy4wNzYyIDMwLjM4NTFDMjMuMDc2MiAzMC4wMzM1IDIzLjIxNjggMjkuNzE3MSAyMy40OTggMjkuNDM1OUwzMC4zNTM1IDIyLjU4MDRDMzAuNjM0OCAyMi4yOTkyIDMwLjk1MTIgMjIuMTU4NSAzMS4zMDI3IDIyLjE1ODVDMzEuNjU0MyAyMi4xNTg1IDMxLjk3MDcgMjIuMjk5MiAzMi4yNTIgMjIuNTgwNEwzMy40NjQ4IDIzLjc5MzNDMzQuNDg0NCAyNC44MTI4IDM1LjAxMTcgMjUuOTkwNiAzNS4wNDY5IDI3LjMyNjVDMzUuMTE3MiAyOC42MjczIDM0LjcxMjkgMjkuODA1IDMzLjgzNCAzMC44NTk3TDM3LjU3ODEgMzQuNjU2NloiIGNsaXAtcnVsZT0iZXZlbm9kZCIgZmlsbC1ydWxlPSJldmVub2RkIi8+JiN4YTs8cGF0aCBmaWxsPSJ1cmwoI3BhaW50M19yYWRpYWxfMjYyMl8yOTA3KSIgZD0iTTIzLjczMjMgMjUuOTM4NkMyMy40NTExIDI2LjIxOTggMjMuMTM0NyAyNi4zNjA1IDIyLjc4MzEgMjYuMzYwNUMyMi40NjY3IDI2LjM2MDUgMjIuMTY3OSAyNi4yMTk4IDIxLjg4NjYgMjUuOTM4NkwxOS40NjA4IDIzLjUxMjhMMTguNDA2MSAyNC41Njc1QzE4LjEyNDkgMjQuODQ4NyAxNy44MDg1IDI0Ljk4OTQgMTcuNDU2OSAyNC45ODk0QzE3LjA3MDIgMjQuOTg5NCAxNi43NTM4IDI0Ljg0ODcgMTYuNTA3NyAyNC41Njc1TDE1LjI5NDggMjMuNDA3M0MxNC4yNzUzIDIyLjM4NzggMTMuNzMwMyAyMS4yMjc2IDEzLjY2IDE5LjkyNjlDMTMuNTg5NyAxOC41OTA5IDEzLjk1ODkgMTcuMzc4IDE0Ljc2NzUgMTYuMjg4MkwxMS40MjE5IDEyLjg1NTJDMTEuMTQwNiAxMi41NzQgMTEgMTIuMjU3NiAxMSAxMS45MDZDMTEgMTEuNTU0NCAxMS4xNDA2IDExLjIzOCAxMS40MjE5IDEwLjk1NjhDMTEuNzAzMSAxMC42NzU1IDEyLjAwMiAxMC41MzQ5IDEyLjMxODQgMTAuNTM0OUMxMi42Njk5IDEwLjUzNDkgMTIuOTg2MyAxMC42NzU1IDEzLjI2NzYgMTAuOTU2OEwxNi42MTMyIDE0LjM4OThDMTcuNzAzIDEzLjUxMDggMTguOTMzNSAxMy4xMDY1IDIwLjMwNDYgMTMuMTc2OUMyMS42NzU3IDEzLjI0NzIgMjIuODcxIDEzLjc5MjEgMjMuODkwNSAxNC44MTE2TDI1LjEwMzQgMTYuMDI0NUMyNS4zNDk1IDE2LjI3MDYgMjUuNDcyNiAxNi41ODcgMjUuNDcyNiAxNi45NzM3QzI1LjQ3MjYgMTcuMzI1MyAyNS4zNDk1IDE3LjYyNDEgMjUuMTAzNCAxNy44NzAyTDIzLjk5NiAxOC45Nzc2TDI2LjQyMTggMjEuMzUwN0MyNi43MDMxIDIxLjYzMTkgMjYuODQzNyAyMS45NDgzIDI2Ljg0MzcgMjIuMjk5OUMyNi44NDM3IDIyLjY1MTUgMjYuNzAzMSAyMi45Njc5IDI2LjQyMTggMjMuMjQ5MUMyNi4xNDA2IDIzLjUzMDQgMjUuODI0MSAyMy42NzEgMjUuNDcyNiAyMy42NzFDMjUuMTIxIDIzLjY3MSAyNC44MDQ2IDIzLjUzMDQgMjQuNTIzNCAyMy4yNDkxTDIyLjE1MDMgMjAuODIzM0wyMS4zMDY1IDIxLjY2NzFMMjIuNTE5NCAyMi44NTM2TDIzLjczMjMgMjQuMDQwMUMyNC4wMTM2IDI0LjMyMTQgMjQuMTU0MiAyNC42Mzc4IDI0LjE1NDIgMjQuOTg5NEMyNC4xNTQyIDI1LjM0MDkgMjQuMDEzNiAyNS42NTczIDIzLjczMjMgMjUuOTM4NloiLz4mI3hhOzwvZz4mI3hhOzxkZWZzPiYjeGE7PGxpbmVhckdyYWRpZW50IGdyYWRpZW50VW5pdHM9InVzZXJTcGFjZU9uVXNlIiB5Mj0iNDQuMjc5MiIgeDI9IjQxLjU2NDUiIHkxPSI2Ljg0Nzc1IiB4MT0iNC44NTI4NyIgaWQ9InBhaW50MF9saW5lYXJfMjYyMl8yOTA3Ij4mI3hhOzxzdG9wIHN0b3AtY29sb3I9IndoaXRlIi8+JiN4YTs8c3RvcCBzdG9wLWNvbG9yPSIjRUFFQ0VFIiBvZmZzZXQ9IjEiLz4mI3hhOzwvbGluZWFyR3JhZGllbnQ+JiN4YTs8cmFkaWFsR3JhZGllbnQgZ3JhZGllbnRUcmFuc2Zvcm09InRyYW5zbGF0ZSgxNi4zNDYgMTUuNjcxOSkgcm90YXRlKDQ1LjM0NjEpIHNjYWxlKDIzLjI4NTYgNDMuOTk1OCkiIGdyYWRpZW50VW5pdHM9InVzZXJTcGFjZU9uVXNlIiByPSIxIiBjeT0iMCIgY3g9IjAiIGlkPSJwYWludDFfcmFkaWFsXzI2MjJfMjkwNyI+JiN4YTs8c3RvcCBzdG9wLWNvbG9yPSIjMDE5NUZGIi8+JiN4YTs8c3RvcCBzdG9wLWNvbG9yPSIjMTE0N0U5IiBvZmZzZXQ9IjEiLz4mI3hhOzwvcmFkaWFsR3JhZGllbnQ+JiN4YTs8cmFkaWFsR3JhZGllbnQgZ3JhZGllbnRUcmFuc2Zvcm09InRyYW5zbGF0ZSgyNS40NTEyIDI0LjM3NDYpIHJvdGF0ZSg0NC42OTQ3KSBzY2FsZSgxNC43MDIxIDE3Ljg0MjEpIiBncmFkaWVudFVuaXRzPSJ1c2VyU3BhY2VPblVzZSIgcj0iMSIgY3k9IjAiIGN4PSIwIiBpZD0icGFpbnQyX3JhZGlhbF8yNjIyXzI5MDciPiYjeGE7PHN0b3Agc3RvcC1jb2xvcj0iIzAwQkJGRiIvPiYjeGE7PHN0b3Agc3RvcC1jb2xvcj0iIzAwOEJGRiIgb2Zmc2V0PSIxIi8+JiN4YTs8L3JhZGlhbEdyYWRpZW50PiYjeGE7PHJhZGlhbEdyYWRpZW50IGdyYWRpZW50VHJhbnNmb3JtPSJ0cmFuc2xhdGUoMTMuNDUzNCAxMi45MTU2KSByb3RhdGUoNDQuOTY3Mikgc2NhbGUoMTUuNTk4NyAxNC4yMTQ1KSIgZ3JhZGllbnRVbml0cz0idXNlclNwYWNlT25Vc2UiIHI9IjEiIGN5PSIwIiBjeD0iMCIgaWQ9InBhaW50M19yYWRpYWxfMjYyMl8yOTA3Ij4mI3hhOzxzdG9wIHN0b3AtY29sb3I9IiMxMzQ4RkYiLz4mI3hhOzxzdG9wIHN0b3AtY29sb3I9IiMwNjIzOEQiIG9mZnNldD0iMSIvPiYjeGE7PC9yYWRpYWxHcmFkaWVudD4mI3hhOzxjbGlwUGF0aCBpZD0iY2xpcDBfMjYyMl8yOTA3Ij4mI3hhOzxyZWN0IHRyYW5zZm9ybT0idHJhbnNsYXRlKDExIDEwLjUzNDkpIiBmaWxsPSJ3aGl0ZSIgaGVpZ2h0PSIyNyIgd2lkdGg9IjI3Ii8+JiN4YTs8L2NsaXBQYXRoPiYjeGE7PC9kZWZzPiYjeGE7PC9zdmc+" parent="-Aj5rOMPWS9pz5DeyN8X-120" vertex="1">
          <mxGeometry x="9.88" y="-9.69" width="51.75" height="51.75" as="geometry" />
        </mxCell>
        <mxCell id="-Aj5rOMPWS9pz5DeyN8X-122" value="" style="group" parent="-Aj5rOMPWS9pz5DeyN8X-1" vertex="1" connectable="0">
          <mxGeometry x="-1418" y="-2020" width="90" height="90" as="geometry" />
        </mxCell>
        <mxCell id="-Aj5rOMPWS9pz5DeyN8X-124" value="Destination" style="shape=image;verticalLabelPosition=bottom;verticalAlign=top;imageAspect=0;image=data:image/svg+xml,PHN2ZyB4bWxucz0iaHR0cDovL3d3dy53My5vcmcvMjAwMC9zdmciIGZpbGw9Im5vbmUiIHZpZXdCb3g9IjAgMCA0OCA0OSIgaGVpZ2h0PSI0OSIgd2lkdGg9IjQ4Ij4mI3hhOzxjaXJjbGUgc3Ryb2tlLXdpZHRoPSIwLjg1NzE0MyIgc3Ryb2tlPSIjRDVEQUREIiBmaWxsPSJ1cmwoI3BhaW50MF9saW5lYXJfMjYyMV8yOTIwMikiIHI9IjIzLjU3MTQiIGN5PSIyNC4wNDkxIiBjeD0iMjQiLz4mI3hhOzxnIGNsaXAtcGF0aD0idXJsKCNjbGlwMF8yNjIxXzI5MjAyKSI+JiN4YTs8cGF0aCBmaWxsPSJ1cmwoI3BhaW50MV9yYWRpYWxfMjYyMV8yOTIwMikiIGQ9Ik0zMC45MTE3IDkuNjAxODFIMjIuOTQyOUMyMi42NDQ2IDkuNjAxODEgMjIuMzU4NSA5LjcyMDMxIDIyLjE0NzYgOS45MzEyNEMyMS45MzY2IDEwLjE0MjIgMjEuODE4MSAxMC40MjgyIDIxLjgxODEgMTAuNzI2NVYxNC42NzVDMjEuODE4MSAxNS41OTc0IDIxLjQ4ODcgMTYuMzg4IDIwLjgyOTkgMTcuMDQ2OUMyMC4xNzEgMTcuNzA1OCAxOS4zODA0IDE4LjAzNTIgMTguNDU4IDE4LjAzNTJIMTQuNTA5NUMxNC4yMTEyIDE4LjAzNTIgMTMuOTI1MSAxOC4xNTM3IDEzLjcxNDIgMTguMzY0NkMxMy41MDMzIDE4LjU3NTUgMTMuMzg0OCAxOC44NjE2IDEzLjM4NDggMTkuMTU5OVYzMy44NDkxQzEzLjM4NDggMzUuMzQwMiAxNC41OTM2IDM2LjU0OTEgMTYuMDg0OCAzNi41NDkxSDIzLjEwMUMyMi41OTQ5IDM2LjA0NSAyMi4xMzM0IDM1LjQ5NjIgMjEuNzIyOCAzNC45MDkxQzIxLjQwMjQgMzQuNDUwOSAyMS41MTQxIDMzLjgxOTYgMjEuOTcyNCAzMy40OTkxQzIyLjQzMDYgMzMuMTc4NyAyMy4wNjE5IDMzLjI5MDQgMjMuMzgyMyAzMy43NDg3QzI0LjA1ODEgMzQuNzE1MiAyNC45MDAxIDM1LjU1NzEgMjUuODY2NiAzNi4yMzI5QzI1Ljk4OTcgMzYuMzE5IDI2LjA4NzggMzYuNDI3NSAyNi4xNTkyIDM2LjU0OTFIMzAuOTExN0MzMi4xNjg1IDM2LjU0OTEgMzMuMjI0NyAzNS42OTA0IDMzLjUyNTcgMzQuNTI3N0MzMy4xMzk0IDM0LjU5ODYgMzIuNzQwNiAzNC42MzM5IDMyLjMzMSAzNC42MzM5SDMwLjk0N0MzMC4xNjY5IDM0LjYzMzkgMjkuNTAwMSAzNC4zMDcyIDI5LjAwMTUgMzMuODA4NkMyOC41OTMzIDMzLjQwMDQgMjguMzMxNiAzMi44OTQzIDI4LjI0MTUgMzIuMzM1M0wyNy4xNTU5IDMyLjM0NzNDMjYuNDUxNSAzMi4zNDczIDI1Ljc0IDMyLjExMTcgMjUuMTgwMyAzMS41NTJDMjQuNjIwNyAzMC45OTI0IDI0LjM4NTIgMzAuMjgwOSAyNC4zODUyIDI5LjU3NjVDMjQuMzg1MiAyOS4wNDY0IDI0LjUxODYgMjguNTEyNCAyNC44MjMgMjguMDQyQzI0LjUxODYgMjcuNTcxNiAyNC4zODUyIDI3LjAzNzYgMjQuMzg1MiAyNi41MDc1QzI0LjM4NTIgMjUuODAzMSAyNC42MjA3IDI1LjA5MTYgMjUuMTgwMyAyNC41MzJDMjUuNzUzOSAyMy45NTg0IDI2LjQ3ODYgMjMuNzY2OSAyNy4xMjU4IDIzLjc2NjlMMjguMjQ0NiAyMy43NjY5QzI4LjMzMTUgMjMuMjI4IDI4LjU3MDMgMjIuNzA2NiAyOS4wMDE1IDIyLjI3NTRDMjkuNTMxNyAyMS43NDUyIDMwLjIyODcgMjEuNDUzIDMwLjk5NzkgMjEuNDc5M0wzMi4zMTIzIDIxLjQ1MDFIMzIuMzMxQzMyLjc3MDcgMjEuNDUwMSAzMy4xOTg1IDIxLjQ4OTIgMzMuNjExNyAyMS41Njg4VjE4LjE1NDNDMzMuNTI5NyAxOC4xNjAyIDMzLjQ0NTcgMTguMTU2MyAzMy4zNjExIDE4LjE0MTNDMzIuNzkxMSAxOC4wNDA2IDMyLjIwMzggMTcuOTg3OSAzMS42MDM1IDE3Ljk4NzlDMzEuMDAzMSAxNy45ODc5IDMwLjQxNTggMTguMDQwNiAyOS44NDU5IDE4LjE0MTNDMjkuMjk1MiAxOC4yMzg2IDI4Ljc2OTkgMTcuODcxMSAyOC42NzI2IDE3LjMyMDVDMjguNTc1MyAxNi43Njk4IDI4Ljk0MjggMTYuMjQ0NSAyOS40OTM0IDE2LjE0NzJDMzAuMTc5MiAxNi4wMjYgMzAuODg0NCAxNS45NjI5IDMxLjYwMzUgMTUuOTYyOUMzMi4yODcgMTUuOTYyOSAzMi45NTggMTYuMDE5OSAzMy42MTE3IDE2LjEyOTdWMTIuMzAxOEMzMy42MTE3IDEwLjgxMDYgMzIuNDAyOSA5LjYwMTgxIDMwLjkxMTcgOS42MDE4MVpNMjYuMTE2MSAxOC4zODA3QzI2LjQzNjYgMTguODM5IDI2LjMyNDkgMTkuNDcwMyAyNS44NjY2IDE5Ljc5MDdDMjQuOTAwMSAyMC40NjY1IDI0LjA1ODEgMjEuMzA4NSAyMy4zODIzIDIyLjI3NUMyMy4wNjE5IDIyLjczMzIgMjIuNDMwNiAyMi44NDQ5IDIxLjk3MjQgMjIuNTI0NUMyMS41MTQxIDIyLjIwNDEgMjEuNDAyNCAyMS41NzI4IDIxLjcyMjggMjEuMTE0NUMyMi41MzQ1IDE5Ljk1MzggMjMuNTQ1NCAxOC45NDI5IDI0LjcwNjIgMTguMTMxMkMyNS4xNjQ0IDE3LjgxMDcgMjUuNzk1NyAxNy45MjI1IDI2LjExNjEgMTguMzgwN1pNMjAuOTEyMSAyNS4wODFDMjEuNDYyOCAyNS4xNzgzIDIxLjgzMDMgMjUuNzAzNiAyMS43MzI5IDI2LjI1NDJDMjEuNjMyMiAyNi44MjQyIDIxLjU3OTUgMjcuNDExNCAyMS41Nzk1IDI4LjAxMThDMjEuNTc5NSAyOC42MTIyIDIxLjYzMjIgMjkuMTk5NSAyMS43MzI5IDI5Ljc2OTRDMjEuODMwMyAzMC4zMjAxIDIxLjQ2MjggMzAuODQ1NCAyMC45MTIxIDMwLjk0MjdDMjAuMzYxNSAzMS4wNCAxOS44MzYyIDMwLjY3MjUgMTkuNzM4OCAzMC4xMjE5QzE5LjYxNzYgMjkuNDM2MSAxOS41NTQ1IDI4LjczMDkgMTkuNTU0NSAyOC4wMTE4QzE5LjU1NDUgMjcuMjkyOCAxOS42MTc2IDI2LjU4NzYgMTkuNzM4OCAyNS45MDE4QzE5LjgzNjIgMjUuMzUxMSAyMC4zNjE0IDI0Ljk4MzYgMjAuOTEyMSAyNS4wODFaIiBjbGlwLXJ1bGU9ImV2ZW5vZGQiIGZpbGwtcnVsZT0iZXZlbm9kZCIvPiYjeGE7PHBhdGggZmlsbD0idXJsKCNwYWludDJfcmFkaWFsXzI2MjFfMjkyMDIpIiBkPSJNMjYuMzczNiAyNS43MjUyQzI2LjE3MyAyNS45MjU4IDI2LjA3MjggMjYuMTg2NiAyNi4wNzI4IDI2LjUwNzVDMjYuMDcyOCAyNi44Mjg0IDI2LjE3MyAyNy4wODkyIDI2LjM3MzYgMjcuMjg5OEMyNi41NzQyIDI3LjQ5MDQgMjYuODM1IDI3LjU5MDcgMjcuMTU1OSAyNy41OTA3TDI5Ljg5MzkgMjcuNTYwNkwyOS44OTM5IDI4LjUyMzRMMjcuMTU1OSAyOC40OTMzQzI2LjgzNSAyOC40OTMzIDI2LjU3NDIgMjguNTkzNiAyNi4zNzM2IDI4Ljc5NDJDMjYuMTczIDI4Ljk5NDggMjYuMDcyOCAyOS4yNTU2IDI2LjA3MjggMjkuNTc2NUMyNi4wNzI4IDI5Ljg5NzQgMjYuMTczIDMwLjE1ODIgMjYuMzczNiAzMC4zNTg4QzI2LjU3NDIgMzAuNTU5NCAyNi44MzUgMzAuNjU5NyAyNy4xNTU5IDMwLjY1OTdMMjkuODkzOSAzMC42Mjk2VjMxLjg5MzNDMjkuODkzOSAzMi4xNzQxIDI5Ljk5NDIgMzIuNDE0OCAzMC4xOTQ4IDMyLjYxNTRDMzAuNDE1NSAzMi44MzYgMzAuNjY2MiAzMi45NDY0IDMwLjk0NyAzMi45NDY0SDMyLjMzMTFDMzMuNDk0NSAzMi45NDY0IDM0LjQ4NzQgMzIuNTc1MyAzNS4zMDk4IDMxLjgzMzFDMzYuMTMyMiAzMS4wOTA5IDM2LjYwMzYgMzAuMTU4MiAzNi43MjQgMjkuMDM0OUwzOS40Mjc4IDI5LjAzNDlDMzkuNzQ4NyAyOS4wMzQ5IDQwLjAwOTUgMjguOTM0NiA0MC4yMTAxIDI4LjczNEM0MC4zOTA2IDI4LjU1MzUgNDAuNDgwOSAyOC4zMDI3IDQwLjQ4MDkgMjcuOTgxOEM0MC40ODA5IDI3LjY2MDkgNDAuMzgwNiAyNy40MDAxIDQwLjE4IDI3LjE5OTVDMzkuOTc5NCAyNi45OTg5IDM5LjcxODcgMjYuODk4NiAzOS4zOTc3IDI2Ljg5ODZMMzYuNjkzOSAyNi44OTg3QzM2LjUzMzQgMjUuODE1NSAzNi4wNTIgMjQuOTEyOCAzNS4yNDk2IDI0LjE5MDdDMzQuNDY3MyAyMy40ODg3IDMzLjQ5NDUgMjMuMTM3NiAzMi4zMzExIDIzLjEzNzZMMzAuOTc3MSAyMy4xNjc3QzMwLjY3NjIgMjMuMTQ3NyAzMC40MTU1IDIzLjI0OCAzMC4xOTQ4IDIzLjQ2ODZDMjkuOTk0MiAyMy42NjkyIDI5Ljg5MzkgMjMuOTMgMjkuODkzOSAyNC4yNTA5TDI5Ljg5MzkgMjUuNDU0NEwyNy4xMjU4IDI1LjQ1NDRDMjYuODA0OSAyNS40NTQ0IDI2LjU1NDIgMjUuNTQ0NyAyNi4zNzM2IDI1LjcyNTJaIi8+JiN4YTs8cGF0aCBmaWxsPSJ1cmwoI3BhaW50M19yYWRpYWxfMjYyMV8yOTIwMikiIGQ9Ik0yMC41NjcgMTQuNTA1NFYxMS41MTE4TDE1LjI5NDcgMTYuNzg0MUgxOC4yODgzQzE4LjkxMzggMTYuNzg0MSAxOS40NSAxNi41NjA3IDE5Ljg5NjggMTYuMTEzOUMyMC4zNDM2IDE1LjY2NzEgMjAuNTY3IDE1LjEzMDkgMjAuNTY3IDE0LjUwNTRaIi8+JiN4YTs8L2c+JiN4YTs8ZGVmcz4mI3hhOzxsaW5lYXJHcmFkaWVudCBncmFkaWVudFVuaXRzPSJ1c2VyU3BhY2VPblVzZSIgeTI9IjQ0LjI5MzQiIHgyPSI0MS4wNjQ1IiB5MT0iNi44NjE5MSIgeDE9IjQuMzUyODciIGlkPSJwYWludDBfbGluZWFyXzI2MjFfMjkyMDIiPiYjeGE7PHN0b3Agc3RvcC1jb2xvcj0id2hpdGUiLz4mI3hhOzxzdG9wIHN0b3AtY29sb3I9IiNFQUVDRUUiIG9mZnNldD0iMSIvPiYjeGE7PC9saW5lYXJHcmFkaWVudD4mI3hhOzxyYWRpYWxHcmFkaWVudCBncmFkaWVudFRyYW5zZm9ybT0idHJhbnNsYXRlKDE2LjUyMTQgMTMuNTU4NSkgcm90YXRlKDUzLjQxMjYpIHNjYWxlKDIzLjQ5NDggNDIuNDkzOSkiIGdyYWRpZW50VW5pdHM9InVzZXJTcGFjZU9uVXNlIiByPSIxIiBjeT0iMCIgY3g9IjAiIGlkPSJwYWludDFfcmFkaWFsXzI2MjFfMjkyMDIiPiYjeGE7PHN0b3Agc3RvcC1jb2xvcj0iIzAxOTVGRiIvPiYjeGE7PHN0b3Agc3RvcC1jb2xvcj0iIzExNDdFOSIgb2Zmc2V0PSIxIi8+JiN4YTs8L3JhZGlhbEdyYWRpZW50PiYjeGE7PHJhZGlhbEdyYWRpZW50IGdyYWRpZW50VHJhbnNmb3JtPSJ0cmFuc2xhdGUoMjguMzAzOCAyNC42MTMyKSByb3RhdGUoMzQuMjQ2MSkgc2NhbGUoMTIuMTQxMyAxMC4yOTM1KSIgZ3JhZGllbnRVbml0cz0idXNlclNwYWNlT25Vc2UiIHI9IjEiIGN5PSIwIiBjeD0iMCIgaWQ9InBhaW50Ml9yYWRpYWxfMjYyMV8yOTIwMiI+JiN4YTs8c3RvcCBzdG9wLWNvbG9yPSIjMTM0OEZGIi8+JiN4YTs8c3RvcCBzdG9wLWNvbG9yPSIjMDYyMzhEIiBvZmZzZXQ9IjEiLz4mI3hhOzwvcmFkaWFsR3JhZGllbnQ+JiN4YTs8cmFkaWFsR3JhZGllbnQgZ3JhZGllbnRUcmFuc2Zvcm09InRyYW5zbGF0ZSgxNi4xMTExIDEyLjMwNDkpIHJvdGF0ZSg0NSkgc2NhbGUoNS4xOTM3NyA0LjczMjg5KSIgZ3JhZGllbnRVbml0cz0idXNlclNwYWNlT25Vc2UiIHI9IjEiIGN5PSIwIiBjeD0iMCIgaWQ9InBhaW50M19yYWRpYWxfMjYyMV8yOTIwMiI+JiN4YTs8c3RvcCBzdG9wLWNvbG9yPSIjMTM0OEZGIi8+JiN4YTs8c3RvcCBzdG9wLWNvbG9yPSIjMDYyMzhEIiBvZmZzZXQ9IjEiLz4mI3hhOzwvcmFkaWFsR3JhZGllbnQ+JiN4YTs8Y2xpcFBhdGggaWQ9ImNsaXAwXzI2MjFfMjkyMDIiPiYjeGE7PHJlY3QgdHJhbnNmb3JtPSJ0cmFuc2xhdGUoMTMuNSA5LjU0OTA3KSIgZmlsbD0id2hpdGUiIGhlaWdodD0iMjciIHdpZHRoPSIyNyIvPiYjeGE7PC9jbGlwUGF0aD4mI3hhOzwvZGVmcz4mI3hhOzwvc3ZnPg==;points=[[0,0,0,0,0],[0,0.25,0,0,0],[0,0.5,0,0,0],[0,0.75,0,0,0],[0.25,0,0,0,0],[0.5,0,0,0,0],[0.75,0,0,0,0],[1,0,0,0,0],[1,0.25,0,0,0],[1,0.5,0,0,0],[1,0.75,0,0,0]];" parent="-Aj5rOMPWS9pz5DeyN8X-122" vertex="1">
          <mxGeometry y="-18.371249999999996" width="67.5" height="67.5" as="geometry" />
        </mxCell>
        <mxCell id="-Aj5rOMPWS9pz5DeyN8X-127" value="" style="endArrow=blockThin;html=1;rounded=0;entryX=0;entryY=0.5;entryDx=0;entryDy=0;exitX=1;exitY=0.5;exitDx=0;exitDy=0;strokeColor=#475E75;endFill=1;" parent="-Aj5rOMPWS9pz5DeyN8X-1" source="-Aj5rOMPWS9pz5DeyN8X-121" target="-Aj5rOMPWS9pz5DeyN8X-119" edge="1">
          <mxGeometry width="50" height="50" relative="1" as="geometry">
            <mxPoint x="-1472" y="-1979" as="sourcePoint" />
            <mxPoint x="-1422" y="-2029" as="targetPoint" />
          </mxGeometry>
        </mxCell>
        <mxCell id="-Aj5rOMPWS9pz5DeyN8X-128" value="" style="endArrow=blockThin;html=1;rounded=0;exitX=1;exitY=0.5;exitDx=0;exitDy=0;strokeColor=#475E75;endFill=1;" parent="-Aj5rOMPWS9pz5DeyN8X-1" source="-Aj5rOMPWS9pz5DeyN8X-119" edge="1">
          <mxGeometry width="50" height="50" relative="1" as="geometry">
            <mxPoint x="-1640" y="-1979" as="sourcePoint" />
            <mxPoint x="-1180" y="-2122" as="targetPoint" />
          </mxGeometry>
        </mxCell>
        <mxCell id="-Aj5rOMPWS9pz5DeyN8X-129" value="&lt;meta charset=&quot;utf-8&quot;&gt;&lt;span data-metadata=&quot;&lt;!--(figmeta)eyJmaWxlS2V5IjoiN2h3ZTRkMkZNdlR2dHlHVzZIbENmNiIsInBhc3RlSUQiOjcyOTE3OTY2MiwiZGF0YVR5cGUiOiJzY2VuZSJ9Cg==(/figmeta)--&gt;&quot;&gt;&lt;/span&gt;&lt;span data-buffer=&quot;&lt;!--(figma)ZmlnLWtpd2kwAAAAPUYAALW9e5xkSVXgH3Ezsx5d/Zj3i5nhDYqI82J4iEg+blVld74mb2b1zKiTZFXe6ko6K7PMm1XTxbouIiIigiIiIiKyiDi6iIiIiDgiIiIiIiIiIiKyLMuyLsu6LMu6v++JiPvI6h7Wf37z+UxHxIkTJ06cOHHixInIWw969TCK+ufCzuFeqNQ1p5vVRi/oFNsdxX+NZsXvldeLjTU/oKi7gd/OlD2D7Tcq5HNBda1RrJHLB517aj6Zgsn0Al9oLRhcQ7kXnKm2em2/1ixKy8VGs1NdvacXrDe7tUqv21prFyvSfslle5VmQ8rLcbntr7b9YB3QsaDsN/we4NZ6766u374H4EoW2PZbNQEer1RXV0lPlGtVv9Hpldr0Xi4GwtvJDG+nm9024/CFs1NBp+0X67aG8mWubEd8ebXR8dvFcqe6wSBrVRizoqHuirZfbjYafpnBZpiJObzy0tUxr1cZfuilV22U234dfos1al0bMK4uXhhGTMDd5JU00cWtLSYSEBxWes2GIaRM4Wy72hGmdGMyCFs7/SgEDbrFjhklSPXmhsnqs8PxYDg+194fCU6j2bjXbzepUM2KqRcKVlMeT6UPSFWa5a5wSFaXi42NYkDOW2s3uy0yudV2sS54+VKzWfOLjV6zhdA61WYDYGGD4TTb5BZExqSLtaohu+TXatVWINllBt5BrkanjrX9tW6t2O61mrV71gyRFbpqVPyKCCjBO97x7xaWTjAxZQGcDO6pl5qin6eqDTprGCgzWi2fEVFdHqwXW37vbLWz3nNtr3DyNgxeWZa1UKo1y2coXXW2Wlkzen01tOoy0mvqfqVaJHPtenVtvcb/Un1dAAE72Otdtoew27WidHrD2WKwXu116JnSwzaK7WqxZPi/seMyN5lMr4w8KN0co7hV9XCGZ9bKI4pBUA2Y0B6Um12pe+TF+unXjDJR+aiEkHDTphLgo+vNStf0+hiLv0YFpcfaUrt5lsLjgp3+Xnh2ONvphBdmVhluDu7qFts+tQo+3bxpxFFvmqXidehMZobVTTGXFCvNsyKa/KWmsNAqtou1GmaC1VHvtZ1EF+bBNX9VoIt+Y61XKSKsoul8Scost64UlqWwWjVUj5l8s1bxZVZXOiw8/96mGebxVtuv+KsoYKXXajfLfiCqfIIZ8mtSfzJW9V5QdTyeSkD1bq1TbRngZfVio8uCrTZaZiIuX/fvLlpdvaK87m+0TfbKFs0c+Komw7ZZ0Sfh7JpWrSvdX1tsI/d4mNfZUiyL64NuvQ4vvdPdBvNsCNxg1PVhQcv3y+u9UrfEJAO40WgDlg1r1mwXjZW6qTQKx4M6a1rYQYN6nXVmYk0sK7a/XTf2XFeK7TO+kPbcIEV1c7JQWYclzCXFfLlZayalglF/02YhwNKYnFnatKg0WTqUl2yTuLgsiojykj0WNFc7PUOD0sp6sY1au5Kx437bt+v3hH93GTnZkZ9cN7N9Kih2uomJucz0QubyWhdRNYNqR7q4otUfjp32LgVN9BugQqMqVaaF3oRVIDoBSWrkgW0jKyA0VWwRsFwCA8kpfb5at2IuYF9PV8ksbLCMxJwuVnfZcoOt/ii00mfPbPudshH8alXGqdFX01vH6m3O394OtxzH+SqGqc2OWWQBUakq7WYrLerVJmaSmWQHKdW6wqBXKpbPzINysn7LZjdYaKJRVZQDsOq2sNCkutY8azKw0LE8BGhErVcutkQz82mJBdUumx2kIEQr4dZk2p8NJ2PaxPsEPTO/yJW8ZrjVM36qbV4t7MvG05kOdynFbaDdW/fdzOvG/u5mOO2Oh7MIuu2iDFW1qnf7tYCMhmv2UsH0ypNxNJumM7zIzANXUm+GpOtF2To9+HBizwVldn0y+VUoVnq2RcEVDPZCMJtOzofF0fDcmAYJMcWGwsSS0Vhel/Uscrm/h0bG42G4RjV0Yi89u6BFLjKInC36d3WrNbZnDB3AvNMpMWHWMSkgPpQPA5qAFrK7zmK6r/RupbyUKd9GeTlTvp3ysUz5DsormfKTKR/PlO+kfKJcbZezvZ+0oz09GYpk6vgbbaCq5G/4MgIdD9wrTSajsD9u7oWxguS7DbtSESPNZJMkr4NuCdts8t7dZgEbfTXCX59Mh8+djGf9Ec2dZczMLbpspOCd7rK9r1YNh2nrjXA6G7L0BNZsUZVpWmp2Os06Oa8+2Y/C8v40mkyRD9tCEdtHhSq3mwErrdomr/17fFl6qB4lD+/PdNUqMhRsYRkVp5zH0pMUSMrVGrmFulhUabLIFONTk1tK5s8UlzdY7JNpfTidCgPJKjKzTqpNBguEZWRH64gKe5V+tGPtiVdmFwakUgXXxubY9ZBvNdYAqdMtX1IdbEjitSriIef8C3uT6ezoGsrhDWHS2fzcQlExAF/I9K9jQLJkvVr/cLI/W5sOB5ZI3i6rjMRTBj27ynJpm1Z/NgunY6rAqrbMCsFGG1utzXzuzybtMBo+F9KJiAw7RjIJHzrJedKsM90fbzn18yrVQPwgoalwudlNyehgdjgKg9CNnalrB01nHzscAUh0Ge2yusJpBFejUZaNJdfx6y02WOPn52MyCHMWJpK8aL8hq+PdAsPR3zpvpzEZ0zoG+l6kazjQbJS4rSZvsY1e091F0rUi9UoomZgY8jnToDzZh6Gpa7fwUO0Qu5ucXLHbkZ0rnyFVMKRO70ez4fYhxYek0iqW8T03fHsoydlyye+ctY4BUoJOYGfRGFyAnEqC6r1+r9PEyhgBzQFQOia5Wm/h3lOSGnCsNFqTaCiTy34CyDGuiiXE3rUHIYN2diq2mb2GA1KxBVi51FZnReSmD+yY2tExaFDGLFm6tZO8HE8dpsD6XXKYpqy7bTNxJTZk0ly51jQeax6Pvhd75ZQL3Rb+rN8zx4peu9voVM1BaoFVVqmKd2MUYDHbrIcDLzhLVfid9jPsXMa5A5tgulTFVVjqCT32K8q63uRkj79K3rN5W5Gj1br4ZeTztgIPQ9AKtmTc+QWwcJ2Nt7zohr1UwcckXabujH9P3OwYxY2mPZGtkLeDWzcTfDwpswwpn7BdxNp00hY5Q25I61OdaX9s59mO8AZ2Yc4OnR7bBvuxCAg0xfJm3k0TvUrwgNSzx5nVdjM5PuQyoHj7yGdgdqMoZCDJTrHQ6gbrFuaILaaQmNZSCrKkllNAQumYHMMtzFFaSSExpeMpyFJCTDEgoXTSMsokghQTOzUHjOldNge1JC+fgyVUrzA9OagjemUWFtO8Kgu0JK/OghKK12DzqmW01szPtTiURGCKDUyhWafXcXZo4mKmkOv9fsSytjN+kiBJuVuqlqlQQjou6GojW/TEXlk3nRay7pKqvODNQQq27RxswZr6pLwYtNp2n1haQz1Zdwlg2aEmgGM2ZxYIK9WujpV5YOes2JTjR4DrnJsAnwi2ppPRqDKcWvMC026NfYNdAQkbq23bYptmYg3CAZZtFlLv391ig7SGtgwF8bRMSa912Zq0FxFMojPyi0qPJrhLJuuVJyP8EZ2fqmWlz/GPt8k/uT7/5K3LQuMLlPQh/3htQGCngPv5J7fDP3lDKZhN9miwJXn1bKX3nOkGwav3Z9PhBaUXdm+5hbLeveVWEm/3lttIcru3CjC/e6sAC7u3CnCh1Z9ipqvjQUg779z+cKDuyxBdUZ49Q1B50B/th7TR++Y8caPyVpFSo78bKp3b7u8OR4fg60g2cDIeRGbR1nS4N6OUE9yN/nTYp8n+bjgdbq0Oz+1PES1btjs3K9SO+SSjCTeYWCh5081802Cvv4VSz7Ul/oAXIUbMlDWBDXfUvASBVZlcGWCWAoaUiILJ42ShzmZ+s63L/b0IZU6bsP7MmVOT9OKC1/I5/wnrOQC9pCR+O/FTyRYAMdg1sgsZ+q1Y7lm28Ov5F/cel4qM4ScwQmZyEqwqOm2Wmg7CXUgNt86Gw3M7szkkwnkypASlyoFguDWHktLhxGE2itWwPzMT9Y+6xfGSKlW+rWVQ3Gi8cisQeE5GRWoGSlpwsdAFoj/iJy8225UG6VJxtS31y5WGMWrHGt26DG0Fb17igcfZd0U0Jyo2PSluPukpTsOSXlYsmpPF5WWbXsHRStIrA1u+qr1hgipXywInvSY4a2Lf15aDs5JexyQL/Ppy2QQibwisy/awdQKCpDc65+imZrsh/N0sQiF9OPukyO8RlY45QD9ytVaUcTyqvtYWN+HRATpL+hiOKtL/Y1fxrEkft27Tx6/bfr+pY8vffJdNn9Cy6bfI8Yv0ibXVkpS/tdky6ZPaHZN+W8u2v6V1piFyurWGGSK9jVT4vL3dqUn5DlIpP7lYam+Q3lksbUj5KaTC91M3LJ2nbcAQ6dNLtbMyP99OKnjPIBW87yieWZdxPLN82hwrv7O8ahbUs8otUy6Wu23BK+EySLmMkZS0smrp+0QGhZ9V0ttI10hvJ12nW+mvSir0T6/b8dDbmvBTW2+eFr3BPTZ+TqOKQ0LaPN16ylNJW6dbTxU6d51uPe0W0vbp1i13kAa103Vp1yHmLPhddkeZlw1xkkjPkgofd9fP1AV+T6Nm3Lt7G90zHdLvYiMRvr6bNCD9ng0ETnpfK+gIvEcq8Ge3z7Sl3G+31iXdbHdLMu9bAd416aBj+Qg7DXPw2WaaZP7ObRBnI93ZsPXDDTvu52ycMfpyfqPdaZOOSG8j3Q0CLLhSY1IpT0hvJ90jvYP0e0mfTDolvZM0In0K6YxU5LRP+jTSgyDA9it1P6nQu0Aq9A5Jhd5zSYXevyEVet9HKvT+LanQ+35SoffvSIXe83QQ3CYEf0CXNwyHz5eMkPxByQjNF0hGiP6QZITqCyUjZH9YMkL3RZIRwj8iGaH8YjKG1R+VjFB+iWSE8o9JRii/VDJC+WWSEco/Lhmh/BOSEcovl4xQ/knJCOVXkDE8/5RkhPIrJSOUf1oyQvlVkhHKPyMZofxqyQjln5WMUH6NZITyz0lGKL+WzO1C+eclI5RfJxmh/AuSEcqvl4xQ/veSEcpvkIxQ/kXJCOU3SkYo/5JkhPKbyNwhlH9ZMkL5AckI5V+RjFD+VckI5f8gGaH8ZskI5V+TjFB+i2SE8q9LRii/lcyThfJvSEYov00yQvk3JSOU3y4ZofxbkhHK75CMUP5tyQjld0pGKP+OZITyu8jcKZR/VzJC+d2SEcq/Jxmh/KBkhPLvS0Yov0cyQvkPJCOU3ysZofyHkhHK7yPzFKH8R5IRyu+XjFD+Y8kI5Q9IRij/iWSE8gclI5T/VDJC+UOSEcp/Jhmh/GEyTxXKfy4ZofwRyQjlv5CMUP6oZITyX0pGKH9MMkL5ryQjlD8uGaH815IRyp8gY0zU30hGKH9SMkL5byUjlD8lGaH8d5IRyp+WjFD+e8kI5c9IRij/g2SE8mf10aATLtqM7VrdoXTsqnnim9b7e3viLGlvezrZFfduNuFfrzSabCqtNw9nYaRy2ka7lJfjunNHymPx7PDjBv1Z3+AuqtzGcBBOlOfFONHt3elIkFr9aBYGk/3pFiS8aIp3h4Mi7uB0qyGRGToExBm7LJ5rcfAcgiBKL82EcXzKaKc/mNwfkfV2cFsIIezgY+K1DsJZfzgilw8ZbySOCN7rASGGkFAX+YVZuGtio7Zq8WC4yTkXNpY5Q4pcbLfu0l55x/7/7XIL72yKMMgvb06F5pieKR0zzCjvGjNJlym9JYJQz1beRLzZmTj7uYNhNNxEcFrlSdxN00lViPD6I7WtF6A9jrYn0121oxaHZsZepNWSyXV2cNXHwjqg5f4YIAeYqlQJ5DILwb3E+2VqF9XllLOXKleoYxayM9kfDcrCX70/BgA/10wnnIRoDJsrkTQhc3zbyNZguil9qVYn9mSkq6YK26xOhruT5wzL9NAi2o2MF/WpA6NIL9bqCiLT54ZjTkvS89nhYMbA1JVz0HXryS6qq7akJ5xl9UBeXS2OcJ25qqCgyiucDw/VWOltoLXhOG7E7AqkMjwXwl2Okwol6z4/V+Wl4PzkAlcXlCA+tOP0cv0Lw6jTP0fHWrINkRq6Hq8uEyC3nV+5tdOXI0U4jcDQScl0VK3IkL1I8s2DcEqcNuz0mV/1Tk/nRiZ4a2J5m8w6t0sjuI/YRHTh3Ohwbydi99ALg+SGKGLv0IubHDHPf+/+RBbvG7W+zJLZgAFQ4Hhpm8Ek0nmF1svb/dFokzDdKhWRGutjOyjilM7OlyYXoPIarVcokXtdTh+fJRFfTsBTd0IsqBMOHg4S+Z4cTc7J7YBB6UzK8dib29tROMP6qGV9ancYhwSTdpfvUoK+7f21Wl8x4Gh2EA5qhonX5/SVFQtI5XzcDtNJS89Jy0ulxRKekxaLaU5ahW14yQpn4WJZLLqRQmNOAksOnpHA8r9CAseOjnZlYAdXM/wz2uPrGR6Ul98knDqI1IADt7Wx7nSe24nxODQUiDImhFkEaaMoZZooBLYkzueG0QbHPlAIBti2Z1g6i6pQcuJU3hJ2z55EkfL9ZlGykKTuHjI5ySSjz0upGG1BitIiZnIyDWuZ20ms4vZwGs0SuUhfMJQtL6zJ5NHx1mR3t88QSnbHSUMRm8quIAbNGGQCjRbQ/8XE+4MDZ48XLrY9iwZkDEsQztRn8oReE3Vh85oSgUGCGgnG3cle6fQHs3DgrsNK2CGkaMD1/pRpc7LPMmpDPEbPpKUUGuHs/gnoboSIa5f5eC6xJv5JxnmxpZDNnAsepKRFFSJ1n9bB4e7mZOTIR6ZAv+zxNh8TiYSAR+BGto4A3sNVhMX2w2TGZNFT4yd4HroBhT1gOJwEB5DeWjiWDQ8Jub4mWcp6PwpX0YI1cUQYx+HYhGc0zsNwe7s5Hh22EfpBf2SwcxWr+dXd3f2ZjM7sR5auN0+XgrNnXjGKwll1AJeMH12bDsF5u9baVfiADiHQl6IoNHbY5KsD3FTXvh1ug3Le1sbEWVqmEkRvUSQro+8LRNDfQVvW0ozBTfb3qgM8XJUzM0T+3awhK2kKD2q8BNk+GBLF92i1EBcDQ/19mkBolpQXr+n57gJH/aGq4w4fon7DdYoi/D8wmohAhF0d/L8wAwZQeSgknId9uhs8VH1nJ9z9BtwEGCOcF3CcDswkD/4H9NwkpXitqbhD3sJMChsJBn5vyq0Rtzdj63DijJgtjfHrACqLH1Hvj/fZEw+DcMS6DFnKKj+MSpPpwLk0l0AoRPubEtTcZFeSzt0YFlLe5hX0IyjoXJ1PhajpTMowKWM0eTumD8FzgCmTRSSzDP2QCC22zFvexqU+Y1U3MpWICLf6wI5/vY9LTqBVRNzqJ8s54jzI/uec/MJoiKs6PZQ135kEbiygCYAzu17A/u5NxuHYLaHF/fH2SC6V5W4wS3JpGHXjKiOZZct2OW5f73MiiA3fVgy1VPXe/uZoGO1ATDoWdjuTTtjfraXsSSfe0U5yVU47YtpjzQ1mMuzUHAmp5nZwP5xiYByyWDHc7TkW5g3Npelu3Pavosze0B8FmRmJm1jS9hmS8k4Yx/8q4QTdMo6/8Q+w+Lkpu+W+nBLy6QmgQJKcABaivWnYH4CxGO1M7kfWnF1KIRIciHkGfcnS2GBTeiCvlk0nrnDMNnallQsuc/zQZU505FRhttnqeFvOd4bVDaUH+9bo06+Hgs4mUlEJD4Zb8buI+GZFQmbm7YYuE8Q0YV3PwLhskaA8Zey+NGzHBwl2Fte4XD7bM8dkfaQT3CApqE8j5sjtjowFqVUHTOVwe8iGj9LTytL8DGu4ifjxE1vOc+gIAbWUXLIr7tfiyzgt+aTGk1J8JZfjRohxxJh5V0yQCw4Q4y/YN4zkFh0DJZztc1h6cb1YCmy4cEMvyajlHpv7LXvNLFd97iWUvoiAHUPSknBotdKL3+ldjF5ER3GHREE9bzMBGypfQJQpqCxqIrrY6HPANTI0WKrQKG4QjTcXF4rbxrZ9aKiDs+YKwJO0xy2JQci5a0dz05/3OTVLYALKTKdYLTDiZ58gqKC9Zq40CBu3INtr3d7buAOAZ1sGHLOxDBj4Y9H+9jY3WliMofhrhjUW5RZ+/Ux8jRmRR5WLDs6JnTHnM+afYrVi1s1XWEWUmvsz8VHF8FOPiWM68AXFL6G8CMbqhMBFYF5kYbfOR4CX8GmKm9FktD8LnWeHkdvKjuqftDrmWN5Yc10qr7raa/i+uyos1s4W7wnI6Jo5ucgjndgU3Mk+yLFSedjwZNXnxvu7AfaCiYgU3r2zEQQgIgsNZBng2J7bxypOXWnR8MU8Lu2JsZyO1VPVcoaSW+jHLDVXWolsrdBwoOMpVQc5scZ+ghqZwzCsakuCPuPNPNfCMoJwP7aIaTMv4ZcUVm7OkceHkl3Y+MSBZDsiArlLsyotD+NIuHhrN88IxHNvynP+6qp94ZbneqHZllzBPWlawA6y5xh6mZ3S9mXtfOxAuO0x3lwFgZlmrKI5cB8JxDWJmNHYelD2ZLJtlbsexvCyXBA4AKP5MsMM4W6/0ju77rOi16u1Sq+52rPV3PT14mf9jJDVfo+rkYZecbqVcMGhDSEWx+eQIkEqdoBM0RuOccPbxtBTzNlNp8ZRkLb70yEc6sEw2hv1D81iWBEH3BSN7sN/a7RPXMX1tmcKSJJmOOcENWhw3g60Zera4ajPaXfHNsjvGaBtsBvagBpN3FSTxb2q4CxZXylf3x/NhtJ7OF0dhqPBhp0KJmiLBYXsUQadvTfnspwBysGk3pdom1JLsX64Z0RisEk8Z5Vz1giTy8d2uJBY6AVp05u78l9MOvDHgz05ESKG0GVlI4UN3NO9ePI3uT23nLzUU7mkMRlsxaglrRhNBt2uaJqBYnFF8gE5qcdVrlYqNfMkC9tpdJlbrhhkX/HED6Ns0/rQMkc3EUCh8govuwoTbNQAE4YWIxa/VmqetRaIBVV0omFrbtufraSt7DL0ks3L3IKjquR0cTx2+yoWj5jD7NBiX+8Wq9C2i1VzgWneT3jJu8Ect3e9GJyXQlJVqBfvTqrYN+9OqxYtyaR2qcwdrN/ucYFW7cpiWU7MwTExEIjRvhJYMSXurtfoKDvlx1fJ9VaL9ap5S3fCFN0F70lTOBt3foqF6qe8XFbzO2hST16usYKBXM6ksVOngCssoFWsuGeQV1qAe1V2lS0Zrtzmd3VTGptr4mvKzXoL9Tbwaw0r8Wiuu1j0ytMzkf5rmP20FrUY9TdDiQ/pPYspx47XctpPkephX6LYEuwRHQ/EoKu8XUkqWUHarSkvXkm5S1IgRmPMvpbbBCFH3ptNXC4XQ00nr/dUfjYJ+ru2yG5sDFjTKK/YlhlxAJR4gZ0xBq8OL2A92NIszcBECMwW8wCbsjsg1CcHoXNVJ6PBGWOyCFhgz1cTW+1lcNeHRNCnh1UC9zSJzD2FUK+akdhy+cgBAQ80HIlEDaMmUHceGzi2zehvO+1qRJ2zuBIcO981Ebv82eHgXMhWwvrF2HmEekxbuvQHQ4JzMoD8bIgpnfV396rR5Kl3cp0KaXyPKYhCmUEJcjgoSgQ8t4UnHxfyUhEv4VzFlx8UMm/q7Hq145eaxbYsdW2epsnS8djwzjvkYq21LlfP8gpMtJ6cNj/3cD/zcmd6h91ASwGqACXHVMXvMs2PW+KSF2BPUJUAjWF3wqN0jUpd9kJSPYdgB68jU1BvR6kbCIco3pg9xXuZOcaKoCS1Mfgn7+30o1AtKM9kLPDOPbbz+AHTc1QuU7QIT5nJEI6hh6QW9NSxnamCpBb0tGHUskdS0TYU9c2a4xtn4z3hGNx3e6NUmwzvb/TU87JAp2LqTZ7+GbeJ/p7xHIoS65Dww9u0+r/WNWGXWVS3uqzlIBxGwWR75nbPQKpg4y2aa4fJuLs3YNIda78ObHU4GsU4P0fZuq4x5BeANA/sGVRS2Ufiuq9aDjpIQ31dcx9tipW5wf5e7DSR/xWNTC7hMT3P4+o5U5W6X/+iuYsWBSbEiO+ykZB6We6IY/WgN3kOB89gn0WGckxDY56MqyD0/5od76A+mYxHQ250Rodxv5/EDdohhIipcFJAnvcRU3fgjDBMxevjikQOBvxLMdi58EnFm5IKc3JPK345rhAvPgU/EIMz/HCgsGxQ/9s6MsABQEEhDqU+aKfBwCxiXPOnmRphWGAfysAsUwL9swxUOBLYhzPHvVYfuxOpl2v9+/qSHJYSVLh8D0oTsBptcBJN+XvYjostu7UQMMBLbEqALFKvzukvxRpg/NBUBT6q1XOhZqDz6+rfkEsaZONJ35etSHXm+y04sc0ZDfyYVq9ygbB59f1xvR8HjaCe7eQN3A5i6bsPUf3ZOC6FmMRAfMztDDW7ys+YRf2jOYdk5v6v5JxjWbPVH0eM5dsY6V/HxMLE711Rn9D2YrM83+jrKRWRdCXcjtTXPf1i/OQMGPlG6p89/aOeG7VI4Ve1+t60aG2JzA8bqxOmwCUQ9W+5Z8K0xKGrdhhxyvPHMjHirb84jnQRWLENzQBfNs8axowLHvEDIvU1T7+EaAxhy+I0LO1vOkK/nsS/AgmiIRH9VT0HIq72Ca2/Zmx7vLNP4oIdwl7coCa7sCqo3/d20x3pbZ76F3OtGzAEfIWr47xtXGUX6J+b9vd2ZCPAZVlW1xwBWcTTCTR+Ubqsrj0Ks6hnZqzF4ojBZ35L9U3qEZcA2wadpGaDlSP3ReoJ6pEXAS1yV+BldjV1jXpUnLdVG1LMXFBdpx49D7FoZ3E74js5GEtLtvq7RUIN9juuyL85ztuq7zHkRElepdUT4oKtu89pUsdB1au1+o9G8oQHhv0xUZ7d3cm4JqEj/EMJkfy7uVocnwuz/T5n1BTjeazCBKUyZOmGMg5WWBbrB7JYdnMVeWVRnp9FwSrJgwHAP5gFBzhQLMF7w+mEqhdkqxr79i2wfYe8p37oEpVOB9RUvfAStVxcGZdGzdQPZ6vL8k74QL0oC0v2vQvqRzSbPGYsJj5Sv2gxEzvxATD6jMdeoN6g3uOJY0S5xWkceRpCWv15DK4hH8p/wWn1Qo2pl9DR37F9Gu5Yc87H+vQ8yPgx7/DUP3gyS1227JoJUsV8LKo/0VLDBjkabrEJH6l9SW42OUdkYtAcNzur+KXIMWJ69Z/quILbv7maD+nk9lq9K6f+TospEWoP5tRHU8USUKReqfULDGul4WCYdvvTBtax1/ACeoZ6FYKI1vuDdqfWoQ5RvMELj17z/nAusjcx7pnMOpqBrF+UeXWz4LJW+59OZP+8sWmLNmfB354+2FlyWVvxDFomEfvlpGArvyPCPhEZWJHUgr6TGGbymud4UrCVzxrAHgYRPRmrZX0iU7QIxV3ceXi7TFILqki2GjVtvJO6K+YAFmlVYMaMvtVTv5vxF5p2LAzryouAtukaNofzWxKAuipbtijrkfFm3KOaZXVDtmxRGhZkzKB6hLopU7QId1kIq0g9St2cFGxl25bND2cfox6elmx1sI2Lk3o+j0uLtv5e28CCBOPxWYDF+a7Q+FiR+qTW3+LytqaXCqbsIq63HQFZxG3pdy2c7IZy3fc1rW/PAizOOdtzDBSsO+ZBFm9HXiSwzlHLyV4t3MasplJHxD+hswhtEfQRjJenGKXJbDbZvQSVnzyKcylCr0iR0pqhbKl7KDtLGZ37qaM4nQm+BLUpyitNrAKnm9UbsUkwasRvVtpPy9GhuHkk7v58b3MiXg3jWzceCrCfdzDLbQJ+nQPLEBPgLzigGVMCfb2DMrmcF1B0WTJvdEC6skrLsH/JwWxXCfhNDixdJcBfdkDTVQJ9wEEDM78WjP3NCuVXvB22OOtCJDKZqZvVjZeCW9VoRfLDSzEyqqTYA1zBVj7HlGVc7BDwcD5btigjA2r1B7LXgLKbLVsUOgRUZiYwPWaRqlV1wQBP79sfsq6rQ1O2tRX1YW2K6wnbjiAd/Lmtwpgb7yet+IitIGKCP3ha/YUtWheG8kdtucV2iJ8QDJ8rrU6rf5wDm/6rxHgiWPqcrcoybqsq6j+6qp3haOCark0n8kOrz9sax5aZQqD/aQ5qlQDwFyzYkDH0g3C0jXC+aOHxhk8TVVM/xmENYBt3dhqF98rUX2DSX2bB5pe1DfUHtuR4djNFT+/1dodjBh2qt+fVH8omHxfeN9fCcIGOcLSZqZb6K+7PgzG6vdbfZS31p7LAPu6hQO62V47bxsv/UVmQ9uI1kCuIpOIlaUWJfs6ldg7T92M6JWV8iU9p9TMZWIdW3CK/OgOqpBfKP6sJKjI+g3W3ek0Gq4W3EE4PwsDctsD0b3IKIXJofBeD31Zvz4DkB8Ir6rdSXondye3xZ7V6h2axxJevHapUR/1OpqsO0bfJvszyu7KY9T4F/jc26Xc1hbgmM4J3S5CI6xpTZpdlakd9uVJ8MNNBYB7TBijZrGge4IqR+bOU1WpKOlK/mtOfSavMVCAhE0BUb8+p/6XtDYxxxV/k6Q+6skQo8YbsNc2LPf03sWwkuAAN9eOe+nIK8znwA/nvKaTGSE1cAE+KW9MEblqz9bIP/48USnsL++cUVkbrmCzDKvuqp/9PWicuWXKP8UpP/d9MFcNUr/bU//D6SbA5wobr/+btoh64jeIgRrhz+nk5YgFHvqN0XP03baBd9MUZi2X1P5kXc2y5xAuzt2oCVA9ZvcHihAP1Ek99xBuzCI68e3uL5tJ3Czi3mlvna2xy+/iX6hU59YPeCJ8WxT0Yhvcb3PflGKthzrmqeMCasToXvIzAZGjJbvSz3AIPwkkLFdpkqal3EWGT1b27Z8i9N6f+Q9yWbiJiirLkPptXX/buN3FmeXbHoR8hhlgM9RMZcNl+lmORibHAipVAsL85m4bxVzve46mfdPXl/hanpiIEI2YJRrh1sjXV8d7+LLkAfXFO/ZyrkG2e6z4W4msdZH1ygBUzavWgp/491uisgQfY/vMid0b9i4hIFghicGxwL2/RTHNQPu/I1cNZfyCieElOvdDB/AORIT68/mEHaeFZsLsc1sPxvjX4L8/pH/HMPLcn98dWOVIf84gjGDD2bH93PFfzm7aGBlarIvUJjxOUAVr0s7JTGfBvEY90axiTJUcM5nZ7aN4kyET894vqW6wqDlR7HAtjpK94kdQEeyH2etqYiLasqB/KmbdhmOIPaPW/LUpHIKbZB7X6PxkYoSy2XvVCd8wJd/eIcklc0d1S/EhuMJTIxi7dI7XqAPv+n7lgkENdezKZUfyCK8ayoNUXuUI2rWqmRq73zdL7J099Ka5yBM2e9mVP/dcYbpu0+vsRdvQrHm2Is7NgKkNRdZnbr1vZcHD3x/u7qxgEFE69Mqf+t7W5VMhQ44pX5dQPEBRjs0OXj5mM9VKe2TcfNhmzjqF6Mi3Z6pKsKLt5+UnE69RFQItcDk1AmEk0C7Rpn4lcfjHUovsRRrKKPZuah7XYn+vmIRattjtkPLUhCSjXk7iSra7PxKahJOcx+CA8LFu2KM1NVtjcp4Aepx5zFGZR72bloGFZhxFH8rEXQy36PYQRBoT3zbdz6E89ST3xCMgiPtsKISB8ASxiU9HfOg+yeOgdcS4zCZF4Kk9XT5qHWLTNkVEQCV4T2dT62zJli7Fln0yLDhCXV7ekRVs/2EbN0PzoPIEkM4dMVXQR0CJj6kzfk1XmQCs2l6RoEQ7sWEpI3epF3B7s+yVAyaL8qtYv1kjO6KZoAXUv1ZHxVNJPDtyrfp59Qk4/wS5LawfRMKmvc3iERSJiEpvqjdr22BHhRMHGmmQg+GsOkYlinrYI2wbGrH83+9dWCoN7iPwGN5HcmRo/dBqO48W1woWTpZJY6+d76p26716bvMBTfxDvhDbgK+CamYENtw8W1Hv1mLbE3Ciadf8lrf7QhHNHR57YfU6r98UV4pCItYsR4PKP4rpUulWRIiMRhM9r9f6LMYrpQ7YvavXHBgHlMAbtPvWXRhZ9fJcpd0giR3cxJmes4hg/VSZAdt1PWpe8DE26RG4yH6fV36YE5BZKKDwEgU/p8+Ehwbhz55DsO3Pq0/pggofpy/bT2pkSrUXe/6CFU9kwCdTslMLtyRRPlFifDPA+/Z/dbUUNRyFiB9P/Rc+YbondieTVa3LqvzIhMLrT5C6DdQqj+CYT7CKBTPIw8kP4GdEsPRq8iDjXZjgwBN6TUy/1CEvu1EMMsAG9Ko+nh1IwzzLLsOc06b2e+ikvGrJHcIKL7wRa/XE4kuG+xutvMRITC1vv1GuyPN6RV2/2JDjXxuKod+bVr2WQau4Rwlu8A0EBYrp/IE+QKYaUsTr7u4xM3Os99X5P/UZSJ6fW0mHAJk/Nhzycn7hGYFTiG+f1O7JQNsX3afXbCagdEjRAl40yvibPlUdcI6yYmytuefLqdxJ4h1keNzAVMP6pBBpsTfbAfGte/z1bDVvyISpyAX9Qfc4zTwwCcynE0Ui9ILeJVjERG3Fb2BoIW//LO1ID+PN5rky4HWJFWivhX2ArGUgtIv+B3BRDEaOfQcFX1PNzYoUn29sBc7YfiWw+mlf/yWMLpV28uAT8KU/9kQPHbpKAP+sh5t0he7EgWirqXXn1x/CRuW6m+w946AxbOC7lmz31J4ycMx6+1Dbug3pPXv2lZzUT/TFKzHge1HhKW2J12jZYnZq/9+VxjKYWat2CFfU33mCyRdyc8HiW9nvz6m+hzS0PYs++tYgImujPWP+mCNkD6+VwGWeF81mjjMXZbDrcJFYUqQ/l1T+aUZgZNEP5WF79F5zmXRyt5IMY38cdWgxyH8D4fvU/EQgKxEVXREdMo+IeITcIt/v7o9lcBQO/T700t4ewjaa9xVM/Zn8X28J0yawrL9dno9ujCBW9C0v92kQ+26I8DhxG3Lm6QGVYSEstyzNYxX+tYjeQRxO601yTlxYC78VAr24/xpXrNlwu79Ck2EugBfO16NVm+6x9AbJgyqVi+YwDLBqAeU+3hBuL02xcbeupewtMC4GZIU4OgUOtI2MNU0D296r4fasJNsJhZHlgQaaJhRaGUdM2s+UF22/FbT9zxxCP6cGqcKSWZxKYaGO0yXqZB4Wi3enPLN7naT1f6VNzCKnzRlfS543xAqu4FZLS+AA0jtT6VEEkJydB+ywBfg4yOGLgEsNhMT7oqdzGHEQ9ul4N5OkM8lZH37Np+TjvWls+Zp0+K/NSYLVRsQ/EcvHLuPh5Wt4+LktbFSzAPUaLH67Ld6IzUPvqa3EeGL/4WpoHJ0/DljeqQbVUE+Wyr+4qxY68HlqJn+kdTx7NnUg+SCxdGSZ6R8d8ch7H9H4R0qkUyfJxaVqXXYR2aXKXl5rtCgDpMBHhFQ7oWibwKx3c9JhAr3JQ20ECvtp8S67R6ckXiPx2p+pLf9dYUZabXXmNmpmla+vV9F3kdfL4MS5cLzWJIG+QqqT0MPM8MHnFeKMpxq8FbzIlw0an2mxI9zenzwwfbmrdi8dH1I6+aXyUPP9KO3pMrLuy6SY7crpKPpxZJVkUn3qWSrIYgLJ82QmT9SLYgO5TXpmc3VVpmKH9UWjP1flUCFFW9Qxnale9LS/03FLuCFVO6GwnnMezu2FK8uOQfEg8HyQhPxzAVfro9yLS4nqBniH7yYvIOhwfhJRkBBAz6RXNxtxyHYCWIfVpSF1U71OZktlzFcKZRa3Owl2z+8gzO/P8TpVq9kPrjljWC0g7+1zSWabepzLtTICEXOKeYjz2hXHfeEr2GepnwOCUiw1vMGNmXnMzYqmce9l3v+Cp/AExDFP4oqcKu/sRu62UvuSpBUu6k6B7eib5Wjg+R/QfG2sRNmIKHt72DP+RjSCtrSck2TAm+BkVYS6CqVkHavUIVK+SDUQksQuRmn2c2LGfjNMOLxvI0PEPHObk7xAtQRfZEHIQUfeYlY8KZx7MtMNt5RXGyMhuBrCPVwGvrIPnTnY3h+Fq3/4uv2HFm9vKNm8kDb+KSLOv6wvlS+OpfGqsVdZYa/kVT7taYT/pBebT/j3YgPlqY91vV7Eu1VrN2hRbkZvrIX35o7x8PAS3GP8FZWCZb5jCA3mVG4Xn+luHbnfvhOnjkfwczYoIZ9kKeWyHTzwIWfdHlhaEjz4azO+ZOXLNq9K2MJNJfV5OLWQFtLg3lQdpnHsMrQhvWi1luVye48WCvZwEVGwe2zWDdVt4lbY/eLEllH2ucUcYkN+Ime9UGbGT6PgXWoiY7aBR9nvysykA861bRxhFn1mucnYwxRWth+6AJj8/dNAX5LRXzYDniUBjJjy9MKfk5IrcvgFyRzCVl32OruAXn1K+fy78auuu+XLcxdGwHxZ1XyhV5udrpFqG3fMrqJL9JYNX7LAJrvsVtAoU+d5q0LN/8UOq8Wi6bJHSUzcLd8+m5wPNKue+NcuS7TbKxY5P1r5Alg2MgmebpQZr7vctNr/BaR41MiAXL25YvcudNSWZDoJkSfTYimaxWJaNlU5U4Itv1jHTms5vha3fiSNngL3Ar+GYmFrnpZMrwKpIynm/2c64O+TsNJnKyR899/CyTQbWZ2gkni1ZN8RsO2GSNbTnQG402TZDMMwwXppTueGWoZm31CP14zldiEzX4aBpYNSyjDr2/Q5rYHEHXQG4hJlis+PKd7LLlseUaFlBeABzVyHqss49LT8ot6vmU3Cq3JJJ0+4LaV45EBOZO13cKCY4eYkwkBZOB0bGC8bzvUtAi617OusGuLQmJnY5MOBjwdmqcW5XzjTl+Tq54+1uIJATpaL51t9Jjk7yIWGzEE9V5QRBvM7PBJkxiPZdelxZQWviSnYkEmNRi0TB5APHD/kUlsnac0DkZE2irFqvg/WoEa0RwhjNEVk0D2qb+4QA7A3Wa3PMEPsNHo9IP37uKL8iCBv7hHamlPKltIHKGy/UrBTVbaQFnRwV2I56NftJvpzlYWxPK96xEVlD5g0YhkgOfFjQgjp2CRbYVCXOkRzqOSkzwDfm1PJgHvQm9GoeJBLFUDyQU/nB5P4xGyZOXdJZAR2MkEU43jpMoQsiHsQ8nTVtdLSgFuWh+zQy/De3a9Sjc0uVdFeRCjswPc+A8KSl1oxVFYwyIA7lxBWLRycCjCGe8aPu6jaNgcmt+0WqyeWDS0lDxV/5VjXz5T7dNh/AxEuYR/NstbLVeBvZaictLHTdfpwbFOXfneTTH0ULZhww9QpD2fs0s0XjN6NGtiJSb8vp+d/hRUwszql8yWkXZGcEEXAhoewbKt7iMO2hA5jLcvaeBDR3K47aJhWZS/Ec200nDZTiBl4UJy0Qv0YDpIF4ajhStFvYlYjIOqF4QJQXE9423AGiY9xN5pqBv4fNuTwZE+yBSH9UNFzIztl3OYRA5MAhyG6f/n69aFCUd1PKhrhPLE3EmcI6oKoNvNwEkh0ll9Ps0AbnbpVPcYR7O6DMKANzxXnkDYD8Dlkuwak3ZNryK94YYl80LElYZnTJcPryxWH5Y2mH7O9ciBOv2poSbaSzFcvvKhfRUq+W9XHWz7RvEdyK21QnZkbGscSNSE7OwzbEvKnX5tUpM2FOmO/21GWQc9236X1mY2Ixx1ygYSLH3emoOm6E93N4AnTFPGn1lpy6ch5kVjezd5XpLDg/3OtMRMTI9+oEVDos7pqzwbK6BhHaOSd8mNfXJsVUR96a09cdYdVKIcPr9UcQqrGqH4SJ5yZx8hvmuQ3ANIfeh83Dk6PvjfNw8M8Y5+ymRDkDMOQirWUeSxB6chs6EfDMTxzSn5ziubjVVgnNmxdVOOPfE//4iw3iTAO/hDhEg/BRrWZsmb671Ly7h6tH3msFd5Dk2FE75XWJYVDKw5WjypI6Hx7KPh+pgmZ5GKjr6x1YnXWYtu95PW/f/OzNvOtnsF4dKcGjtZx0lf2bIM3WPb1KV2xc7MpZZLFB0ljv2nI46KLJ1QF0vQRUOkyAuW2CyGeMEPOR7ejdOc6bMapFrCLLU2JiHDQmYOGLPvusvULxTrgxRNOtrsl5s+EM1aSnWfxw2Fbk75cXAOhcYccGlrFhoRDqIBHqFxP8qjxCdq+Nl7ZZt2hlFibe2wGrRe7sjnHbem6Iusr+RnkFwWcm/rjpYcNacCOAE2iMeyLi5fbNqIDKgRktClwgVUAcKkBMxw4oV2PesBXJmxVvad+MTceDFs8mZo1weJaV/CXHV7jE+BbmMc86uR0VUCzFpQ3Ykbs4fKat/vigH8l1V+geg7L17HHdOXJsswg9U66EsmBNVNo2WrNamK/L36Vhu9yy0eUnKm3rDdHaZKtvxrOpvAw4YPNktduvqg2OUrSU1s3DnTaGleaLnMe5SThP1AAcDvl7Zv1CNThiW8yzIqi4u9nE9HodJp6lhR9+wIKSuwPzixxyrl+9M5lxETFzRS/iIOfysQ1IGtvZLExsyWF9IwLMszVA1djUTcauLu+alTD8e5xLZ9WB/GKnkPQZpBataBra3s1PZXGoV3Eu0cXOZG93gou3RaRfNBJ+sHUZawgMhZuHGUqo3tRd7sVwsaj42JytLsGEVGYZsfH7fz0jkLIW5QgzQhd82NlgSUwCcavK3NCds2x6BYvesGiQHUYtpE+XoqVJIRBFBpJDjySUIfsZwSqd7xue5TGycSMiWa/oEl4aexDTMgikR+zsJn6UY78i/bhpjtRHCAp0kq0rcTOxvel1kGr7BILMjZJGFMbdF842iUHZ0WCDJ7grprNP4EiPw/uTgneRMlREGXLkYrUBgtIMo3WLWR03wvuPDAHtGSTMfVICN3FwYiaClutzobpYTcGxqBFzJCXTiz7abcxeMEcH7qKYTgacNz8kVp9jvxBrWzbLGnWJ5le/sxduNZgfn8gUu7I5YQVxC0QXxXlaM68D/NBv2F7KQdymbYa4iXEFKljNaZnL/z5RMSKc264NisYwyuFoRPy5KpCFBMLZ3EAW5+e0ZYaqcvJJda4JzIlRFbnRsFlCGfV6lasBKXjzTVkL5kENktkzVBCYPFI9x5zKjwLYIWNlxfgGMjlEleVXldiAyDAWS1yP+tEsVjpLXX0KpboYHECGu+rPc7bMks+j9ljNhH5uc14P46VQ5TwrH7v0IoOfWNlcPDT7k2qm6+KuhaNLMBokHDmijolIfZED1xyTxvgTz043F+4/Y2qrIktLknWwQKNEXpH6Qk4vUkcUy35dhTAeioDJQeDsd2xlHVv2NuRclQa75LAjZ4dwUCZQgwbQZD3El9wM+zOmlPXvSzTPBOZUibuppKS7+AN0Kgx5j4zoGZ4R5yKaHxOFU8+5ogSoJfrzbJa4bNv2pFKQvdjs2e9nNe/CZ6g+kFPpYlD36aXJJh0dME6M3fIgxE8IG5bmMWwB5sFsoZH6YE6vWBHH2yaX+zn5Jq2z9U07ydxG5fQJuprC7Yo6aeYsxlm3hoCVcGoO3rrERkfz++T84lBi8hWRLCb18j1KqdJE6ks5fcVWZpb+iXPLwdx8fDmnrmLZn50SfUN2V8sXplc5PQTMNkqk1TUZkxSbNi6DcvraGRPsTNFncuo6KQaJFD+bU9cnk1I0W0fARN2wPdnaj5rjDsiuLYeQnWT+v5Lj6BEPL0h3tKKhWhGOP5rTNx0ML7GtfTynb94aDZkexLSiHm66goq8y0DP7lOPuBRl2Ssz1D+W049MBI4YpLE/CsUht11hKqBqJ1L3x5PxoShRNwYZr4kc9hKrwwEssszhAQRoDqG5/t7OXfvh9DATMZ47bzQ6hIC48uR22/zVON2qdddMUAgXbY4CViViJxf/uUGv9Mnpaw8DhjnZjKl/DcMktZb7KJl4T2+O0HMTOXRWh3Vk5wRfkdEzi4QwzNKxvrZMorsHW8JJsHdKmLIZ8Ha4a22/vc5CczkZADfF3IycyGdR5emoJC5LAW9UrsIWCaih9m3WFfIeBEA7YDOw3T3TeDEC1JUPLXIoqad3aViqlAUaiIKDROfSgBwW4BtTZusPZpM9jhqQSJyXaWOyy7nGjt+bszLDqCwrgRCntCBQ41pYhuZxxymVFxLUKRvFLE0n/cEWTHFLOYe9NS/359FiBq9T9fy8uLyuH/WiPDY7tgutLNheXKoX5NVCHcLIQnmPFiz0Rme78jAPJmOcTacV6p2eNmodl/+ZcPtQaAtDl1wGX82pRxgNUi/UekFypX6ErbLb2c1yB9cfOau52N/aggWVV0uRxFEDfE9bsxyXO8LqM9WxuFzGmaAzA36WWjHv2WC7oI6brNNYAkGmuJqcrU/ajlv9wxGiBnAqmls0crn89Zy+LDP4ZEn8S05dvg2lDXtqZRhXGOpVFI1VxnZ12NyfRSKK8dYIi0+cSvZIdOFKg9hC7MbSXIWmEFvDno7YWkfd8UCs1dZ59ZK8vsaA2mEGdO1mrBeRenFeXzcNt6zpDMLv3Q/ROBdgX1TXm35KU9RwB/ecKMIqDNuh32DqfMJI3A2I3N7iqYftyQHicLxVZB4xRqDdmHzugZvS0Jyx5AvNN+Hnzg7lEWfVXmzWYIkRPHxrNNzblN9kJca9HZ7jXy7p8/qRcIcknQWJ7PS/NK8ehf/VDvcw6QipbOcSYo/2L4Fuz19uMo7Yo6M1yc27JxpnYQl2RqMtjGujvM7LR1qL8nQ+0zXH23MMnKmKv1AGycpwe7u8sy8RopWUFJZCa+tPLihvYD9T16CaRYOPYVzmqlDK27zT7IItVRkkywiVZPgLW0I9Kppf6iKYzg56IiC6WNwk8CmKhqTWhyy86dbOIV3opb2LYcuXQl5jQDKTx/YuDV+R8cULw1sYM4R4hJC024EsZsbo5BCpl+d1Tool6U/Q8puSa5keGvMUCnuXgi6043e+RieV5/7kX6VHYjY4Ff/tbJ2gVmQ5esTRyK/b2IyexpWGzivzeJZ9u4ULtgGqlRIX235RNku1WmsWZUvVQUf++B45r1irFs21nrn6JCNfamz7gfsr44W6ubhdyD46WLSPkuSxAaUluaeL3yksVxsbUBSsYzEr7dAe/1OWlr4xSwkntu9Ctu+Fub4Xs30vxR0Wx/aCjyuzh3gQsKK8babclTj4cJfTj+RiIm8cZAt/tiqEF/amWGmWtgW9nr1k113jqzfm2Yjdg1oLeZArrm1WdiAW24LelFfL0rGM3kJeRbTfT+gmUX11pbzcS66q3R+EtkXNhMif9bTvxOw9obk+d3+dvlIVfSGX9+/qFmsyn4VGk6t8KVFY4PJe/ty9EfliUuhx1x2jLK21fVSwbSooL2fLWcRj9u+orZgpOk4vJCfs5FVXhZuTtGrYvwh8Cn7N9/R6tWbzjHmNcFnDd1+mvbwKF+1uZ10wr0glgpKHSSERz+vySn5v4cDF6bl92XjNRUGi9PV4Zkzcm1m297ngpAsDHFw4A4/UG/Lpg7jVeN5oTSQRv5izDi11P1oVXZF8QkVmE1fTkJH7FD0AYJT71WDB5LzGvwaPJW4ahOZNPK2HYiH12NpGPLS5pzIJvhDZkH64IdMM2WzXb8kwniL41OIBy9d2xDGA+EEGZ24A5pm1UtfIHzkMCOj7ojPm7Yu5brB30QQW5h9ieua5Y/rgMLdmVmheqMgLJMEpmI+lmiKlhWBd/oy6K9n16gpLKE3TfIFy2eZ6sS04Zr8TmZRXXDk2DMfTB5Luk5DOHthvQiYvLU+Zons9eVmtmn0reflFjymvkMch5vlCBnhlCkyu6K8yZFFtYjGsTxn01WVEjk8x619ocd23Le8dVe6sL59KViyYdpP5QKDDpmB79rVGf7TBnsd5xOkjrpuW5xTygw1Viy+ni+1OtWxGp+WvxdMhWa9R3CDJFd1Xp/Pr8vepCuu38e/C+u38u7h+B/8urcvfpFpev5N/j61L1EDmayW5GT++2uSyXHInsD5YmYDsScE5tS7Qy9gKSC6fu1i/wjyUurIr/15V9xtd0qtr8kf6rqkI7NpKh3+vq8iIr1+trnUNjRvIlYstN4CH1TnRkd6I6SK5SQz4zX6dfx8uymBk/4igjmKReaRw9ShmXOg8+i7+eUxlVVo/tlgqCZuPc09UHt+Wnr+pLQP4ZrctPEH+8jPpt5SxQ6RPZOJIvjUomr8f+aQzJeHz2zC4JLcERkC3ymBuE8DtMrg73N8ifHLJ/CnCO0sVmZmnBC1jKZ9qWHjaWZM8vVUtd+yAvz1odtvmg4zPqNZlPN9BHEdG+MxaseTLuL6z2miZvzz9rFK30zFyKdq3R+RKwr972MAC7cSTVyFvZejLaipipsmvNrsdS2uNa0Bst5nJ9To4wlZ1terXKvYj76dr/pp943VGVLgtvwhSz47VrWGvFu8otlrmfs92dXOp2MASkCsTbGzVfKadrkXmFWcvqo1VIeC7Qa66CV5DU+Vb5JbOOoEsm6sGfrFt/nLn6eyzrBOpuj+c5d6tNxJdfTQhAaIAjtJjKlV5Pd40PDyukn6h/PGxoJ4oLe0q/lY7AU9y4rxFUrRJ+LwVx0u4uI2dTHp9Mhqf/fD9U9rNsyRPJYkJP4280DZcPb0jT+PIPLODU1MyulVMplOX1/3yGW5syXvy4euybzQ6hzESjcrDdNdxUojzmTYLMUxMsIh3MZn9pXiebZ/LMcaxoNzmsthCV8wHRCV3MmhVGwlfp+Ca5HISlNgo4xWiTbbXKztt35deyV/FfJeaFn61jID0GpGfBV0rDJJeJ6nt83rDSSysG+hC0Mk+TMiS3iipI3WTSA0/hmypyA234J2pNWW2avVi+66uaVG37wzJoWd1M56mwa5Uixa5leTusopl2Ttur8bJXTZnwh6RWqJHuil5VIWV52CP9eutdWyr9PhNq74JrH8z9ssu7CewfPy2+Su531JtBLBhW31bvNpuF302mwaFO4PYnn07NobJsQ/nnoGl4SYnLn4HLUXc3ynjI31WfBJoi6ahxb1bKQRx4TYKnbhwO4VuXLiDwkZceDIFo6pSuJPC3VIwPN6TWP57ZQ+xU/dd6Q7z3bJ+3dKm+D0yjX7Pyeo+/IA1Y0x69SM/UPP0IBqU5WfN5kOU5suw5khqHa8QF0UcmAdxYLJVPnBcl+TTsdsClwOohKvqE85bQ8JVR4/+ubJ46y33azTluT9OoNI/TkBBVwh6irM4j5zDDBbLYj0u8TcNKHnlS/46jsihtZDK/MCkk/4deG0yApEaAF4R85r8xi09lRTmTiUR9e65MG7fkXPJcOzyBaKEBrE4nfYdoRVdmOtBnDzjbsrft0gOWKgfs09Gx+6UVzVTmrM18eO5/EW08CRnQu4D+LcHpsf340HOoZmfNaaz+mFm9aJ6n0qm1uvHQIbp6H0Qeut9IkGZX0nG6LEm7GTr5Yt3F7XIMPARGPCJ9hj31oUgw7hMA7mh+AQ40bi/F+1wy6A+zvnBTzAcGIrbEsWyyGm1EKAuMukns1X0Y2T1KWQ16tvf06Z0O1KVPRzjaQd4pn7H2EjdxYiQeklYOxfcE1j7m8fEd3rFljgehWbDPA5i1igtyJYdFDd88otFqV8KrJK2OICEHGb6yFpmG+oEF0BQ0pF55W2K2p/7zB5zy6bvU4EXYLyB+LPPlqCVZ54w2Uje7p9Seua+U2FK3HbZUgPJMXwJxMPAp4nPlh8iXgY1GyCRiR5jDiQm47HEM5HEpo1FbaqcieVVJdAisbiHDjzm40NOddDkKG/zci8kvz6H1fSHThQ486OMtpjBea9GcBKKk2PhhtQL10X5AwG6MMNBR4fH0h3TTFBb1upu/wJJfhCa351uGAVfVoVLU7HV2nOkDkyR69gE2x1Fkx/u7BG05F5tuGcuEO+P39vkhlwqEORm1NiHcLYlj3MKBxd1xUVnXi8k1FfFBJpfi4ZxB4xdTtZYVW+7vzscyfmZKYQL7swIGWZoAvlCXhf2I3NolsPMlv29O2y4PgyFtiWuvcloYCHQlBcJScGON5BessgGQLXgxnmLalsaGMFU12LbABtSoE0klbYuUl9heZuGMSDGVl9m+RpU9c8xjlkO8SajNDeo3B3JdbCJd6YoUOEmSz43aeSlI4YuKNx22LaR+hpBQhGOaYSaR1s73AZtJDJmg2ME6p/oeuo4+ypBgtCS/zpr5v8D+QQAAH2Ve2xURRTGz91Xbbul2AfQ9xZKa6QKUlLU7t2dGwyt0rVNoZoahJaylpclgRZSIPQhUgiCETRQtEn5QyQiYAQia/fuLkQjhi1CgQgRTW2aSiAVS5REIKnfmWXxmhi/5HR+3507c8/MnNkqionMZP9o3/EvrQmdRKFOhU6Pm71svXfW0plzPesWrGtqKX21uGzVnDeKKVlJOWkNxqZSBmVRrqIcscWb8Mdujg60KGRBkIksivWF1fXNb3obm8imPNZKRLFk5waSzXjSTbTVjLdJIZkF5ZLFZK2sa/A6nvm/QcmMicp6DMTHeaSCkTbrK976ptVrMDKGHo6N33I57NwyMLY4Mkln+fTTcp7OitrTCZHJUiidn2Qp2ZRD+YpCpo39Fy9uWrF8+aY7o6PcZeY/WI9CBZRpSWuHm2oppBl4teNqONzRPzZGPQonM/B1rInTocm8kBcbm7xrGutWOSoaV7U45tQ1rqtbS7ZoapGM/nNZu5CFTWlLmArPgbmlFjoGRPj7DCeQelL3uTxPzxEEnc0Iqau9CwQ91O+zagU91PYs0tBIvf98meTxE3vUzUdfkryldIer8tjLkrOrV4o7fzRIdtweEYdrWyX/+FetduuDCsllv3i1+yOReQovezVnw0JB0J++Wu1qrRAE7Zk0TdOW6G4gdeTeEE9VVJcAqeLYBG3BmScFQbb257SB7pWCoGcPDIsrd08IgpYdnymiz7fHDIuQ8oOcpyupXcyeGxIEbesOi5ueQUEQc2bCEzKf4pvnhEKLJS8JbBbFtz2SD2Wdd5+66HzE9n6r5Mrsfvfe0W5B0L6fyrXoc2bbN5H3D7sKNLM/Ms+9U6QVDS+SnH51THTkR77bkkTaroZBQdCZifnab0mRPIfeKteWBiLzs0baiwN3pglVATfnhNTS6j06kNifnL9WnzFdqCZwoq9GfXA/LPvYR4XC+peM3oIwyuitCKOM3oYwiv0KT5F649pnagz42oatuutGjcyF/e6jXapv51b1MXD9hrjQz6aWIJDYf+hYIpLrzrljwYVlewIlSp8KRLETLfpquauqoEePA1+faw50tx2Ufex9O20ufE+PBx9oKNKP3Mt0AYn97HShVhU4AnYw+tT0Hfmyjz36dN/O/EACGHO6PIEuOSf7+tYa3fKrXR8Hfm9kyN181uMGEvv6E87Q9vxPg4lg71Ch61JvmrxT7EurL2FMXy+QOq/bVYs/zQ/EDSV6d2i/+1BVvPtxcF+43Bm4Wy772O/vStMTfWlqEtgTqFE/d3jkHOwLy4p0+JJk8IXjNerU14tknuyxn/7mnDZ/Crjz+jt6XzhcAsTPEtdImxPjevnbtwb3B7/LsQeBlIqIagLCKKOfiDAq6mPOj7onoUX+TjRS7Hcfjaw1DTE4dNBt8qe6gdJHlY4wyugzEEZFfZ4vLpSJlteK9fUCif2mOLm+El5P1eaDwdd6U4NA/G/5R9kIo4w+B2EU+ytffBycdzPF7SD8br097Gw2pfuB5CB5LtjfcmcumPOofFApCGIf1WSEUUY/BWEU+2/nfeLeuG1CMA+ct7fVz+sBEnv+FppH65l/YTSooLUg+ExZ7E0IM4Kf893kO8h3je8U3x2+I3wXuOa5trmGuVb5XZ6H64/rjOuJ64bH8Z5yLfCZ89nyGfJZZSAyEfwO58X7yfvmoMg+TEZMQeQh6G8=(/figma)--&gt;&quot;&gt;&lt;/span&gt;&lt;span style=&quot;&quot;&gt;&lt;/span&gt;" style="rounded=1;whiteSpace=wrap;html=1;strokeColor=#0070F2;strokeWidth=1.5;arcSize=16;fillColor=#ECF8FF;perimeterSpacing=0;absoluteArcSize=1;" parent="-Aj5rOMPWS9pz5DeyN8X-1" vertex="1">
          <mxGeometry x="-1560" y="-2399" width="328.5" height="229" as="geometry" />
        </mxCell>
        <mxCell id="-Aj5rOMPWS9pz5DeyN8X-130" value="&lt;span style=&quot;color: rgb(29, 45, 62); font-family: arial;&quot;&gt;Event Driven&amp;nbsp;Integrations&lt;/span&gt;" style="rounded=1;whiteSpace=wrap;html=1;strokeColor=#0070F2;strokeWidth=1.5;arcSize=16;fillColor=#FFFFFF;perimeterSpacing=0;absoluteArcSize=1;" parent="-Aj5rOMPWS9pz5DeyN8X-1" vertex="1">
          <mxGeometry x="-1437" y="-2354" width="185.5" height="33" as="geometry" />
        </mxCell>
        <mxCell id="-Aj5rOMPWS9pz5DeyN8X-131" value="&lt;font face=&quot;arial&quot; style=&quot;font-size: 16px;&quot;&gt;&lt;b style=&quot;font-size: 16px;&quot;&gt;SAP Integration Suite&lt;/b&gt;&lt;/font&gt;" style="text;html=1;align=left;verticalAlign=middle;resizable=0;points=[];autosize=1;strokeColor=none;fillColor=none;fontSize=12;fontColor=#1d2d3e;fontFamily=Helvetica;" parent="-Aj5rOMPWS9pz5DeyN8X-1" vertex="1">
          <mxGeometry x="-1517.9982898550725" y="-2392.8843217665617" width="190" height="30" as="geometry" />
        </mxCell>
        <mxCell id="-Aj5rOMPWS9pz5DeyN8X-134" value="" style="endArrow=blockThin;html=1;rounded=0;entryX=0.5;entryY=0;entryDx=0;entryDy=0;strokeColor=#475E75;endFill=1;" parent="-Aj5rOMPWS9pz5DeyN8X-1" target="-Aj5rOMPWS9pz5DeyN8X-121" edge="1">
          <mxGeometry width="50" height="50" relative="1" as="geometry">
            <mxPoint x="-1379" y="-2170" as="sourcePoint" />
            <mxPoint x="-1330" y="-2229" as="targetPoint" />
          </mxGeometry>
        </mxCell>
        <mxCell id="-Aj5rOMPWS9pz5DeyN8X-143" value="" style="ellipse;whiteSpace=wrap;html=1;aspect=fixed;strokeColor=#d79b00;fillColor=#ffe6cc;" parent="-Aj5rOMPWS9pz5DeyN8X-1" vertex="1">
          <mxGeometry x="-1148" y="-1683" width="16" height="16" as="geometry" />
        </mxCell>
        <mxCell id="-Aj5rOMPWS9pz5DeyN8X-144" value="&lt;div style=&quot;font-size: 10px; line-height: 100%;&quot;&gt;&lt;span style=&quot;font-family: arial; font-size: 10px; background-color: initial;&quot;&gt;&lt;font style=&quot;font-size: 10px;&quot;&gt;Eventing&lt;/font&gt;&lt;/span&gt;&lt;/div&gt;" style="text;html=1;align=left;verticalAlign=middle;resizable=0;points=[];autosize=1;strokeColor=none;fillColor=none;fontSize=10;fontColor=#1D2D3E;fontFamily=Helvetica;labelPosition=center;verticalLabelPosition=middle;" parent="-Aj5rOMPWS9pz5DeyN8X-1" vertex="1">
          <mxGeometry x="-1129.13" y="-1683" width="60" height="20" as="geometry" />
        </mxCell>
        <mxCell id="-Aj5rOMPWS9pz5DeyN8X-151" value="" style="edgeStyle=elbowEdgeStyle;elbow=horizontal;endArrow=blockThin;html=1;curved=0;rounded=0;endSize=8;startSize=8;fillColor=#ffe6cc;strokeColor=#d79b00;endFill=1;" parent="-Aj5rOMPWS9pz5DeyN8X-1" edge="1">
          <mxGeometry width="50" height="50" relative="1" as="geometry">
            <mxPoint x="-1520" y="-2240" as="sourcePoint" />
            <mxPoint x="-1690" y="-2053" as="targetPoint" />
            <Array as="points">
              <mxPoint x="-1620" y="-2148" />
              <mxPoint x="-1515" y="-2058" />
              <mxPoint x="-1515" y="-2068" />
              <mxPoint x="-1640" y="-2198" />
            </Array>
          </mxGeometry>
        </mxCell>
        <mxCell id="-Aj5rOMPWS9pz5DeyN8X-153" value="" style="shape=image;verticalLabelPosition=bottom;labelBackgroundColor=default;verticalAlign=top;aspect=fixed;imageAspect=0;image=data:image/svg+xml,PHN2ZyB4bWxucz0iaHR0cDovL3d3dy53My5vcmcvMjAwMC9zdmciIGZpbGw9Im5vbmUiIHZpZXdCb3g9IjAgMCAxNiAxNiIgaGVpZ2h0PSIxNiIgd2lkdGg9IjE2Ij4mI3hhOzxjaXJjbGUgc3Ryb2tlLXdpZHRoPSIwLjI4NTcwOCIgc3Ryb2tlPSIjRDVEQUREIiBmaWxsPSJ1cmwoI3BhaW50MF9saW5lYXJfMzUxNF80MDI2OCkiIHI9IjcuODU2OTYiIGN5PSI3Ljk5NzYyIiBjeD0iNy45OTg4NCIvPiYjeGE7PGcgY2xpcC1wYXRoPSJ1cmwoI2NsaXAwXzM1MTRfNDAyNjgpIj4mI3hhOzxwYXRoIGZpbGw9InVybCgjcGFpbnQxX2xpbmVhcl8zNTE0XzQwMjY4KSIgZD0iTTcuOTQ5NTggMi44OTc3MUM2LjQyNzE1IDIuODk3NzEgNS4yNzc5NSAzLjk2MDAxIDQuOTEzNDkgNS4yMDYwOEM0LjUxMDcgNS4yOTI5NiA0LjE0MjEzIDUuNDc0NDUgMy44MzI3NyA1Ljc0NTc3QzMuMjc3NDcgNi4yMzI3OSAyLjk5OTAyIDYuOTM0MTMgMi45OTkwMiA3LjY1MzAxQzIuOTk5MDIgOC4zMDY1NCAzLjIwOTcgOC45NjQzNCAzLjcxNDYyIDkuNDU4MDNDNC4xMSA5Ljg0NDYzIDQuNjE1OTMgMTAuMDYyNSA1LjE2OTczIDEwLjEzODZWMTAuMDI0MkM1LjE2OTczIDkuNzIwMzUgNS4yODA2NCA5LjQ0MjM4IDUuNDY0MiA5LjIyODU5QzQuOTYzODYgOS4wNzU2MSA0LjU5OTk2IDguNjEwMTkgNC41OTk5NiA4LjA1OTc3VjcuNzIwNzdDNC41OTk5NiA3LjA0NTg1IDUuMTQ3MDkgNi40OTg3MyA1LjgyMiA2LjQ5ODczSDYuMTU5MTdDNi4xNzEwNyA2LjQ5ODczIDYuMTgyOTMgNi40OTg5IDYuMTk0NzUgNi40OTkyNEM2LjE3NTk3IDYuNDE0MTEgNi4xNjYwOCA2LjMyNTY0IDYuMTY2MDggNi4yMzQ4NlY1Ljg5NTg3QzYuMTY2MDggNS4yMjA5NSA2LjcxMzIgNC42NzM4MyA3LjM4ODExIDQuNjczODNINy43MjUyOUM4LjQwMDIgNC42NzM4MyA4Ljk0NzMzIDUuMjIwOTUgOC45NDczMyA1Ljg5NTg3VjYuMTc4NzdDOS4xNzE0OCA1LjkxNTIxIDkuNTA1NTMgNS43NDgwMSA5Ljg3ODYzIDUuNzQ4MDFIMTAuMjE1OEMxMC44OTA3IDUuNzQ4MDEgMTEuNDM3OCA2LjI5NTEzIDExLjQzNzggNi45NzAwNFY3LjMwOTA0QzExLjQzNzggNy42NjM0OCAxMS4yODY5IDcuOTgyNjggMTEuMDQ1OSA4LjIwNTg5QzExLjIzMTIgOC40MjAxMyAxMS4zNDMzIDguNjk5NDUgMTEuMzQzMyA5LjAwNDk1VjkuNDU4QzExLjM0MzMgOS42MjU1NiAxMS4zMDk2IDkuNzg1MjQgMTEuMjQ4NiA5LjkzMDYzQzEyLjIzNDEgOS41MTg2OSAxMi45OTkgOC41OTgwOSAxMi45OTkgNy4yODcyQzEyLjk5OSA1LjgyNDczIDExLjk3ODYgNC42OTQ1NyAxMC43MTMxIDQuNDQzNDlDMTAuMTQzOCAzLjUxNDMgOS4xODIzIDIuODk3NzEgNy45NDk1OCAyLjg5NzcxWiIvPiYjeGE7PHBhdGggZmlsbD0idXJsKCNwYWludDJfcmFkaWFsXzM1MTRfNDAyNjgpIiBkPSJNNy43MjUzMSA1LjE3MTg4QzguMTI0MDggNS4xNzE4OCA4LjQ0NzM0IDUuNDk1MTQgOC40NDczNCA1Ljg5MzkxVjYuMjMyOTFDOC40NDczNCA2LjQ1NjIxIDguMzQ1OTggNi42NTU4NCA4LjE4Njc1IDYuNzg4MjhMOC4zNTM4NCA3LjQ1MDkzSDguMzc3OTRDOC40NDc3IDcuNDUwOTMgOC41MTMzOSA3LjQ2ODM3IDguNTcwODggNy40OTkxM0w5LjE1NjYzIDcuMjAxOTVWNi45NjgxM0M5LjE1NjYzIDYuNTY5MzYgOS40Nzk5IDYuMjQ2MDkgOS44Nzg2NyA2LjI0NjA5SDEwLjIxNThDMTAuNjE0NiA2LjI0NjA5IDEwLjkzNzkgNi41NjkzNiAxMC45Mzc5IDYuOTY4MTNWNy4zMDcxM0MxMC45Mzc5IDcuNzA1OSAxMC42MTQ2IDguMDI5MTcgMTAuMjE1OCA4LjAyOTE3SDkuODc4NjdDOS42NzE4MyA4LjAyOTE3IDkuNDg1MyA3Ljk0MjE5IDkuMzUzNjYgNy44MDI4Mkw4Ljc4NzQ4IDguMDkwMDhWOC4xNjE2Nkw4Ljc4OTM3IDguMTU4NzhMOS4yMTg0MyA4LjQzOTlDOS4zNDIxNSA4LjM0MDQ5IDkuNDk5MzEgOC4yODEwMSA5LjY3MDM2IDguMjgxMDFIMTAuMTIxNEMxMC41MjAyIDguMjgxMDEgMTAuODQzNCA4LjYwNDI3IDEwLjg0MzQgOS4wMDMwNFY5LjQ1NjA5QzEwLjg0MzQgOS44NTQ4NiAxMC41MjAyIDEwLjE3ODEgMTAuMTIxNCAxMC4xNzgxSDkuNjcwMzZDOS4yNzE1OSAxMC4xNzgxIDguOTQ4MzMgOS44NTQ4NiA4Ljk0ODMzIDkuNDU2MDlWOS4wMTAxM0w4LjU2MTUzIDguNzU2N0M4LjUwNjMxIDguNzg0NDQgOC40NDM5NSA4LjgwMDA2IDguMzc3OTQgOC44MDAwNkg4LjA0NDM1TDcuMzc0ODYgOS42OTkwNEM3LjQyMzY1IDkuNzk2MyA3LjQ1MTExIDkuOTA2MTEgNy40NTExMSAxMC4wMjIzVjEwLjM2MTNDNy40NTExMSAxMC43NjAxIDcuMTI3ODQgMTEuMDgzNCA2LjcyOTA3IDExLjA4MzRINi4zOTE5QzUuOTkzMTMgMTEuMDgzNCA1LjY2OTg2IDEwLjc2MDEgNS42Njk4NiAxMC4zNjEzTDUuNjY5ODYgMTAuMDIyM0M1LjY2OTg2IDkuNjIzNTYgNS45OTMxMyA5LjMwMDI5IDYuMzkxOSA5LjMwMDI5SDYuNzI5MDdDNi43ODEwNyA5LjMwMDI5IDYuODMxNzkgOS4zMDU3OSA2Ljg4MDY3IDkuMzE2MjNMNy40NjM4NiA4LjUzMzEzQzcuNDQ3MzYgOC40ODg3MiA3LjQzODM1IDguNDQwNjcgNy40MzgzNSA4LjM5MDUyVjguMjg0NjZMNi44NDUwMSA4LjI4NDY2QzYuNzQ5OTEgOC41NzIzMyA2LjQ3ODg1IDguNzc5OSA2LjE1OTMxIDguNzc5OUg1LjgyMjE0QzUuNDIzMzcgOC43Nzk5IDUuMTAwMSA4LjQ1NjYzIDUuMTAwMSA4LjA1Nzg2TDUuMTAwMSA3LjcxODg2QzUuMTAwMSA3LjMyMDA5IDUuNDIzMzcgNi45OTY4MyA1LjgyMjE0IDYuOTk2ODNINi4xNTkzMUM2LjUzODE1IDYuOTk2ODMgNi44NDg4NCA3LjI4ODU4IDYuODc4OTYgNy42NTk2Nkw3LjQ5MDg3IDcuNjU5NjZDNy41Mzk3NiA3LjU3MjkzIDcuNjE5MzMgNy41MDU4MSA3LjcxNDg1IDcuNDczMDJMNy41ODQyMSA2Ljk1NDk1SDcuMzg4MTNDNi45ODkzNiA2Ljk1NDk1IDYuNjY2MDkgNi42MzE2OCA2LjY2NjA5IDYuMjMyOTFWNS44OTM5MUM2LjY2NjA5IDUuNDk1MTQgNi45ODkzNiA1LjE3MTg4IDcuMzg4MTMgNS4xNzE4OEg3LjcyNTMxWk03LjgyMjM0IDUuODkzOTFDNy44MjIzNCA1Ljg0MDMyIDcuNzc4OSA1Ljc5Njg4IDcuNzI1MzEgNS43OTY4OEw3LjM4ODEzIDUuNzk2ODdDNy4zMzQ1NCA1Ljc5Njg3IDcuMjkxMDkgNS44NDAzMiA3LjI5MTA5IDUuODkzOTFWNi4yMzI5MUM3LjI5MTA5IDYuMjg2NSA3LjMzNDU0IDYuMzI5OTUgNy4zODgxMyA2LjMyOTk1SDcuNzI1MzFDNy43Nzg5IDYuMzI5OTUgNy44MjIzNCA2LjI4NjUgNy44MjIzNCA2LjIzMjkxVjUuODkzOTFaTTEwLjMxMjkgNi45NjgxM0MxMC4zMTI5IDYuOTE0NTQgMTAuMjY5NCA2Ljg3MTA5IDEwLjIxNTggNi44NzEwOUg5Ljg3ODY3QzkuODI1MDggNi44NzEwOSA5Ljc4MTYzIDYuOTE0NTQgOS43ODE2MyA2Ljk2ODEzVjcuMzA3MTNDOS43ODE2MyA3LjM2MDcyIDkuODI1MDggNy40MDQxNyA5Ljg3ODY3IDcuNDA0MTdIMTAuMjE1OEMxMC4yNjk0IDcuNDA0MTcgMTAuMzEyOSA3LjM2MDcyIDEwLjMxMjkgNy4zMDcxM1Y2Ljk2ODEzWk0xMC4yMTg0IDkuMDAzMDRDMTAuMjE4NCA4Ljk0OTQ1IDEwLjE3NSA4LjkwNjAxIDEwLjEyMTQgOC45MDYwMUg5LjY3MDM2QzkuNjE2NzcgOC45MDYwMSA5LjU3MzMzIDguOTQ5NDUgOS41NzMzMyA5LjAwMzA0VjkuNDU2MDlDOS41NzMzMyA5LjUwOTY4IDkuNjE2NzcgOS41NTMxMyA5LjY3MDM2IDkuNTUzMTNIMTAuMTIxNEMxMC4xNzUgOS41NTMxMyAxMC4yMTg0IDkuNTA5NjggMTAuMjE4NCA5LjQ1NjA5VjkuMDAzMDRaTTYuMTU5MzEgNy42MjE4M0M2LjIxMjkgNy42MjE4MyA2LjI1NjM1IDcuNjY1MjcgNi4yNTYzNSA3LjcxODg2VjguMDU3ODZDNi4yNTYzNSA4LjExMTQ2IDYuMjEyOSA4LjE1NDkgNi4xNTkzMSA4LjE1NDlINS44MjIxNEM1Ljc2ODU0IDguMTU0OSA1LjcyNTEgOC4xMTE0NiA1LjcyNTEgOC4wNTc4NlY3LjcxODg2QzUuNzI1MSA3LjY2NTI3IDUuNzY4NTQgNy42MjE4MyA1LjgyMjE0IDcuNjIxODNINi4xNTkzMVpNNi44MjYxMSAxMC4wMjIzQzYuODI2MTEgOS45Njg3NCA2Ljc4MjY3IDkuOTI1MjkgNi43MjkwNyA5LjkyNTI5SDYuMzkxOUM2LjMzODMxIDkuOTI1MjkgNi4yOTQ4NiA5Ljk2ODc0IDYuMjk0ODYgMTAuMDIyM1YxMC4zNjEzQzYuMjk0ODYgMTAuNDE0OSA2LjMzODMxIDEwLjQ1ODQgNi4zOTE5IDEwLjQ1ODRINi43MjkwN0M2Ljc4MjY3IDEwLjQ1ODQgNi44MjYxMSAxMC40MTQ5IDYuODI2MTEgMTAuMzYxM1YxMC4wMjIzWiIgY2xpcC1ydWxlPSJldmVub2RkIiBmaWxsLXJ1bGU9ImV2ZW5vZGQiLz4mI3hhOzxwYXRoIGZpbGw9InVybCgjcGFpbnQzX3JhZGlhbF8zNTE0XzQwMjY4KSIgZD0iTTQuMjU4NzkgMTAuNTIyN0M0LjUwMDQxIDEwLjUyMjcgNC42OTYyOSAxMC43MTg2IDQuNjk2MjkgMTAuOTYwMlYxMS40NjAyQzQuNjk2MjkgMTEuNzcwOSA0Ljk0ODEzIDEyLjAyMjcgNS4yNTg3OSAxMi4wMjI3SDEwLjc1ODhDMTEuMDY5NCAxMi4wMjI3IDExLjMyMTMgMTEuNzcwOSAxMS4zMjEzIDExLjQ2MDJWMTAuOTYwMkMxMS4zMjEzIDEwLjcxODYgMTEuNTE3MiAxMC41MjI3IDExLjc1ODggMTAuNTIyN0MxMi4wMDA0IDEwLjUyMjcgMTIuMTk2MyAxMC43MTg2IDEyLjE5NjMgMTAuOTYwMlYxMS40NjAyQzEyLjE5NjMgMTIuMjU0MSAxMS41NTI3IDEyLjg5NzcgMTAuNzU4OCAxMi44OTc3SDUuMjU4NzlDNC40NjQ4OCAxMi44OTc3IDMuODIxMjkgMTIuMjU0MSAzLjgyMTI5IDExLjQ2MDJWMTAuOTYwMkMzLjgyMTI5IDEwLjcxODYgNC4wMTcxNiAxMC41MjI3IDQuMjU4NzkgMTAuNTIyN1pNMTAuNTIzNCAxMS42Mzc5QzEwLjczMDUgMTEuNjM3OSAxMC44OTg0IDExLjQ3IDEwLjg5ODQgMTEuMjYyOUMxMC44OTg0IDExLjA1NTggMTAuNzMwNSAxMC44ODc5IDEwLjUyMzQgMTAuODg3OUMxMC4zMTYzIDEwLjg4NzkgMTAuMTQ4NCAxMS4wNTU4IDEwLjE0ODQgMTEuMjYyOUMxMC4xNDg0IDExLjQ3IDEwLjMxNjMgMTEuNjM3OSAxMC41MjM0IDExLjYzNzlaTTkuNzQ5NzQgMTEuMjYyOUM5Ljc0OTc0IDExLjQ3IDkuNTgxODUgMTEuNjM3OSA5LjM3NDc0IDExLjYzNzlDOS4xNjc2MyAxMS42Mzc5IDguOTk5NzQgMTEuNDcgOC45OTk3NCAxMS4yNjI5QzguOTk5NzQgMTEuMDU1OCA5LjE2NzYzIDEwLjg4NzkgOS4zNzQ3NCAxMC44ODc5QzkuNTgxODUgMTAuODg3OSA5Ljc0OTc0IDExLjA1NTggOS43NDk3NCAxMS4yNjI5WiIgY2xpcC1ydWxlPSJldmVub2RkIiBmaWxsLXJ1bGU9ImV2ZW5vZGQiLz4mI3hhOzwvZz4mI3hhOzxkZWZzPiYjeGE7PGxpbmVhckdyYWRpZW50IGdyYWRpZW50VW5pdHM9InVzZXJTcGFjZU9uVXNlIiB5Mj0iMTQuNzQ1NiIgeDI9IjEzLjY4NjkiIHkxPSIyLjI2ODciIHgxPSIxLjQ0OTk1IiBpZD0icGFpbnQwX2xpbmVhcl8zNTE0XzQwMjY4Ij4mI3hhOzxzdG9wIHN0b3AtY29sb3I9IndoaXRlIi8+JiN4YTs8c3RvcCBzdG9wLWNvbG9yPSIjRUFFQ0VFIiBvZmZzZXQ9IjEiLz4mI3hhOzwvbGluZWFyR3JhZGllbnQ+JiN4YTs8bGluZWFyR3JhZGllbnQgZ3JhZGllbnRVbml0cz0idXNlclNwYWNlT25Vc2UiIHkyPSIxMC42MzQ0IiB4Mj0iOS4zMTQ0MSIgeTE9IjMuOTgwNTQiIHgxPSI0LjQ5ODA3IiBpZD0icGFpbnQxX2xpbmVhcl8zNTE0XzQwMjY4Ij4mI3hhOzxzdG9wIHN0b3AtY29sb3I9IiMwMTk1RkYiLz4mI3hhOzxzdG9wIHN0b3AtY29sb3I9IiMxMTQ3RTkiIG9mZnNldD0iMC45OTEwMjgiLz4mI3hhOzwvbGluZWFyR3JhZGllbnQ+JiN4YTs8cmFkaWFsR3JhZGllbnQgZ3JhZGllbnRUcmFuc2Zvcm09InRyYW5zbGF0ZSg2LjAwNDA3IDYuMDYxMTcpIHJvdGF0ZSg0NS4zNTk0KSBzY2FsZSg1Ljc4NzI0IDUuMjczMjgpIiBncmFkaWVudFVuaXRzPSJ1c2VyU3BhY2VPblVzZSIgcj0iMSIgY3k9IjAiIGN4PSIwIiBpZD0icGFpbnQyX3JhZGlhbF8zNTE0XzQwMjY4Ij4mI3hhOzxzdG9wIHN0b3AtY29sb3I9IiMxMzQ4RkYiLz4mI3hhOzxzdG9wIHN0b3AtY29sb3I9IiMwNjIzOEQiIG9mZnNldD0iMSIvPiYjeGE7PC9yYWRpYWxHcmFkaWVudD4mI3hhOzxyYWRpYWxHcmFkaWVudCBncmFkaWVudFRyYW5zZm9ybT0idHJhbnNsYXRlKDUuMTE4MTQgMTAuODgpIHJvdGF0ZSgxNS44MzI0KSBzY2FsZSg2LjA2Mzg0IDIuOTAwNzMpIiBncmFkaWVudFVuaXRzPSJ1c2VyU3BhY2VPblVzZSIgcj0iMSIgY3k9IjAiIGN4PSIwIiBpZD0icGFpbnQzX3JhZGlhbF8zNTE0XzQwMjY4Ij4mI3hhOzxzdG9wIHN0b3AtY29sb3I9IiMxMzQ4RkYiLz4mI3hhOzxzdG9wIHN0b3AtY29sb3I9IiMwNjIzOEQiIG9mZnNldD0iMSIvPiYjeGE7PC9yYWRpYWxHcmFkaWVudD4mI3hhOzxjbGlwUGF0aCBpZD0iY2xpcDBfMzUxNF80MDI2OCI+JiN4YTs8cmVjdCB0cmFuc2Zvcm09InRyYW5zbGF0ZSgyLjk5OTAyIDIuODk3NzEpIiBmaWxsPSJ3aGl0ZSIgaGVpZ2h0PSIxMCIgd2lkdGg9IjEwIi8+JiN4YTs8L2NsaXBQYXRoPiYjeGE7PC9kZWZzPiYjeGE7PC9zdmc+;points=[[0,0,0,0,0],[0,0.25,0,0,0],[0,0.5,0,0,0],[0,0.75,0,0,0],[0.25,0,0,0,0],[0.5,0,0,0,0],[0.75,0,0,0,0],[1,0,0,0,0],[1,0.25,0,0,0],[1,0.5,0,0,0],[1,0.75,0,0,0]];container=0;fontStyle=1;fontSize=12;fontColor=#475E75;fontColor=#475E75;fontColor=#475E75" parent="-Aj5rOMPWS9pz5DeyN8X-1" vertex="1">
          <mxGeometry x="-1550" y="-2392.88" width="32" height="32" as="geometry" />
        </mxCell>
        <mxCell id="OHP15Gqe_fe5QjpGXMBg-51" style="edgeStyle=orthogonalEdgeStyle;rounded=0;orthogonalLoop=1;jettySize=auto;html=1;entryX=0;entryY=0.75;entryDx=0;entryDy=0;" edge="1" parent="-Aj5rOMPWS9pz5DeyN8X-1">
          <mxGeometry relative="1" as="geometry">
            <mxPoint x="-1245.4999999999995" y="-2261.3085714285717" as="sourcePoint" />
            <mxPoint x="-1093.4700000000003" y="-2034.47" as="targetPoint" />
            <Array as="points">
              <mxPoint x="-1180" y="-2261" />
              <mxPoint x="-1180" y="-2170" />
              <mxPoint x="-1130" y="-2170" />
              <mxPoint x="-1130" y="-2034" />
            </Array>
          </mxGeometry>
        </mxCell>
        <mxCell id="OHP15Gqe_fe5QjpGXMBg-52" style="edgeStyle=orthogonalEdgeStyle;rounded=0;orthogonalLoop=1;jettySize=auto;html=1;" edge="1" parent="-Aj5rOMPWS9pz5DeyN8X-1" source="-Aj5rOMPWS9pz5DeyN8X-155">
          <mxGeometry relative="1" as="geometry">
            <mxPoint x="-1299.41" y="-2289.9964705882353" as="sourcePoint" />
            <mxPoint x="-1140" y="-1983" as="targetPoint" />
            <Array as="points">
              <mxPoint x="-1240" y="-2270" />
              <mxPoint x="-1240" y="-1983" />
            </Array>
          </mxGeometry>
        </mxCell>
        <mxCell id="OHP15Gqe_fe5QjpGXMBg-85" value="" style="edgeStyle=orthogonalEdgeStyle;rounded=0;orthogonalLoop=1;jettySize=auto;html=1;" edge="1" parent="-Aj5rOMPWS9pz5DeyN8X-1" source="-Aj5rOMPWS9pz5DeyN8X-155" target="-Aj5rOMPWS9pz5DeyN8X-121">
          <mxGeometry relative="1" as="geometry" />
        </mxCell>
        <mxCell id="-Aj5rOMPWS9pz5DeyN8X-155" value="API Management" style="rounded=1;whiteSpace=wrap;html=1;strokeColor=#0070F2;strokeWidth=1.5;arcSize=16;fillColor=#FFFFFF;perimeterSpacing=0;absoluteArcSize=1;" parent="-Aj5rOMPWS9pz5DeyN8X-1" vertex="1">
          <mxGeometry x="-1433.49" y="-2283" width="187.99" height="33" as="geometry" />
        </mxCell>
        <mxCell id="sTFjBVEcILAEOeCs0xqK-1" value="" style="edgeStyle=orthogonalEdgeStyle;rounded=0;orthogonalLoop=1;jettySize=auto;html=1;" edge="1" parent="-Aj5rOMPWS9pz5DeyN8X-1" source="-Aj5rOMPWS9pz5DeyN8X-170">
          <mxGeometry relative="1" as="geometry">
            <mxPoint x="-1886.75" y="-1890.67" as="targetPoint" />
          </mxGeometry>
        </mxCell>
        <mxCell id="-Aj5rOMPWS9pz5DeyN8X-175" value="" style="endArrow=blockThin;html=1;strokeColor=#475E75;bendable=1;rounded=0;endFill=1;endSize=4;strokeWidth=1.5;startSize=4;startArrow=none;startFill=0;" parent="-Aj5rOMPWS9pz5DeyN8X-1" edge="1">
          <mxGeometry width="50" height="50" relative="1" as="geometry">
            <mxPoint x="-1870" y="-2003" as="sourcePoint" />
            <mxPoint x="-1430" y="-2003" as="targetPoint" />
            <Array as="points" />
          </mxGeometry>
        </mxCell>
        <mxCell id="ZNLiSohyDAu_GED2eyi8-1" value="&lt;b style=&quot;font-style: normal; font-variant-ligatures: normal; font-variant-caps: normal; letter-spacing: normal; orphans: 2; text-align: left; text-indent: 0px; text-transform: none; widows: 2; word-spacing: 0px; -webkit-text-stroke-width: 0px; white-space: nowrap; text-decoration-thickness: initial; text-decoration-style: initial; text-decoration-color: initial; border-color: var(--border-color); color: rgb(0, 112, 242); font-family: arial; font-size: 16px;&quot;&gt;SAP Net Metering Solution Diagram&lt;/b&gt;" style="text;whiteSpace=wrap;html=1;" parent="-Aj5rOMPWS9pz5DeyN8X-1" vertex="1">
          <mxGeometry x="-2326.7200000000003" y="-2481" width="420" height="40" as="geometry" />
        </mxCell>
        <mxCell id="-Aj5rOMPWS9pz5DeyN8X-7" value="&lt;font style=&quot;font-size: 14px;&quot; face=&quot;arial&quot; color=&quot;#5b738b&quot;&gt;&lt;b style=&quot;font-size: 14px;&quot;&gt;NETWORK&lt;/b&gt;&lt;/font&gt;" style="text;html=1;align=center;verticalAlign=middle;resizable=0;points=[];autosize=1;strokeColor=none;fillColor=none;fontSize=14;fontColor=default;fontFamily=Helvetica;" parent="-Aj5rOMPWS9pz5DeyN8X-1" vertex="1">
          <mxGeometry x="-1191.0000000000005" y="-2427.9999999999995" width="90" height="29" as="geometry" />
        </mxCell>
        <mxCell id="-Aj5rOMPWS9pz5DeyN8X-27" value="" style="rounded=1;whiteSpace=wrap;html=1;strokeColor=#0070F2;strokeWidth=1.5;arcSize=16;fillColor=#FFFFFF;perimeterSpacing=0;absoluteArcSize=1;" parent="-Aj5rOMPWS9pz5DeyN8X-1" vertex="1">
          <mxGeometry x="-1104" y="-2217.88" width="193.07" height="90" as="geometry" />
        </mxCell>
        <mxCell id="-Aj5rOMPWS9pz5DeyN8X-29" value="" style="shape=image;verticalLabelPosition=bottom;labelBackgroundColor=default;verticalAlign=top;imageAspect=0;image=data:image/svg+xml,PHN2ZyB4bWxucz0iaHR0cDovL3d3dy53My5vcmcvMjAwMC9zdmciIGZpbGw9Im5vbmUiIHZpZXdCb3g9IjAgMCAxNyAxMiIgaGVpZ2h0PSIxMiIgd2lkdGg9IjE3Ij4mI3hhOzxwYXRoIGZpbGw9InVybCgjcGFpbnQwX2xpbmVhcl83MjRfMTQpIiBkPSJNMTIuMzQ2MSAxMS45OTc0SDMuODE0ODVDMy4zNTY1MiAxMS45OTc0IDIuOTE5MDIgMTEuOTAzNiAyLjUwMjM1IDExLjcxNjJDMi4wODU2OCAxMS41MDc4IDEuNzIxMSAxMS4yMzcgMS40MDg2IDEwLjkwMzZDMS4wOTYxIDEwLjU0OTUgMC44NDYxIDEwLjE0MzIgMC42NTg2IDkuNjg0OTFDMC40OTE5MyA5LjIyNjYxIDAuNDA4NiA4LjczNzAxIDAuNDA4NiA4LjIxNjIxQzAuNDA4NiA3LjcxNjE2IDAuNDkxOTMgNy4yMzY5OSAwLjY1ODYgNi43Nzg2NkMwLjg0NjEgNi4zMjAzMyAxLjA4NTY4IDUuOTI0NDkgMS4zNzczNSA1LjU5MTE2QzEuNjY5MDIgNS4yMzY5OSAyLjAxMjc3IDQuOTY2MTYgMi40MDg2IDQuNzc4NjZDMi44MjUyNyA0LjU3MDMzIDMuMjYyNzcgNC40NjYxNiAzLjcyMTEgNC40NjYxNkMzLjgyNTI3IDMuODQxMTYgNC4wMTI3NyAzLjI1NzgzIDQuMjgzNiAyLjcxNjE2QzQuNTU0NDMgMi4xNTM2NiA0Ljg5ODE4IDEuNjc0NDkgNS4zMTQ4NSAxLjI3ODY2QzUuNzMxNTIgMC44ODI4MzQgNi4yMDAyNyAwLjU3MDMzNCA2LjcyMTEgMC4zNDExNjRDNy4yNjI3NyAwLjExMTk5NCA3LjgyNTI3IC0wLjAwMjU4NjM2IDguNDA4NiAtMC4wMDI1ODYzNkM5LjMwNDQzIC0wLjAwMjU4NjM2IDEwLjEzNzcgMC4yNjgyNDQgMTAuOTA4NiAwLjgwOTkxNEMxMS42Nzk0IDEuMzUxNTggMTIuMjczMSAyLjA4MDc0IDEyLjY4OTggMi45OTc0MUMxMy4yMTA2IDMuMDM5MDggMTMuNzAwMiAzLjE4NDkxIDE0LjE1ODYgMy40MzQ5MUMxNC42MTY5IDMuNjg0OTEgMTUuMDEyOCA0LjAxODI0IDE1LjM0NjEgNC40MzQ5MUMxNS42Nzk1IDQuODMwNzQgMTUuOTM5OCA1LjI4OTA4IDE2LjEyNzMgNS44MDk5MUMxNi4zMTQ4IDYuMzMwNzQgMTYuNDA4NiA2Ljg5MzI0IDE2LjQwODYgNy40OTc0MUMxNi40MDg2IDguMTIyNDEgMTYuMzA0NSA4LjcxNjIxIDE2LjA5NjEgOS4yNzg2MUMxNS44ODc4IDkuODIwMzEgMTUuNTk2MSAxMC4yOTk1IDE1LjIyMTEgMTAuNzE2MkMxNC44NjcgMTEuMTEyIDE0LjQzOTggMTEuNDI0NSAxMy45Mzk4IDExLjY1MzZDMTMuNDM5OCAxMS44ODI4IDEyLjkwODcgMTEuOTk3NCAxMi4zNDYxIDExLjk5NzRaTTMuODE0ODUgNi4wNTk5MUMzLjMxNDg1IDYuMDU5OTEgMi44ODc3NyA2LjI2ODI0IDIuNTMzNiA2LjY4NDkxQzIuMTc5NDMgNy4xMDE1OCAyLjAwMjM1IDcuNjExOTkgMi4wMDIzNSA4LjIxNjIxQzIuMDAyMzUgOC44MjAzMSAyLjE3OTQzIDkuMzQxMjEgMi41MzM2IDkuNzc4NjFDMi44ODc3NyAxMC4xOTUzIDMuMzE0ODUgMTAuNDAzNiAzLjgxNDg1IDEwLjQwMzZIMTIuMzQ2MUMxMy4wMzM3IDEwLjQwMzYgMTMuNjE3IDEwLjEyMjQgMTQuMDk2MSA5LjU1OTkxQzE0LjU3NTMgOC45OTc0MSAxNC44MTQ4IDguMzA5OTEgMTQuODE0OCA3LjQ5NzQxQzE0LjgxNDggNi42NjQwOCAxNC41NzUzIDUuOTY2MTYgMTQuMDk2MSA1LjQwMzY2QzEzLjYxNyA0Ljg0MTE2IDEzLjAzMzcgNC41NTk5MSAxMi4zNDYxIDQuNTU5OTFIMTIuMTI3M0MxMS43NzMxIDQuNTU5OTEgMTEuNTIzMSA0LjM4MjgzIDExLjM3NzMgNC4wMjg2NkMxMS4xMjczIDMuMjk5NDkgMTAuNzMxNSAyLjcxNjE2IDEwLjE4OTggMi4yNzg2NkM5LjY0ODE1IDEuODIwMzMgOS4wNTQ0MyAxLjU5MTE2IDguNDA4NiAxLjU5MTE2QzcuOTcxMSAxLjU5MTE2IDcuNTY0ODUgMS42OTUzMyA3LjE4OTg1IDEuOTAzNjZDNi44MTQ4NSAyLjA5MTE2IDYuNDgxNTIgMi4zNTE1OCA2LjE4OTg1IDIuNjg0OTFDNS45MTkwMiAyLjk5NzQxIDUuNzAwMjcgMy4zODI4MyA1LjUzMzYgMy44NDExNkM1LjM2NjkzIDQuMjc4NjYgNS4yODM2IDQuNzQ3NDEgNS4yODM2IDUuMjQ3NDFDNS4yODM2IDUuNDc2NTggNS4yMDAyNyA1LjY3NDQ5IDUuMDMzNiA1Ljg0MTE2QzQuODg3NzcgNS45ODY5OSA0LjcwMDI3IDYuMDU5OTEgNC40NzExIDYuMDU5OTFIMy44MTQ4NVoiLz4mI3hhOzxkZWZzPiYjeGE7PGxpbmVhckdyYWRpZW50IGdyYWRpZW50VW5pdHM9InVzZXJTcGFjZU9uVXNlIiB5Mj0iMTAuMzM3MyIgeDI9IjE0LjI2MDIiIHkxPSIxLjEyNjIzIiB4MT0iMi40NzY0NiIgaWQ9InBhaW50MF9saW5lYXJfNzI0XzE0Ij4mI3hhOzxzdG9wIHN0b3AtY29sb3I9IiMyMzk1RkYiLz4mI3hhOzxzdG9wIHN0b3AtY29sb3I9IiMwMDU3RDIiIG9mZnNldD0iMSIvPiYjeGE7PC9saW5lYXJHcmFkaWVudD4mI3hhOzwvZGVmcz4mI3hhOzwvc3ZnPg==;strokeWidth=1.5;aspect=fixed;" parent="-Aj5rOMPWS9pz5DeyN8X-1" vertex="1">
          <mxGeometry x="-1090.9269160567749" y="-2193.1265112873903" width="27.76320130228494" height="17.738702546352773" as="geometry" />
        </mxCell>
        <mxCell id="-Aj5rOMPWS9pz5DeyN8X-28" value="&lt;font size=&quot;3&quot; face=&quot;arial&quot;&gt;&lt;b&gt;Billing API&lt;/b&gt;&lt;/font&gt;" style="text;html=1;align=left;verticalAlign=middle;resizable=0;points=[];autosize=1;strokeColor=none;fillColor=none;fontSize=12;fontColor=#1d2d3e;fontFamily=Helvetica;" parent="-Aj5rOMPWS9pz5DeyN8X-1" vertex="1">
          <mxGeometry x="-1051.9281262991988" y="-2191.756075284164" width="100" height="30" as="geometry" />
        </mxCell>
        <mxCell id="-Aj5rOMPWS9pz5DeyN8X-40" value="" style="endArrow=none;html=1;strokeColor=#5B738B;bendable=1;rounded=1;endFill=0;endSize=3;strokeWidth=3;jumpStyle=gap;" parent="-Aj5rOMPWS9pz5DeyN8X-1" edge="1">
          <mxGeometry width="50" height="50" relative="1" as="geometry">
            <mxPoint x="-1192.18" y="-2426.88" as="sourcePoint" />
            <mxPoint x="-1191.68" y="-1745.88" as="targetPoint" />
            <Array as="points" />
          </mxGeometry>
        </mxCell>
        <mxCell id="QtfqXHgJTDFYUFJRv9R8-0" value="Identity&#xa;Directory" style="shape=image;verticalLabelPosition=bottom;labelBackgroundColor=none;verticalAlign=top;aspect=fixed;imageAspect=0;image=data:image/svg+xml,PHN2ZyB4bWxucz0iaHR0cDovL3d3dy53My5vcmcvMjAwMC9zdmciIGZpbGw9Im5vbmUiIHZpZXdCb3g9IjAgMCAxNiAxNiIgaGVpZ2h0PSIxNiIgd2lkdGg9IjE2Ij4mI3hhOzxjaXJjbGUgc3Ryb2tlLXdpZHRoPSIwLjI4NTcwOCIgc3Ryb2tlPSIjRDVEQUREIiBmaWxsPSJ1cmwoI3BhaW50MF9saW5lYXJfMzg5MF8yMTUyMCkiIHI9IjcuODU2OTYiIGN5PSI3Ljk5Nzg2IiBjeD0iNy45OTY4OSIvPiYjeGE7PGcgY2xpcC1wYXRoPSJ1cmwoI2NsaXAwXzM4OTBfMjE1MjApIj4mI3hhOzxwYXRoIGZpbGw9InVybCgjcGFpbnQxX2xpbmVhcl8zODkwXzIxNTIwKSIgZD0iTTQuNjg1NDQgMy43MTg5N0M0LjQxMzUxIDMuODI2NjkgNC4xNTU0IDMuOTczMiAzLjk1NjYzIDQuMTc1NkMzLjgyNjY3IDQuMzA3OTQgMy41OTcxNyA0LjU2MzU2IDMuNTk3MTcgNS4wNDU5NVY5LjcyMzMyQzMuNTk3NSAxMC41NDAyIDQuMjAwMzUgMTAuOTgxNSA0LjczNTk3IDExLjIwMDJDNS4zMDI3NCAxMS40MzE3IDYuMDIyOTMgMTEuNTIyNSA2LjcwOTUxIDExLjUyM0M2Ljc5OTU3IDExLjUyMyA2LjkzOTA4IDExLjUwNiA3LjA4NDQzIDExLjQ4NTRDNy4zNjE3MiAxMS40NDYzIDcuNTc1MjkgMTEuMjAzMiA3LjU3NTI5IDEwLjkyMzFDNy41NzUyOSAxMC42MDU2IDcuMzAzODEgMTAuMzcyOSA2Ljk4ODk1IDEwLjQxNDNDNi44ODA4MSAxMC40Mjg1IDYuNzgxMzIgMTAuNDM4NyA2LjcxMDEgMTAuNDM4N0M2LjA3OTEgMTAuNDM4MiA1LjQ4Mzc0IDEwLjM1MjIgNS4wNjQzNyAxMC4xODA5QzQuNjEzOTggOS45OTcwMiA0LjU2MDI3IDkuODA5OSA0LjU2MDI3IDkuNzIyNjVMNC41NTk3MyA5LjA1NzI2QzQuNzMyNzYgOS4xMTYxOCA0LjkxNDMzIDkuMTY0NTUgNS4wOTc4IDkuMjA0MTZDNS41OTkyMiA5LjMxMjQxIDYuMTY3NTkgOS4zNjYwNyA2LjcyODkxIDkuMzY3MzlDNi44MjA0MyA5LjM2NzYxIDYuODk5MTkgOS4zNjkwMSA2Ljk5MDcyIDkuMzY2NDJDNy4xNzE2OSA5LjM2MTMxIDcuMzEyMTggOS4yMTA2NSA3LjMxMjE4IDkuMDI5NjFDNy4zMTIxOCA4LjgzMDA1IDcuMTQyNjkgOC42NzMwOCA2Ljk0MzE5IDguNjc4MTNDNi44Njg0NiA4LjY4MDAzIDYuODA2MjQgOC42NzgzMSA2LjczMDk0IDguNjc4MTRDNi4yMTg0NyA4LjY3NjkyIDUuNzExMyA4LjYyNzU5IDUuMjc5MTggOC41MzQzQzQuOTc3NjYgOC40NjkyIDQuNzM1MTggOC4zODczNyA0LjU1NzQyIDguMjk5OTdMNC41NTYzIDcuNDg3OTRDNC43MzAzNiA3LjU0NzM5IDQuOTEzMTIgNy41OTYxNCA1LjA5NzggNy42MzYwMUM1LjU5OTIyIDcuNzQ0MjYgNi4xNjc1OSA3Ljc5NzkyIDYuNzI4OTEgNy43OTkyNUM3LjE5MDg2IDcuODAwMzQgNy42NTcwOSA3Ljc2NjAxIDguMDg2MDQgNy42OTM2M0M4LjU0MDMgNy42MzYwMSA4LjQ5MzQ0IDYuOTQyNjYgOC4wODYwNCA3LjAyMjgyQzcuNjc4NjQgNy4xMDI5OSA3LjIwODI5IDcuMTQzNjQgNi43MzA5NCA3LjE0MjUxQzYuMjE4NDcgNy4xNDEzIDUuNzExMyA3LjA5MTk3IDUuMjc5MTggNi45OTg2OEM0Ljk3NTcyIDYuOTMzMTYgNC43MzIwNyA2Ljg1MDcgNC41NTQwMSA2Ljc2MjY3TDQuNTUyNjcgNS45MDU4NEM0LjU5OTE2IDUuOTI2NzUgNC42NDYzMSA1Ljk0NjQgNC42OTM4NiA1Ljk2NDg4QzUuMjM5ODYgNi4xNzcxNyA1Ljk1NTIgNi4yODAxNCA2LjcwOTgxIDYuMjgwMTRDNy40NzA3MSA2LjI4MDE0IDguMTkzMDYgNi4xNzU0NSA4Ljc0MzE1IDUuOTU5NjdDOC43OTA2IDUuOTQxMDYgOC44Mzc2NSA1LjkyMTI4IDguODg0MDYgNS45MDAyNUw4Ljg4NDA2IDYuNTk0NzJMOC44ODE5NiA2LjM1ODk3QzguODgxNzcgNi41Njc0NCA5LjA1MDcyIDYuNzM2NTMgOS4yNTkxOSA2LjczNjUzSDkuMzY0NTVDOS42MzEwMyA2LjczNjUzIDkuODQ3MDUgNi41MjA1MSA5Ljg0NzA0IDYuMjU0MDNMOS44NDcwMSA1LjA0NTk1QzkuODQ3MDEgNC42NzY2IDkuNjgzOTcgNC4zODMxOCA5LjQ3NzM2IDQuMTc0MzFDOS4yNzcxNiAzLjk3MTkxIDkuMDE2NjYgMy44MjU3NiA4Ljc0MzAxIDMuNzE4NDFDOC4xOTI5MSAzLjUwMjY0IDcuNDcwNTYgMy4zOTc5NSA2LjcwOTY2IDMuMzk3OTVDNS45NDg3NiAzLjM5Nzk1IDUuMjMxNTYgMy41MDI2MyA0LjY4NTQ0IDMuNzE4OTdaIiBjbGlwLXJ1bGU9ImV2ZW5vZGQiIGZpbGwtcnVsZT0iZXZlbm9kZCIvPiYjeGE7PHBhdGggZmlsbD0idXJsKCNwYWludDJfbGluZWFyXzM4OTBfMjE1MjApIiBkPSJNMTAuNTUwMSA3LjQzNDQyQzEwLjU4NzQgNy4xOTU3IDEwLjgxMTIgNy4wMzI0NCAxMS4wNDk5IDcuMDY5NzdDMTEuOTA2NCA3LjIwMzcyIDEyLjc0ODggNy42MTA5IDEzLjQ0MTYgOC4zMDc1NkMxMy42MTIgOC40Nzg4OSAxMy42MTEzIDguNzU1OSAxMy40Mzk5IDguOTI2MjhDMTMuMjY4NiA5LjA5NjY2IDEyLjk5MTYgOS4wOTU5IDEyLjgyMTIgOC45MjQ1OEMxMi4yNjA2IDguMzYwODkgMTEuNTg4NiA4LjAzOTY1IDEwLjkxNDcgNy45MzQyNkMxMC42NzYgNy44OTY5MyAxMC41MTI4IDcuNjczMTQgMTAuNTUwMSA3LjQzNDQyWiIgY2xpcC1ydWxlPSJldmVub2RkIiBmaWxsLXJ1bGU9ImV2ZW5vZGQiLz4mI3hhOzxwYXRoIGZpbGw9InVybCgjcGFpbnQzX2xpbmVhcl8zODkwXzIxNTIwKSIgZD0iTTEwLjkzMzcgMTEuMTcwNEMxMC45MzM3IDEwLjkyODggMTAuNzM3OSAxMC43MzI5IDEwLjQ5NjIgMTAuNzMyOUMxMC4yNTQ2IDEwLjczMjkgMTAuMDU4NyAxMC45Mjg4IDEwLjA1ODcgMTEuMTcwNEMxMC4wNTg3IDExLjUxNCAxMC4xNTA4IDExLjg4MDIgMTAuMzM0MiAxMi4xNzY0QzEwLjM1MzEgMTIuMjA3IDEwLjM3MjIgMTIuMjM3NCAxMC4zOTUxIDEyLjI2NDlDMTAuNTM3NCAxMi40MzUgMTAuNzk0NiAxMi40NzM2IDEwLjk4MDMgMTIuMzQ1NEMxMS4xNzggMTIuMjA4OCAxMS4yMjg0IDExLjkzODUgMTEuMDkzOCAxMS43NEMxMC45ODg2IDExLjU3MzggMTAuOTMzNyAxMS4zNjU3IDEwLjkzMzcgMTEuMTcwNFoiLz4mI3hhOzxwYXRoIGZpbGw9InVybCgjcGFpbnQ0X2xpbmVhcl8zODkwXzIxNTIwKSIgZD0iTTEzLjI4NTYgMTAuOTAwM0MxMy4zMzE2IDkuNzc0MDMgMTIuNDY0NCA4LjgyOTkxIDExLjQ1NDkgOC40NTA4MUMxMC40MDkzIDguMDU4MTMgOS4xMDEzMSA4LjIxOTk5IDguMTk2MTIgOS4zOTc2OEM4LjA0ODg3IDkuNTg5MjUgOC4wODQ4IDkuODYzOTIgOC4yNzYzNyAxMC4wMTEyQzguNDY3OTUgMTAuMTU4NCA4Ljc0MjYyIDEwLjEyMjUgOC44ODk4NyA5LjkzMDkxQzkuNTI3MDIgOS4xMDE5NiAxMC40MDc4IDguOTkyMjQgMTEuMTQ3MyA5LjI2OTk1QzExLjkyMyA5LjU2MTI2IDEyLjQzNzMgMTAuMjI5NSAxMi40MTEzIDEwLjg2NDVDMTIuNDA2NSAxMC45ODI1IDEyLjM2NjcgMTEuMDQyNCAxMi4zMzYyIDExLjA3MjJDMTIuMzAxOCAxMS4xMDU5IDEyLjI1NzUgMTEuMTIyOSAxMi4yMTUxIDExLjEyMzdDMTIuMTczNiAxMS4xMjQ1IDEyLjE0MjUgMTEuMTEwMyAxMi4xMjE4IDExLjA4OTRDMTIuMTA0MSAxMS4wNzE3IDEyLjA2MzIgMTEuMDE4IDEyLjA2MzIgMTAuODgyNEMxMi4wNjMyIDEwLjUwODIgMTEuODI1NyAxMC4xMDcxIDExLjQ4MTMgOS44NDg2QzExLjExMDQgOS41NzAyMyAxMC41ODU2IDkuNDI4MDkgOS45Njg5NSA5LjU5ODI1TDkuOTU5OTIgOS42MDA3NUw5Ljk1MSA5LjYwMzYyQzkuMzYwNDcgOS43OTQxMiA4Ljk4Mzc5IDEwLjM0NjEgOC44OTkxNiAxMC45OTExQzguODEzNjkgMTEuNjQyNCA5LjAxMzc5IDEyLjQwODYgOS41NjU4NyAxMy4xNTM2QzkuNzA5NzMgMTMuMzQ3OCA5Ljk4MzczIDEzLjM4ODUgMTAuMTc3OSAxMy4yNDQ3QzEwLjM3MiAxMy4xMDA4IDEwLjQxMjcgMTIuODI2OCAxMC4yNjg5IDEyLjYzMjdDOS44MjU0NSAxMi4wMzQzIDkuNzE2MDcgMTEuNDkwOSA5Ljc2NjcyIDExLjEwNDlDOS44MTc1MSAxMC43MTc5IDEwLjAxNzcgMTAuNTA1NSAxMC4yMTE2IDEwLjQzOUMxMC41NTggMTAuMzQ2MyAxMC44MDAzIDEwLjQzMTUgMTAuOTU2IDEwLjU0ODRDMTEuMDM5NSAxMC42MTEgMTEuMTAxNCAxMC42ODU1IDExLjE0MDkgMTAuNzU0OUMxMS4xODMgMTAuODI2OSAxMS4xODY1IDEwLjg2MzUgMTEuMTg4OSAxMC45MjgzQzExLjE5ODQgMTEuMjM3OCAxMS4zMDUyIDExLjUwOTMgMTEuNTAxNSAxMS43MDY2QzExLjcwNDQgMTEuOTEwNSAxMS45NzIzIDEyLjAwMzYgMTIuMjMyIDExLjk5ODZDMTIuNzY0NiAxMS45ODgzIDEzLjI1ODIgMTEuNTcyMyAxMy4yODU2IDEwLjkwMDNaIi8+JiN4YTs8L2c+JiN4YTs8ZGVmcz4mI3hhOzxsaW5lYXJHcmFkaWVudCBncmFkaWVudFVuaXRzPSJ1c2VyU3BhY2VPblVzZSIgeTI9IjE0Ljc0NTgiIHgyPSIxMy42ODQ5IiB5MT0iMi4yNjg5NCIgeDE9IjEuNDQ3OTkiIGlkPSJwYWludDBfbGluZWFyXzM4OTBfMjE1MjAiPiYjeGE7PHN0b3Agc3RvcC1jb2xvcj0id2hpdGUiLz4mI3hhOzxzdG9wIHN0b3AtY29sb3I9IiNFQUVDRUUiIG9mZnNldD0iMSIvPiYjeGE7PC9saW5lYXJHcmFkaWVudD4mI3hhOzxsaW5lYXJHcmFkaWVudCBncmFkaWVudFVuaXRzPSJ1c2VyU3BhY2VPblVzZSIgeTI9IjguODQ0NTUiIHgyPSIxMC4wMzMzIiB5MT0iNC42MTI5OSIgeDE9IjQuNTM0MDUiIGlkPSJwYWludDFfbGluZWFyXzM4OTBfMjE1MjAiPiYjeGE7PHN0b3Agc3RvcC1jb2xvcj0iIzAxOTVGRiIvPiYjeGE7PHN0b3Agc3RvcC1jb2xvcj0iIzExNDdFOSIgb2Zmc2V0PSIwLjk5MTAyOCIvPiYjeGE7PC9saW5lYXJHcmFkaWVudD4mI3hhOzxsaW5lYXJHcmFkaWVudCBncmFkaWVudFVuaXRzPSJ1c2VyU3BhY2VPblVzZSIgeTI9IjExLjc5MjgiIHgyPSIxMy4yNjAyIiB5MT0iNy45ODYzNSIgeDE9IjguOTEzMjEiIGlkPSJwYWludDJfbGluZWFyXzM4OTBfMjE1MjAiPiYjeGE7PHN0b3Agc3RvcC1jb2xvcj0iIzEzNDhGRiIvPiYjeGE7PHN0b3Agc3RvcC1jb2xvcj0iIzA2MjM4RCIgb2Zmc2V0PSIxIi8+JiN4YTs8L2xpbmVhckdyYWRpZW50PiYjeGE7PGxpbmVhckdyYWRpZW50IGdyYWRpZW50VW5pdHM9InVzZXJTcGFjZU9uVXNlIiB5Mj0iMTEuNzkyOCIgeDI9IjEzLjI2MDIiIHkxPSI3Ljk4NjM1IiB4MT0iOC45MTMyMSIgaWQ9InBhaW50M19saW5lYXJfMzg5MF8yMTUyMCI+JiN4YTs8c3RvcCBzdG9wLWNvbG9yPSIjMTM0OEZGIi8+JiN4YTs8c3RvcCBzdG9wLWNvbG9yPSIjMDYyMzhEIiBvZmZzZXQ9IjEiLz4mI3hhOzwvbGluZWFyR3JhZGllbnQ+JiN4YTs8bGluZWFyR3JhZGllbnQgZ3JhZGllbnRVbml0cz0idXNlclNwYWNlT25Vc2UiIHkyPSIxMS43OTI4IiB4Mj0iMTMuMjYwMiIgeTE9IjcuOTg2MzUiIHgxPSI4LjkxMzIxIiBpZD0icGFpbnQ0X2xpbmVhcl8zODkwXzIxNTIwIj4mI3hhOzxzdG9wIHN0b3AtY29sb3I9IiMxMzQ4RkYiLz4mI3hhOzxzdG9wIHN0b3AtY29sb3I9IiMwNjIzOEQiIG9mZnNldD0iMSIvPiYjeGE7PC9saW5lYXJHcmFkaWVudD4mI3hhOzxjbGlwUGF0aCBpZD0iY2xpcDBfMzg5MF8yMTUyMCI+JiN4YTs8cmVjdCB0cmFuc2Zvcm09InRyYW5zbGF0ZSgzLjU5NzE3IDMuMzk3OTUpIiBmaWxsPSJ3aGl0ZSIgaGVpZ2h0PSIxMCIgd2lkdGg9IjEwIi8+JiN4YTs8L2NsaXBQYXRoPiYjeGE7PC9kZWZzPiYjeGE7PC9zdmc+;fontColor=#1D2D3E;" parent="-Aj5rOMPWS9pz5DeyN8X-1" vertex="1">
          <mxGeometry x="-2054" y="-1829.5" width="32" height="32" as="geometry" />
        </mxCell>
        <mxCell id="QtfqXHgJTDFYUFJRv9R8-1" value="Identity&#xa;Authentication" style="shape=image;verticalLabelPosition=bottom;labelBackgroundColor=none;verticalAlign=top;aspect=fixed;imageAspect=0;image=data:image/svg+xml,PHN2ZyB4bWxucz0iaHR0cDovL3d3dy53My5vcmcvMjAwMC9zdmciIGZpbGw9Im5vbmUiIHZpZXdCb3g9IjAgMCAxNiAxNiIgaGVpZ2h0PSIxNiIgd2lkdGg9IjE2Ij4mI3hhOzxjaXJjbGUgc3Ryb2tlLXdpZHRoPSIwLjI4NTcwOCIgc3Ryb2tlPSIjRDVEQUREIiBmaWxsPSJ1cmwoI3BhaW50MF9saW5lYXJfMzg5MF8yMTUxMykiIHI9IjcuODU2OTYiIGN5PSI3Ljk5Nzg2IiBjeD0iNy45OTkzMyIvPiYjeGE7PHBhdGggZmlsbD0idXJsKCNwYWludDFfbGluZWFyXzM4OTBfMjE1MTMpIiBkPSJNNy4xNzQ4NCAzLjQxNDlMMTAuMTkzNiA0LjI4NTYxSDEwLjE5MjhDMTAuNDA2NSA0LjM0MjkgMTAuNTEzMyA0LjQ4NDkzIDEwLjUxMzMgNC43MTI0OVY2LjIzMDQ0QzEwLjAxNjEgNi4zNzgwNSA5LjY1MjU1IDYuNzY4MjQgOS41NTU4MyA3LjQ0NTUzQzkuNTU1ODMgNy40NDU1MyA5LjI2OTcxIDcuNDYxODcgOC42MzQ4NiA3LjgwMTE2QzggOC4xNDA0NCA3LjU2MzcxIDguNjkwNTQgNy41NjM3MSA4LjY5MDU0QzcuMTM3NDggOS4xNzM1MSA3LjAzMzEyIDkuNDk2MjYgNy4xODA2NiAxMC4yMDMxQzcuMzcwMDQgMTAuNjQzNyA3LjUzMjQ4IDEwLjgxOTggNy45MDEzMSAxMS4wMzQxQzcuOTAxMzEgMTEuMDM0MSA3Ljg1MTMxIDExLjI5OTYgNy45MDI2NCAxMS43Mzc3QzcuNzU0NzYgMTEuODI3OSA3LjYyNDQgMTEuOTAxNCA3LjUxMTY3IDExLjk1ODZDNy4zNDMwNiAxMi4wNDQyIDcuMjQ3MzkgMTIuMDkyNiA3LjIyNTA2IDEyLjEwMzlDNy4xNTc3IDEyLjEyNjkgNy4xMDE0OSAxMi4xMzgyIDcuMDU2NDUgMTIuMTM4MkM3LjAxMTQgMTIuMTM4MiA2Ljk1NTIgMTIuMTI2NSA2Ljg4NzgzIDEyLjEwMzlDNi44NjUxMSAxMi4wOTI2IDYuNzY5ODQgMTIuMDQ3IDYuNjAxMjIgMTEuOTY3NUM2LjQzMjYxIDExLjg4NzYgNi4yMjQ1MyAxMS43NjU0IDUuOTc3MzggMTEuNjAwM0M1LjczMDI0IDExLjQzNTMgNS40Njg3NCAxMS4yMzMyIDUuMTkzMjkgMTAuOTk0M0M0LjkxNzg1IDEwLjc1NTQgNC42NjE5MyAxMC40NzY2IDQuNDI1OTUgMTAuMTU3OUM0LjE4OTU3IDkuODM5NTQgMy45OTMwNSA5LjQ4MTI1IDMuODM1NTkgOS4wODI2MUMzLjY3ODE0IDguNjg0MzcgMy41OTk2MSA4LjI0NjE5IDMuNTk5NjEgNy43NjgwNlY0LjcxMjQ5QzMuNTk5NjEgNC40ODQ5MyAzLjcwNjQ0IDQuMzQyNSAzLjkyMDEgNC4yODU2MUw2LjkzODg1IDMuNDE0OUM3LjAwNjIyIDMuMzkyMyA3LjA4NDc1IDMuMzkyMyA3LjE3NDg0IDMuNDE0OVoiLz4mI3hhOzxwYXRoIGZpbGw9InVybCgjcGFpbnQyX2xpbmVhcl8zODkwXzIxNTEzKSIgZD0iTTEwLjU1MjUgNy41MTg4OUMxMC41ODk5IDcuMjgwMTcgMTAuODEzNiA3LjExNjkxIDExLjA1MjQgNy4xNTQyNEMxMS45MDg5IDcuMjg4MTkgMTIuNzUxMiA3LjY5NTM3IDEzLjQ0NDEgOC4zOTIwNEMxMy42MTQ1IDguNTYzMzYgMTMuNjEzNyA4Ljg0MDM3IDEzLjQ0MjQgOS4wMTA3NUMxMy4yNzExIDkuMTgxMTQgMTIuOTk0MSA5LjE4MDM3IDEyLjgyMzcgOS4wMDkwNUMxMi4yNjMxIDguNDQ1MzYgMTEuNTkxMSA4LjEyNDEyIDEwLjkxNzIgOC4wMTg3M0MxMC42Nzg1IDcuOTgxNCAxMC41MTUyIDcuNzU3NjEgMTAuNTUyNSA3LjUxODg5WiIgY2xpcC1ydWxlPSJldmVub2RkIiBmaWxsLXJ1bGU9ImV2ZW5vZGQiLz4mI3hhOzxwYXRoIGZpbGw9InVybCgjcGFpbnQzX2xpbmVhcl8zODkwXzIxNTEzKSIgZD0iTTEwLjkzNjIgMTEuMjU0OUMxMC45MzYyIDExLjAxMzMgMTAuNzQwMyAxMC44MTc0IDEwLjQ5ODcgMTAuODE3NEMxMC4yNTcxIDEwLjgxNzQgMTAuMDYxMiAxMS4wMTMzIDEwLjA2MTIgMTEuMjU0OUMxMC4wNjEyIDExLjU5ODUgMTAuMTUzMiAxMS45NjQ2IDEwLjMzNjYgMTIuMjYwOUMxMC4zNTU1IDEyLjI5MTQgMTAuMzc0NiAxMi4zMjE5IDEwLjM5NzYgMTIuMzQ5M0MxMC41Mzk4IDEyLjUxOTUgMTAuNzk3IDEyLjU1ODEgMTAuOTgyNyAxMi40Mjk4QzExLjE4MDUgMTIuMjkzMiAxMS4yMzA4IDEyLjAyMjkgMTEuMDk2MiAxMS44MjQ0QzEwLjk5MSAxMS42NTgzIDEwLjkzNjIgMTEuNDUwMiAxMC45MzYyIDExLjI1NDlaIi8+JiN4YTs8cGF0aCBmaWxsPSJ1cmwoI3BhaW50NF9saW5lYXJfMzg5MF8yMTUxMykiIGQ9Ik0xMy4yODggMTAuOTg0N0MxMy4zMzQxIDkuODU4NSAxMi40NjY4IDguOTE0MzggMTEuNDU3MyA4LjUzNTI5QzEwLjQxMTcgOC4xNDI2IDkuMTAzNzUgOC4zMDQ0NiA4LjE5ODU2IDkuNDgyMTVDOC4wNTEzMSA5LjY3MzcyIDguMDg3MjQgOS45NDgzOSA4LjI3ODgyIDEwLjA5NTZDOC40NzAzOSAxMC4yNDI5IDguNzQ1MDYgMTAuMjA3IDguODkyMzEgMTAuMDE1NEM5LjUyOTQ2IDkuMTg2NDMgMTAuNDEwMiA5LjA3NjcxIDExLjE0OTcgOS4zNTQ0M0MxMS45MjU0IDkuNjQ1NzMgMTIuNDM5NyAxMC4zMTQgMTIuNDEzOCAxMC45NDlDMTIuNDA5IDExLjA2NyAxMi4zNjkyIDExLjEyNjkgMTIuMzM4NiAxMS4xNTY3QzEyLjMwNDMgMTEuMTkwNCAxMi4yNTk5IDExLjIwNzQgMTIuMjE3NiAxMS4yMDgyQzEyLjE3NjEgMTEuMjA5IDEyLjE0NSAxMS4xOTQ3IDEyLjEyNDIgMTEuMTczOUMxMi4xMDY2IDExLjE1NjEgMTIuMDY1NiAxMS4xMDI0IDEyLjA2NTYgMTAuOTY2OUMxMi4wNjU2IDEwLjU5MjYgMTEuODI4MiAxMC4xOTE2IDExLjQ4MzcgOS45MzMwOEMxMS4xMTI4IDkuNjU0NzEgMTAuNTg4MSA5LjUxMjU3IDkuOTcxMzkgOS42ODI3M0w5Ljk2MjM2IDkuNjg1MjJMOS45NTM0NCA5LjY4ODA5QzkuMzYyOTEgOS44Nzg1OSA4Ljk4NjIzIDEwLjQzMDYgOC45MDE2IDExLjA3NTVDOC44MTYxMyAxMS43MjY5IDkuMDE2MjMgMTIuNDkzMSA5LjU2ODMxIDEzLjIzODFDOS43MTIxNyAxMy40MzIyIDkuOTg2MTcgMTMuNDczIDEwLjE4MDMgMTMuMzI5MUMxMC4zNzQ0IDEzLjE4NTMgMTAuNDE1MiAxMi45MTEzIDEwLjI3MTMgMTIuNzE3MUM5LjgyNzkgMTIuMTE4OCA5LjcxODUyIDExLjU3NTMgOS43NjkxNiAxMS4xODk0QzkuODE5OTUgMTAuODAyNCAxMC4wMjAxIDEwLjU5IDEwLjIxNCAxMC41MjM1QzEwLjU2MDUgMTAuNDMwOCAxMC44MDI4IDEwLjUxNiAxMC45NTg1IDEwLjYzMjlDMTEuMDQxOSAxMC42OTU1IDExLjEwMzkgMTAuNzcgMTEuMTQzNCAxMC44Mzk0QzExLjE4NTQgMTAuOTExNCAxMS4xODg5IDEwLjk0OCAxMS4xOTEzIDExLjAxMjhDMTEuMjAwOSAxMS4zMjIzIDExLjMwNzYgMTEuNTkzNyAxMS41MDQgMTEuNzkxMUMxMS43MDY5IDExLjk5NSAxMS45NzQ3IDEyLjA4ODEgMTIuMjM0NSAxMi4wODNDMTIuNzY3IDEyLjA3MjcgMTMuMjYwNiAxMS42NTY4IDEzLjI4OCAxMC45ODQ3WiIvPiYjeGE7PGRlZnM+JiN4YTs8bGluZWFyR3JhZGllbnQgZ3JhZGllbnRVbml0cz0idXNlclNwYWNlT25Vc2UiIHkyPSIxNC43NDU4IiB4Mj0iMTMuNjg3NCIgeTE9IjIuMjY4OTQiIHgxPSIxLjQ1MDQzIiBpZD0icGFpbnQwX2xpbmVhcl8zODkwXzIxNTEzIj4mI3hhOzxzdG9wIHN0b3AtY29sb3I9IndoaXRlIi8+JiN4YTs8c3RvcCBzdG9wLWNvbG9yPSIjRUFFQ0VFIiBvZmZzZXQ9IjEiLz4mI3hhOzwvbGluZWFyR3JhZGllbnQ+JiN4YTs8bGluZWFyR3JhZGllbnQgZ3JhZGllbnRVbml0cz0idXNlclNwYWNlT25Vc2UiIHkyPSI5LjQxNzg5IiB4Mj0iMTAuNTkxOSIgeTE9IjQuNzA1IiB4MT0iNC42MzYiIGlkPSJwYWludDFfbGluZWFyXzM4OTBfMjE1MTMiPiYjeGE7PHN0b3Agc3RvcC1jb2xvcj0iIzAxOTVGRiIvPiYjeGE7PHN0b3Agc3RvcC1jb2xvcj0iIzExNDdFOSIgb2Zmc2V0PSIwLjk5MTAyOCIvPiYjeGE7PC9saW5lYXJHcmFkaWVudD4mI3hhOzxsaW5lYXJHcmFkaWVudCBncmFkaWVudFVuaXRzPSJ1c2VyU3BhY2VPblVzZSIgeTI9IjExLjg3NzMiIHgyPSIxMy4yNjI3IiB5MT0iOC4wNzA4MiIgeDE9IjguOTE1NjUiIGlkPSJwYWludDJfbGluZWFyXzM4OTBfMjE1MTMiPiYjeGE7PHN0b3Agc3RvcC1jb2xvcj0iIzEzNDhGRiIvPiYjeGE7PHN0b3Agc3RvcC1jb2xvcj0iIzA2MjM4RCIgb2Zmc2V0PSIxIi8+JiN4YTs8L2xpbmVhckdyYWRpZW50PiYjeGE7PGxpbmVhckdyYWRpZW50IGdyYWRpZW50VW5pdHM9InVzZXJTcGFjZU9uVXNlIiB5Mj0iMTEuODc3MyIgeDI9IjEzLjI2MjciIHkxPSI4LjA3MDgyIiB4MT0iOC45MTU2NSIgaWQ9InBhaW50M19saW5lYXJfMzg5MF8yMTUxMyI+JiN4YTs8c3RvcCBzdG9wLWNvbG9yPSIjMTM0OEZGIi8+JiN4YTs8c3RvcCBzdG9wLWNvbG9yPSIjMDYyMzhEIiBvZmZzZXQ9IjEiLz4mI3hhOzwvbGluZWFyR3JhZGllbnQ+JiN4YTs8bGluZWFyR3JhZGllbnQgZ3JhZGllbnRVbml0cz0idXNlclNwYWNlT25Vc2UiIHkyPSIxMS44NzczIiB4Mj0iMTMuMjYyNyIgeTE9IjguMDcwODIiIHgxPSI4LjkxNTY1IiBpZD0icGFpbnQ0X2xpbmVhcl8zODkwXzIxNTEzIj4mI3hhOzxzdG9wIHN0b3AtY29sb3I9IiMxMzQ4RkYiLz4mI3hhOzxzdG9wIHN0b3AtY29sb3I9IiMwNjIzOEQiIG9mZnNldD0iMSIvPiYjeGE7PC9saW5lYXJHcmFkaWVudD4mI3hhOzwvZGVmcz4mI3hhOzwvc3ZnPg==;fontColor=#1D2D3E;" parent="-Aj5rOMPWS9pz5DeyN8X-1" vertex="1">
          <mxGeometry x="-1972.9999999999998" y="-1831" width="32" height="32" as="geometry" />
        </mxCell>
        <mxCell id="QtfqXHgJTDFYUFJRv9R8-2" value="Identity&#xa;Provisoning" style="shape=image;verticalLabelPosition=bottom;labelBackgroundColor=none;verticalAlign=top;aspect=fixed;imageAspect=0;image=data:image/svg+xml,PHN2ZyB4bWxucz0iaHR0cDovL3d3dy53My5vcmcvMjAwMC9zdmciIGZpbGw9Im5vbmUiIHZpZXdCb3g9IjAgMCAxNiAxNiIgaGVpZ2h0PSIxNiIgd2lkdGg9IjE2Ij4mI3hhOzxjaXJjbGUgc3Ryb2tlLXdpZHRoPSIwLjI4NTcwOCIgc3Ryb2tlPSIjRDVEQUREIiBmaWxsPSJ1cmwoI3BhaW50MF9saW5lYXJfMzg5MF8yMTUxNCkiIHI9IjcuODU2OTYiIGN5PSI3Ljk5Nzg2IiBjeD0iNy45OTg4NCIvPiYjeGE7PHBhdGggZmlsbD0idXJsKCNwYWludDFfbGluZWFyXzM4OTBfMjE1MTQpIiBkPSJNOS45NTE5NCA3LjUxODg5QzkuOTg5MjcgNy4yODAxNyAxMC4yMTMxIDcuMTE2OTEgMTAuNDUxOCA3LjE1NDI0QzExLjMwODMgNy4yODgxOSAxMi4xNTA3IDcuNjk1MzcgMTIuODQzNSA4LjM5MjA0QzEzLjAxMzkgOC41NjMzNiAxMy4wMTMxIDguODQwMzcgMTIuODQxOCA5LjAxMDc1QzEyLjY3MDUgOS4xODExNCAxMi4zOTM1IDkuMTgwMzcgMTIuMjIzMSA5LjAwOTA1QzExLjY2MjUgOC40NDUzNiAxMC45OTA1IDguMTI0MTIgMTAuMzE2NiA4LjAxODczQzEwLjA3NzkgNy45ODE0IDkuOTE0NjEgNy43NTc2MSA5Ljk1MTk0IDcuNTE4ODlaIiBjbGlwLXJ1bGU9ImV2ZW5vZGQiIGZpbGwtcnVsZT0iZXZlbm9kZCIvPiYjeGE7PHBhdGggZmlsbD0idXJsKCNwYWludDJfbGluZWFyXzM4OTBfMjE1MTQpIiBkPSJNMTAuMzM1NiAxMS4yNTQ5QzEwLjMzNTYgMTEuMDEzMyAxMC4xMzk3IDEwLjgxNzQgOS44OTgwOSAxMC44MTc0QzkuNjU2NDcgMTAuODE3NCA5LjQ2MDU5IDExLjAxMzMgOS40NjA1OSAxMS4yNTQ5QzkuNDYwNTkgMTEuNTk4NSA5LjU1MjY0IDExLjk2NDYgOS43MzYwMSAxMi4yNjA5QzkuNzU0OTQgMTIuMjkxNCA5Ljc3NDAxIDEyLjMyMTkgOS43OTY5NyAxMi4zNDkzQzkuOTM5MjIgMTIuNTE5NSAxMC4xOTY1IDEyLjU1ODEgMTAuMzgyMiAxMi40Mjk4QzEwLjU3OTkgMTIuMjkzMiAxMC42MzAyIDEyLjAyMjkgMTAuNDk1NiAxMS44MjQ0QzEwLjM5MDQgMTEuNjU4MyAxMC4zMzU2IDExLjQ1MDIgMTAuMzM1NiAxMS4yNTQ5WiIvPiYjeGE7PHBhdGggZmlsbD0idXJsKCNwYWludDNfbGluZWFyXzM4OTBfMjE1MTQpIiBkPSJNMTIuNjg3NSAxMC45ODQ3QzEyLjczMzUgOS44NTg1IDExLjg2NjIgOC45MTQzOCAxMC44NTY4IDguNTM1MjlDOS44MTExMiA4LjE0MjYgOC41MDMxNyA4LjMwNDQ2IDcuNTk3OTcgOS40ODIxNUM3LjQ1MDcyIDkuNjczNzIgNy40ODY2NiA5Ljk0ODM5IDcuNjc4MjMgMTAuMDk1NkM3Ljg2OTggMTAuMjQyOSA4LjE0NDQ3IDEwLjIwNyA4LjI5MTcyIDEwLjAxNTRDOC45Mjg4NyA5LjE4NjQzIDkuODA5NjQgOS4wNzY3MSAxMC41NDkxIDkuMzU0NDNDMTEuMzI0OCA5LjY0NTczIDExLjgzOTEgMTAuMzE0IDExLjgxMzIgMTAuOTQ5QzExLjgwODQgMTEuMDY3IDExLjc2ODYgMTEuMTI2OSAxMS43MzgxIDExLjE1NjdDMTEuNzAzNyAxMS4xOTA0IDExLjY1OTMgMTEuMjA3NCAxMS42MTcgMTEuMjA4MkMxMS41NzU1IDExLjIwOSAxMS41NDQ0IDExLjE5NDcgMTEuNTIzNyAxMS4xNzM5QzExLjUwNiAxMS4xNTYxIDExLjQ2NSAxMS4xMDI0IDExLjQ2NSAxMC45NjY5QzExLjQ2NSAxMC41OTI2IDExLjIyNzYgMTAuMTkxNiAxMC44ODMxIDkuOTMzMDhDMTAuNTEyMyA5LjY1NDcxIDkuOTg3NSA5LjUxMjU3IDkuMzcwODEgOS42ODI3M0w5LjM2MTc4IDkuNjg1MjJMOS4zNTI4NiA5LjY4ODA5QzguNzYyMzIgOS44Nzg1OSA4LjM4NTY1IDEwLjQzMDYgOC4zMDEwMSAxMS4wNzU1QzguMjE1NTQgMTEuNzI2OSA4LjQxNTY1IDEyLjQ5MzEgOC45Njc3MyAxMy4yMzgxQzkuMTExNTkgMTMuNDMyMiA5LjM4NTU4IDEzLjQ3MyA5LjU3OTcxIDEzLjMyOTFDOS43NzM4NSAxMy4xODUzIDkuODE0NiAxMi45MTEzIDkuNjcwNzQgMTIuNzE3MUM5LjIyNzMxIDEyLjExODggOS4xMTc5MyAxMS41NzUzIDkuMTY4NTggMTEuMTg5NEM5LjIxOTM2IDEwLjgwMjQgOS40MTk1NSAxMC41OSA5LjYxMzQ2IDEwLjUyMzVDOS45NTk4OCAxMC40MzA4IDEwLjIwMjIgMTAuNTE2IDEwLjM1NzkgMTAuNjMyOUMxMC40NDEzIDEwLjY5NTUgMTAuNTAzMyAxMC43NyAxMC41NDI4IDEwLjgzOTRDMTAuNTg0OCAxMC45MTE0IDEwLjU4ODMgMTAuOTQ4IDEwLjU5MDcgMTEuMDEyOEMxMC42MDAzIDExLjMyMjMgMTAuNzA3MSAxMS41OTM3IDEwLjkwMzQgMTEuNzkxMUMxMS4xMDYzIDExLjk5NSAxMS4zNzQxIDEyLjA4ODEgMTEuNjMzOSAxMi4wODNDMTIuMTY2NCAxMi4wNzI3IDEyLjY2IDExLjY1NjggMTIuNjg3NSAxMC45ODQ3WiIvPiYjeGE7PHBhdGggZmlsbD0idXJsKCNwYWludDRfbGluZWFyXzM4OTBfMjE1MTQpIiBkPSJNOC41NzMzMSA3LjI4NTg0QzguMzc4MDUgNy40ODExMSA4LjA2MTQ3IDcuNDgxMTEgNy44NjYyMSA3LjI4NTg1QzcuNjcwOTQgNy4wOTA1OSA3LjY3MDk0IDYuNzc0IDcuODY2MiA2LjU3ODc0TDguNTI5OCA1LjkxNTEzSDQuNTcwNzdDNC4yOTQ2MiA1LjkxNTEzIDQuMDcwNzcgNS42OTEyNyA0LjA3MDc3IDUuNDE1MTNDNC4wNzA3NyA1LjEzODk5IDQuMjk0NjIgNC45MTUxMyA0LjU3MDc3IDQuOTE1MTNIOC41Mjk4MUw3Ljg2NjIgNC4yNTE1QzcuNjcwOTQgNC4wNTYyMyA3LjY3MDk0IDMuNzM5NjUgNy44NjYyMSAzLjU0NDM5QzguMDYxNDcgMy4zNDkxMyA4LjM3ODA1IDMuMzQ5MTQgOC41NzMzMSAzLjU0NDRMMTAuMDkwNSA1LjA2MTU4QzEwLjI4NTcgNS4yNTY4NCAxMC4yODU3IDUuNTczNDIgMTAuMDkwNSA1Ljc2ODY4TDguNTczMzEgNy4yODU4NFoiLz4mI3hhOzxwYXRoIGZpbGw9InVybCgjcGFpbnQ1X2xpbmVhcl8zODkwXzIxNTE0KSIgZD0iTTQuNjYyNjEgNi43NzE2MkM0Ljg1Nzg3IDYuNTc2MzUgNS4xNzQ0NSA2LjU3NjM1IDUuMzY5NzIgNi43NzE2MUM1LjU2NDk4IDYuOTY2ODcgNS41NjQ5OCA3LjI4MzQ2IDUuMzY5NzIgNy40Nzg3Mkw0LjcwNjEyIDguMTQyMzNINi40MTIzOEM2LjY4ODUyIDguMTQyMzMgNi45MTIzOCA4LjM2NjE5IDYuOTEyMzggOC42NDIzM0M2LjkxMjM4IDguOTE4NDcgNi42ODg1MiA5LjE0MjMzIDYuNDEyMzggOS4xNDIzM0g0LjcwNjExTDUuMzY5NzIgOS44MDU5NkM1LjU2NDk4IDEwLjAwMTIgNS41NjQ5OCAxMC4zMTc4IDUuMzY5NzIgMTAuNTEzMUM1LjE3NDQ1IDEwLjcwODMgNC44NTc4NyAxMC43MDgzIDQuNjYyNjEgMTAuNTEzMUwzLjE0NTQ3IDguOTk1ODhDMi45NTAyMSA4LjgwMDYyIDIuOTUwMjEgOC40ODQwNCAzLjE0NTQ3IDguMjg4NzhMNC42NjI2MSA2Ljc3MTYyWiIvPiYjeGE7PGRlZnM+JiN4YTs8bGluZWFyR3JhZGllbnQgZ3JhZGllbnRVbml0cz0idXNlclNwYWNlT25Vc2UiIHkyPSIxNC43NDU4IiB4Mj0iMTMuNjg2OSIgeTE9IjIuMjY4OTQiIHgxPSIxLjQ0OTk1IiBpZD0icGFpbnQwX2xpbmVhcl8zODkwXzIxNTE0Ij4mI3hhOzxzdG9wIHN0b3AtY29sb3I9IndoaXRlIi8+JiN4YTs8c3RvcCBzdG9wLWNvbG9yPSIjRUFFQ0VFIiBvZmZzZXQ9IjEiLz4mI3hhOzwvbGluZWFyR3JhZGllbnQ+JiN4YTs8bGluZWFyR3JhZGllbnQgZ3JhZGllbnRVbml0cz0idXNlclNwYWNlT25Vc2UiIHkyPSIxMS44NzczIiB4Mj0iMTIuNjYyMSIgeTE9IjguMDcwODIiIHgxPSI4LjMxNTA2IiBpZD0icGFpbnQxX2xpbmVhcl8zODkwXzIxNTE0Ij4mI3hhOzxzdG9wIHN0b3AtY29sb3I9IiMxMzQ4RkYiLz4mI3hhOzxzdG9wIHN0b3AtY29sb3I9IiMwNjIzOEQiIG9mZnNldD0iMSIvPiYjeGE7PC9saW5lYXJHcmFkaWVudD4mI3hhOzxsaW5lYXJHcmFkaWVudCBncmFkaWVudFVuaXRzPSJ1c2VyU3BhY2VPblVzZSIgeTI9IjExLjg3NzMiIHgyPSIxMi42NjIxIiB5MT0iOC4wNzA4MiIgeDE9IjguMzE1MDYiIGlkPSJwYWludDJfbGluZWFyXzM4OTBfMjE1MTQiPiYjeGE7PHN0b3Agc3RvcC1jb2xvcj0iIzEzNDhGRiIvPiYjeGE7PHN0b3Agc3RvcC1jb2xvcj0iIzA2MjM4RCIgb2Zmc2V0PSIxIi8+JiN4YTs8L2xpbmVhckdyYWRpZW50PiYjeGE7PGxpbmVhckdyYWRpZW50IGdyYWRpZW50VW5pdHM9InVzZXJTcGFjZU9uVXNlIiB5Mj0iMTEuODc3MyIgeDI9IjEyLjY2MjEiIHkxPSI4LjA3MDgyIiB4MT0iOC4zMTUwNiIgaWQ9InBhaW50M19saW5lYXJfMzg5MF8yMTUxNCI+JiN4YTs8c3RvcCBzdG9wLWNvbG9yPSIjMTM0OEZGIi8+JiN4YTs8c3RvcCBzdG9wLWNvbG9yPSIjMDYyMzhEIiBvZmZzZXQ9IjEiLz4mI3hhOzwvbGluZWFyR3JhZGllbnQ+JiN4YTs8bGluZWFyR3JhZGllbnQgZ3JhZGllbnRVbml0cz0idXNlclNwYWNlT25Vc2UiIHkyPSI5LjU1MzU0IiB4Mj0iOS4xNjg1IiB5MT0iNC40ODM4NyIgeDE9IjQuMDg0MDEiIGlkPSJwYWludDRfbGluZWFyXzM4OTBfMjE1MTQiPiYjeGE7PHN0b3Agc3RvcC1jb2xvcj0iIzAxOTVGRiIvPiYjeGE7PHN0b3Agc3RvcC1jb2xvcj0iIzExNDdFOSIgb2Zmc2V0PSIwLjk5MTAyOCIvPiYjeGE7PC9saW5lYXJHcmFkaWVudD4mI3hhOzxsaW5lYXJHcmFkaWVudCBncmFkaWVudFVuaXRzPSJ1c2VyU3BhY2VPblVzZSIgeTI9IjkuNTUzNTQiIHgyPSI5LjE2ODUiIHkxPSI0LjQ4Mzg3IiB4MT0iNC4wODQwMSIgaWQ9InBhaW50NV9saW5lYXJfMzg5MF8yMTUxNCI+JiN4YTs8c3RvcCBzdG9wLWNvbG9yPSIjMDE5NUZGIi8+JiN4YTs8c3RvcCBzdG9wLWNvbG9yPSIjMTE0N0U5IiBvZmZzZXQ9IjAuOTkxMDI4Ii8+JiN4YTs8L2xpbmVhckdyYWRpZW50PiYjeGE7PC9kZWZzPiYjeGE7PC9zdmc+;fontColor=#1D2D3E;" parent="-Aj5rOMPWS9pz5DeyN8X-1" vertex="1">
          <mxGeometry x="-1888" y="-1831" width="32" height="32" as="geometry" />
        </mxCell>
        <mxCell id="OHP15Gqe_fe5QjpGXMBg-7" style="edgeStyle=orthogonalEdgeStyle;rounded=0;orthogonalLoop=1;jettySize=auto;html=1;" edge="1" parent="-Aj5rOMPWS9pz5DeyN8X-1" source="OHP15Gqe_fe5QjpGXMBg-4" target="OHP15Gqe_fe5QjpGXMBg-3">
          <mxGeometry relative="1" as="geometry">
            <Array as="points">
              <mxPoint x="-1990" y="-2301" />
            </Array>
          </mxGeometry>
        </mxCell>
        <mxCell id="OHP15Gqe_fe5QjpGXMBg-4" value="" style="rounded=1;whiteSpace=wrap;html=1;strokeColor=#0070F2;strokeWidth=1.5;arcSize=16;fillColor=#FFFFFF;perimeterSpacing=0;absoluteArcSize=1;" vertex="1" parent="-Aj5rOMPWS9pz5DeyN8X-1">
          <mxGeometry x="-2150" y="-2140" width="280" height="210" as="geometry" />
        </mxCell>
        <mxCell id="OHP15Gqe_fe5QjpGXMBg-2" value="CAP App" style="shape=mxgraph.sap.icon;labelPosition=center;verticalLabelPosition=bottom;align=center;verticalAlign=top;strokeWidth=1;strokeColor=#D5DADD;fillColor=#EDEFF0;gradientColor=#FCFCFC;gradientDirection=west;aspect=fixed;SAPIcon=SAP_Cloud_Application_Programming_Model" vertex="1" parent="-Aj5rOMPWS9pz5DeyN8X-1">
          <mxGeometry x="-2096" y="-2053" width="50" height="50" as="geometry" />
        </mxCell>
        <mxCell id="OHP15Gqe_fe5QjpGXMBg-1" value="BAS" style="shape=mxgraph.sap.icon;labelPosition=center;verticalLabelPosition=bottom;align=center;verticalAlign=top;strokeWidth=1;strokeColor=#D5DADD;fillColor=#EDEFF0;gradientColor=#FCFCFC;gradientDirection=west;aspect=fixed;SAPIcon=Business_Application_Studio" vertex="1" parent="-Aj5rOMPWS9pz5DeyN8X-1">
          <mxGeometry x="-1956.72" y="-2047.0000000000005" width="50" height="50" as="geometry" />
        </mxCell>
        <mxCell id="-Aj5rOMPWS9pz5DeyN8X-9" value="&lt;font size=&quot;1&quot; face=&quot;arial&quot; style=&quot;&quot;&gt;&lt;span style=&quot;font-size: 12px;&quot;&gt;Multi-Cloud&lt;/span&gt;&lt;/font&gt;" style="text;html=1;align=left;verticalAlign=middle;resizable=0;points=[];autosize=1;strokeColor=none;fillColor=none;fontSize=14;fontColor=#1D2D3E;fontFamily=Helvetica;fontStyle=0" parent="-Aj5rOMPWS9pz5DeyN8X-1" vertex="1">
          <mxGeometry x="-2134" y="-2100.88" width="79" height="29" as="geometry" />
        </mxCell>
        <mxCell id="-Aj5rOMPWS9pz5DeyN8X-10" value="&lt;font face=&quot;arial&quot; style=&quot;font-size: 16px;&quot;&gt;&lt;b style=&quot;font-size: 16px;&quot;&gt;Subaccount&lt;/b&gt;&lt;/font&gt;" style="text;html=1;align=left;verticalAlign=middle;resizable=0;points=[];autosize=1;strokeColor=none;fillColor=none;fontSize=12;fontColor=#1d2d3e;fontFamily=Helvetica;" parent="-Aj5rOMPWS9pz5DeyN8X-1" vertex="1">
          <mxGeometry x="-2135.5" y="-2128" width="120" height="30" as="geometry" />
        </mxCell>
        <mxCell id="OHP15Gqe_fe5QjpGXMBg-9" value="" style="shape=mxgraph.sap.icon;labelPosition=center;verticalLabelPosition=bottom;align=center;verticalAlign=top;strokeWidth=1;strokeColor=#D5DADD;fillColor=#EDEFF0;gradientColor=#FCFCFC;gradientDirection=west;aspect=fixed;SAPIcon=SAP_Digital_Assistant" vertex="1" parent="-Aj5rOMPWS9pz5DeyN8X-1">
          <mxGeometry x="-2011.01" y="-2099" width="50" height="50" as="geometry" />
        </mxCell>
        <mxCell id="OHP15Gqe_fe5QjpGXMBg-11" value="" style="rounded=1;whiteSpace=wrap;html=1;strokeColor=#0070F2;strokeWidth=1.5;arcSize=16;fillColor=#FFFFFF;perimeterSpacing=0;absoluteArcSize=1;" vertex="1" parent="-Aj5rOMPWS9pz5DeyN8X-1">
          <mxGeometry x="-1109" y="-1899" width="193.07" height="90" as="geometry" />
        </mxCell>
        <mxCell id="OHP15Gqe_fe5QjpGXMBg-12" value="&lt;font size=&quot;3&quot; face=&quot;arial&quot;&gt;&lt;b&gt;Weather API&lt;/b&gt;&lt;/font&gt;" style="text;html=1;align=left;verticalAlign=middle;resizable=0;points=[];autosize=1;strokeColor=none;fillColor=none;fontSize=12;fontColor=#1d2d3e;fontFamily=Helvetica;" vertex="1" parent="-Aj5rOMPWS9pz5DeyN8X-1">
          <mxGeometry x="-1056.5300000000002" y="-1869" width="120" height="30" as="geometry" />
        </mxCell>
        <mxCell id="OHP15Gqe_fe5QjpGXMBg-13" value="" style="shape=image;verticalLabelPosition=bottom;labelBackgroundColor=default;verticalAlign=top;imageAspect=0;image=data:image/svg+xml,PHN2ZyB4bWxucz0iaHR0cDovL3d3dy53My5vcmcvMjAwMC9zdmciIGZpbGw9Im5vbmUiIHZpZXdCb3g9IjAgMCAxNyAxMiIgaGVpZ2h0PSIxMiIgd2lkdGg9IjE3Ij4mI3hhOzxwYXRoIGZpbGw9InVybCgjcGFpbnQwX2xpbmVhcl83MjRfMTQpIiBkPSJNMTIuMzQ2MSAxMS45OTc0SDMuODE0ODVDMy4zNTY1MiAxMS45OTc0IDIuOTE5MDIgMTEuOTAzNiAyLjUwMjM1IDExLjcxNjJDMi4wODU2OCAxMS41MDc4IDEuNzIxMSAxMS4yMzcgMS40MDg2IDEwLjkwMzZDMS4wOTYxIDEwLjU0OTUgMC44NDYxIDEwLjE0MzIgMC42NTg2IDkuNjg0OTFDMC40OTE5MyA5LjIyNjYxIDAuNDA4NiA4LjczNzAxIDAuNDA4NiA4LjIxNjIxQzAuNDA4NiA3LjcxNjE2IDAuNDkxOTMgNy4yMzY5OSAwLjY1ODYgNi43Nzg2NkMwLjg0NjEgNi4zMjAzMyAxLjA4NTY4IDUuOTI0NDkgMS4zNzczNSA1LjU5MTE2QzEuNjY5MDIgNS4yMzY5OSAyLjAxMjc3IDQuOTY2MTYgMi40MDg2IDQuNzc4NjZDMi44MjUyNyA0LjU3MDMzIDMuMjYyNzcgNC40NjYxNiAzLjcyMTEgNC40NjYxNkMzLjgyNTI3IDMuODQxMTYgNC4wMTI3NyAzLjI1NzgzIDQuMjgzNiAyLjcxNjE2QzQuNTU0NDMgMi4xNTM2NiA0Ljg5ODE4IDEuNjc0NDkgNS4zMTQ4NSAxLjI3ODY2QzUuNzMxNTIgMC44ODI4MzQgNi4yMDAyNyAwLjU3MDMzNCA2LjcyMTEgMC4zNDExNjRDNy4yNjI3NyAwLjExMTk5NCA3LjgyNTI3IC0wLjAwMjU4NjM2IDguNDA4NiAtMC4wMDI1ODYzNkM5LjMwNDQzIC0wLjAwMjU4NjM2IDEwLjEzNzcgMC4yNjgyNDQgMTAuOTA4NiAwLjgwOTkxNEMxMS42Nzk0IDEuMzUxNTggMTIuMjczMSAyLjA4MDc0IDEyLjY4OTggMi45OTc0MUMxMy4yMTA2IDMuMDM5MDggMTMuNzAwMiAzLjE4NDkxIDE0LjE1ODYgMy40MzQ5MUMxNC42MTY5IDMuNjg0OTEgMTUuMDEyOCA0LjAxODI0IDE1LjM0NjEgNC40MzQ5MUMxNS42Nzk1IDQuODMwNzQgMTUuOTM5OCA1LjI4OTA4IDE2LjEyNzMgNS44MDk5MUMxNi4zMTQ4IDYuMzMwNzQgMTYuNDA4NiA2Ljg5MzI0IDE2LjQwODYgNy40OTc0MUMxNi40MDg2IDguMTIyNDEgMTYuMzA0NSA4LjcxNjIxIDE2LjA5NjEgOS4yNzg2MUMxNS44ODc4IDkuODIwMzEgMTUuNTk2MSAxMC4yOTk1IDE1LjIyMTEgMTAuNzE2MkMxNC44NjcgMTEuMTEyIDE0LjQzOTggMTEuNDI0NSAxMy45Mzk4IDExLjY1MzZDMTMuNDM5OCAxMS44ODI4IDEyLjkwODcgMTEuOTk3NCAxMi4zNDYxIDExLjk5NzRaTTMuODE0ODUgNi4wNTk5MUMzLjMxNDg1IDYuMDU5OTEgMi44ODc3NyA2LjI2ODI0IDIuNTMzNiA2LjY4NDkxQzIuMTc5NDMgNy4xMDE1OCAyLjAwMjM1IDcuNjExOTkgMi4wMDIzNSA4LjIxNjIxQzIuMDAyMzUgOC44MjAzMSAyLjE3OTQzIDkuMzQxMjEgMi41MzM2IDkuNzc4NjFDMi44ODc3NyAxMC4xOTUzIDMuMzE0ODUgMTAuNDAzNiAzLjgxNDg1IDEwLjQwMzZIMTIuMzQ2MUMxMy4wMzM3IDEwLjQwMzYgMTMuNjE3IDEwLjEyMjQgMTQuMDk2MSA5LjU1OTkxQzE0LjU3NTMgOC45OTc0MSAxNC44MTQ4IDguMzA5OTEgMTQuODE0OCA3LjQ5NzQxQzE0LjgxNDggNi42NjQwOCAxNC41NzUzIDUuOTY2MTYgMTQuMDk2MSA1LjQwMzY2QzEzLjYxNyA0Ljg0MTE2IDEzLjAzMzcgNC41NTk5MSAxMi4zNDYxIDQuNTU5OTFIMTIuMTI3M0MxMS43NzMxIDQuNTU5OTEgMTEuNTIzMSA0LjM4MjgzIDExLjM3NzMgNC4wMjg2NkMxMS4xMjczIDMuMjk5NDkgMTAuNzMxNSAyLjcxNjE2IDEwLjE4OTggMi4yNzg2NkM5LjY0ODE1IDEuODIwMzMgOS4wNTQ0MyAxLjU5MTE2IDguNDA4NiAxLjU5MTE2QzcuOTcxMSAxLjU5MTE2IDcuNTY0ODUgMS42OTUzMyA3LjE4OTg1IDEuOTAzNjZDNi44MTQ4NSAyLjA5MTE2IDYuNDgxNTIgMi4zNTE1OCA2LjE4OTg1IDIuNjg0OTFDNS45MTkwMiAyLjk5NzQxIDUuNzAwMjcgMy4zODI4MyA1LjUzMzYgMy44NDExNkM1LjM2NjkzIDQuMjc4NjYgNS4yODM2IDQuNzQ3NDEgNS4yODM2IDUuMjQ3NDFDNS4yODM2IDUuNDc2NTggNS4yMDAyNyA1LjY3NDQ5IDUuMDMzNiA1Ljg0MTE2QzQuODg3NzcgNS45ODY5OSA0LjcwMDI3IDYuMDU5OTEgNC40NzExIDYuMDU5OTFIMy44MTQ4NVoiLz4mI3hhOzxkZWZzPiYjeGE7PGxpbmVhckdyYWRpZW50IGdyYWRpZW50VW5pdHM9InVzZXJTcGFjZU9uVXNlIiB5Mj0iMTAuMzM3MyIgeDI9IjE0LjI2MDIiIHkxPSIxLjEyNjIzIiB4MT0iMi40NzY0NiIgaWQ9InBhaW50MF9saW5lYXJfNzI0XzE0Ij4mI3hhOzxzdG9wIHN0b3AtY29sb3I9IiMyMzk1RkYiLz4mI3hhOzxzdG9wIHN0b3AtY29sb3I9IiMwMDU3RDIiIG9mZnNldD0iMSIvPiYjeGE7PC9saW5lYXJHcmFkaWVudD4mI3hhOzwvZGVmcz4mI3hhOzwvc3ZnPg==;strokeWidth=1.5;aspect=fixed;" vertex="1" parent="-Aj5rOMPWS9pz5DeyN8X-1">
          <mxGeometry x="-1105.2" y="-1884.8599999999997" width="27.76320130228494" height="17.738702546352773" as="geometry" />
        </mxCell>
        <mxCell id="OHP15Gqe_fe5QjpGXMBg-14" value="" style="rounded=1;whiteSpace=wrap;html=1;strokeColor=#0070F2;strokeWidth=1.5;arcSize=16;fillColor=#FFFFFF;perimeterSpacing=0;absoluteArcSize=1;" vertex="1" parent="-Aj5rOMPWS9pz5DeyN8X-1">
          <mxGeometry x="-2110" y="-2390" width="410" height="210" as="geometry" />
        </mxCell>
        <mxCell id="OHP15Gqe_fe5QjpGXMBg-90" style="edgeStyle=orthogonalEdgeStyle;rounded=0;orthogonalLoop=1;jettySize=auto;html=1;" edge="1" parent="-Aj5rOMPWS9pz5DeyN8X-1" source="OHP15Gqe_fe5QjpGXMBg-3" target="OHP15Gqe_fe5QjpGXMBg-15">
          <mxGeometry relative="1" as="geometry" />
        </mxCell>
        <mxCell id="OHP15Gqe_fe5QjpGXMBg-3" value="WindTurbine" style="shape=mxgraph.sap.icon;labelPosition=center;verticalLabelPosition=bottom;align=center;verticalAlign=top;strokeWidth=1;strokeColor=#D5DADD;fillColor=#EDEFF0;gradientColor=#FCFCFC;gradientDirection=west;aspect=fixed;SAPIcon=SAP_BTP,_Kyma_runtime" vertex="1" parent="-Aj5rOMPWS9pz5DeyN8X-1">
          <mxGeometry x="-2090.44" y="-2259" width="50" height="50" as="geometry" />
        </mxCell>
        <mxCell id="OHP15Gqe_fe5QjpGXMBg-16" value="&lt;font face=&quot;arial&quot; style=&quot;font-size: 16px;&quot;&gt;&lt;b style=&quot;font-size: 16px;&quot;&gt;Kyma - IoT Data Generator&lt;/b&gt;&lt;/font&gt;" style="text;html=1;align=left;verticalAlign=middle;resizable=0;points=[];autosize=1;strokeColor=none;fillColor=none;fontSize=12;fontColor=#1d2d3e;fontFamily=Helvetica;" vertex="1" parent="-Aj5rOMPWS9pz5DeyN8X-1">
          <mxGeometry x="-2101.01" y="-2390" width="230" height="30" as="geometry" />
        </mxCell>
        <mxCell id="OHP15Gqe_fe5QjpGXMBg-21" value="" style="rounded=1;whiteSpace=wrap;html=1;strokeColor=#0070F2;strokeWidth=1.5;arcSize=16;fillColor=#FFFFFF;perimeterSpacing=0;absoluteArcSize=1;" vertex="1" parent="-Aj5rOMPWS9pz5DeyN8X-1">
          <mxGeometry x="-1093.47" y="-2098" width="190.47" height="77.88" as="geometry" />
        </mxCell>
        <mxCell id="OHP15Gqe_fe5QjpGXMBg-22" value="" style="shape=image;verticalLabelPosition=bottom;labelBackgroundColor=default;verticalAlign=top;imageAspect=0;image=data:image/svg+xml,PHN2ZyB4bWxucz0iaHR0cDovL3d3dy53My5vcmcvMjAwMC9zdmciIGZpbGw9Im5vbmUiIHZpZXdCb3g9IjAgMCAxNyAxMiIgaGVpZ2h0PSIxMiIgd2lkdGg9IjE3Ij4mI3hhOzxwYXRoIGZpbGw9InVybCgjcGFpbnQwX2xpbmVhcl83MjRfMTQpIiBkPSJNMTIuMzQ2MSAxMS45OTc0SDMuODE0ODVDMy4zNTY1MiAxMS45OTc0IDIuOTE5MDIgMTEuOTAzNiAyLjUwMjM1IDExLjcxNjJDMi4wODU2OCAxMS41MDc4IDEuNzIxMSAxMS4yMzcgMS40MDg2IDEwLjkwMzZDMS4wOTYxIDEwLjU0OTUgMC44NDYxIDEwLjE0MzIgMC42NTg2IDkuNjg0OTFDMC40OTE5MyA5LjIyNjYxIDAuNDA4NiA4LjczNzAxIDAuNDA4NiA4LjIxNjIxQzAuNDA4NiA3LjcxNjE2IDAuNDkxOTMgNy4yMzY5OSAwLjY1ODYgNi43Nzg2NkMwLjg0NjEgNi4zMjAzMyAxLjA4NTY4IDUuOTI0NDkgMS4zNzczNSA1LjU5MTE2QzEuNjY5MDIgNS4yMzY5OSAyLjAxMjc3IDQuOTY2MTYgMi40MDg2IDQuNzc4NjZDMi44MjUyNyA0LjU3MDMzIDMuMjYyNzcgNC40NjYxNiAzLjcyMTEgNC40NjYxNkMzLjgyNTI3IDMuODQxMTYgNC4wMTI3NyAzLjI1NzgzIDQuMjgzNiAyLjcxNjE2QzQuNTU0NDMgMi4xNTM2NiA0Ljg5ODE4IDEuNjc0NDkgNS4zMTQ4NSAxLjI3ODY2QzUuNzMxNTIgMC44ODI4MzQgNi4yMDAyNyAwLjU3MDMzNCA2LjcyMTEgMC4zNDExNjRDNy4yNjI3NyAwLjExMTk5NCA3LjgyNTI3IC0wLjAwMjU4NjM2IDguNDA4NiAtMC4wMDI1ODYzNkM5LjMwNDQzIC0wLjAwMjU4NjM2IDEwLjEzNzcgMC4yNjgyNDQgMTAuOTA4NiAwLjgwOTkxNEMxMS42Nzk0IDEuMzUxNTggMTIuMjczMSAyLjA4MDc0IDEyLjY4OTggMi45OTc0MUMxMy4yMTA2IDMuMDM5MDggMTMuNzAwMiAzLjE4NDkxIDE0LjE1ODYgMy40MzQ5MUMxNC42MTY5IDMuNjg0OTEgMTUuMDEyOCA0LjAxODI0IDE1LjM0NjEgNC40MzQ5MUMxNS42Nzk1IDQuODMwNzQgMTUuOTM5OCA1LjI4OTA4IDE2LjEyNzMgNS44MDk5MUMxNi4zMTQ4IDYuMzMwNzQgMTYuNDA4NiA2Ljg5MzI0IDE2LjQwODYgNy40OTc0MUMxNi40MDg2IDguMTIyNDEgMTYuMzA0NSA4LjcxNjIxIDE2LjA5NjEgOS4yNzg2MUMxNS44ODc4IDkuODIwMzEgMTUuNTk2MSAxMC4yOTk1IDE1LjIyMTEgMTAuNzE2MkMxNC44NjcgMTEuMTEyIDE0LjQzOTggMTEuNDI0NSAxMy45Mzk4IDExLjY1MzZDMTMuNDM5OCAxMS44ODI4IDEyLjkwODcgMTEuOTk3NCAxMi4zNDYxIDExLjk5NzRaTTMuODE0ODUgNi4wNTk5MUMzLjMxNDg1IDYuMDU5OTEgMi44ODc3NyA2LjI2ODI0IDIuNTMzNiA2LjY4NDkxQzIuMTc5NDMgNy4xMDE1OCAyLjAwMjM1IDcuNjExOTkgMi4wMDIzNSA4LjIxNjIxQzIuMDAyMzUgOC44MjAzMSAyLjE3OTQzIDkuMzQxMjEgMi41MzM2IDkuNzc4NjFDMi44ODc3NyAxMC4xOTUzIDMuMzE0ODUgMTAuNDAzNiAzLjgxNDg1IDEwLjQwMzZIMTIuMzQ2MUMxMy4wMzM3IDEwLjQwMzYgMTMuNjE3IDEwLjEyMjQgMTQuMDk2MSA5LjU1OTkxQzE0LjU3NTMgOC45OTc0MSAxNC44MTQ4IDguMzA5OTEgMTQuODE0OCA3LjQ5NzQxQzE0LjgxNDggNi42NjQwOCAxNC41NzUzIDUuOTY2MTYgMTQuMDk2MSA1LjQwMzY2QzEzLjYxNyA0Ljg0MTE2IDEzLjAzMzcgNC41NTk5MSAxMi4zNDYxIDQuNTU5OTFIMTIuMTI3M0MxMS43NzMxIDQuNTU5OTEgMTEuNTIzMSA0LjM4MjgzIDExLjM3NzMgNC4wMjg2NkMxMS4xMjczIDMuMjk5NDkgMTAuNzMxNSAyLjcxNjE2IDEwLjE4OTggMi4yNzg2NkM5LjY0ODE1IDEuODIwMzMgOS4wNTQ0MyAxLjU5MTE2IDguNDA4NiAxLjU5MTE2QzcuOTcxMSAxLjU5MTE2IDcuNTY0ODUgMS42OTUzMyA3LjE4OTg1IDEuOTAzNjZDNi44MTQ4NSAyLjA5MTE2IDYuNDgxNTIgMi4zNTE1OCA2LjE4OTg1IDIuNjg0OTFDNS45MTkwMiAyLjk5NzQxIDUuNzAwMjcgMy4zODI4MyA1LjUzMzYgMy44NDExNkM1LjM2NjkzIDQuMjc4NjYgNS4yODM2IDQuNzQ3NDEgNS4yODM2IDUuMjQ3NDFDNS4yODM2IDUuNDc2NTggNS4yMDAyNyA1LjY3NDQ5IDUuMDMzNiA1Ljg0MTE2QzQuODg3NzcgNS45ODY5OSA0LjcwMDI3IDYuMDU5OTEgNC40NzExIDYuMDU5OTFIMy44MTQ4NVoiLz4mI3hhOzxkZWZzPiYjeGE7PGxpbmVhckdyYWRpZW50IGdyYWRpZW50VW5pdHM9InVzZXJTcGFjZU9uVXNlIiB5Mj0iMTAuMzM3MyIgeDI9IjE0LjI2MDIiIHkxPSIxLjEyNjIzIiB4MT0iMi40NzY0NiIgaWQ9InBhaW50MF9saW5lYXJfNzI0XzE0Ij4mI3hhOzxzdG9wIHN0b3AtY29sb3I9IiMyMzk1RkYiLz4mI3hhOzxzdG9wIHN0b3AtY29sb3I9IiMwMDU3RDIiIG9mZnNldD0iMSIvPiYjeGE7PC9saW5lYXJHcmFkaWVudD4mI3hhOzwvZGVmcz4mI3hhOzwvc3ZnPg==;strokeWidth=1.5;aspect=fixed;" vertex="1" parent="-Aj5rOMPWS9pz5DeyN8X-1">
          <mxGeometry x="-1085.0669160567752" y="-2071.8765112873903" width="27.76320130228494" height="17.738702546352773" as="geometry" />
        </mxCell>
        <mxCell id="OHP15Gqe_fe5QjpGXMBg-23" value="&lt;font size=&quot;3&quot; face=&quot;arial&quot;&gt;&lt;b&gt;Equipment API&amp;nbsp;&lt;/b&gt;&lt;/font&gt;" style="text;html=1;align=left;verticalAlign=middle;resizable=0;points=[];autosize=1;strokeColor=none;fillColor=none;fontSize=12;fontColor=#1d2d3e;fontFamily=Helvetica;" vertex="1" parent="-Aj5rOMPWS9pz5DeyN8X-1">
          <mxGeometry x="-1057.298126299199" y="-2075.996075284164" width="140" height="30" as="geometry" />
        </mxCell>
        <mxCell id="OHP15Gqe_fe5QjpGXMBg-93" style="edgeStyle=orthogonalEdgeStyle;rounded=0;orthogonalLoop=1;jettySize=auto;html=1;" edge="1" parent="-Aj5rOMPWS9pz5DeyN8X-1" source="OHP15Gqe_fe5QjpGXMBg-28" target="OHP15Gqe_fe5QjpGXMBg-29">
          <mxGeometry relative="1" as="geometry" />
        </mxCell>
        <mxCell id="OHP15Gqe_fe5QjpGXMBg-28" value="SolarPanel" style="shape=mxgraph.sap.icon;labelPosition=center;verticalLabelPosition=bottom;align=center;verticalAlign=top;strokeWidth=1;strokeColor=#D5DADD;fillColor=#EDEFF0;gradientColor=#FCFCFC;gradientDirection=west;aspect=fixed;SAPIcon=SAP_BTP,_Kyma_runtime" vertex="1" parent="-Aj5rOMPWS9pz5DeyN8X-1">
          <mxGeometry x="-1810" y="-2380" width="46" height="46" as="geometry" />
        </mxCell>
        <mxCell id="OHP15Gqe_fe5QjpGXMBg-29" value="Battery" style="shape=mxgraph.sap.icon;labelPosition=center;verticalLabelPosition=bottom;align=center;verticalAlign=top;strokeWidth=1;strokeColor=#D5DADD;fillColor=#EDEFF0;gradientColor=#FCFCFC;gradientDirection=west;aspect=fixed;SAPIcon=SAP_BTP,_Kyma_runtime" vertex="1" parent="-Aj5rOMPWS9pz5DeyN8X-1">
          <mxGeometry x="-2015.5" y="-2354" width="50" height="50" as="geometry" />
        </mxCell>
        <mxCell id="OHP15Gqe_fe5QjpGXMBg-43" value="" style="edgeStyle=orthogonalEdgeStyle;rounded=0;orthogonalLoop=1;jettySize=auto;html=1;" edge="1" parent="-Aj5rOMPWS9pz5DeyN8X-1" source="OHP15Gqe_fe5QjpGXMBg-15" target="-Aj5rOMPWS9pz5DeyN8X-150">
          <mxGeometry relative="1" as="geometry">
            <mxPoint x="-1860" y="-2229" as="sourcePoint" />
            <mxPoint x="-1568" y="-2259" as="targetPoint" />
          </mxGeometry>
        </mxCell>
        <mxCell id="OHP15Gqe_fe5QjpGXMBg-47" style="edgeStyle=orthogonalEdgeStyle;rounded=0;orthogonalLoop=1;jettySize=auto;html=1;" edge="1" parent="-Aj5rOMPWS9pz5DeyN8X-1" source="-Aj5rOMPWS9pz5DeyN8X-150" target="OHP15Gqe_fe5QjpGXMBg-46">
          <mxGeometry relative="1" as="geometry" />
        </mxCell>
        <mxCell id="-Aj5rOMPWS9pz5DeyN8X-150" value="&lt;font size=&quot;1&quot;&gt;&lt;b style=&quot;&quot;&gt;Publish Event&lt;/b&gt;&lt;/font&gt;" style="rounded=1;whiteSpace=wrap;html=1;arcSize=50;strokeColor=#d79b00;fillColor=#ffe6cc;strokeWidth=1.5;fontColor=#c87515;verticalAlign=middle;" parent="-Aj5rOMPWS9pz5DeyN8X-1" vertex="1">
          <mxGeometry x="-1700" y="-2273" width="102.08" height="16" as="geometry" />
        </mxCell>
        <mxCell id="OHP15Gqe_fe5QjpGXMBg-45" value="&lt;font size=&quot;3&quot; face=&quot;arial&quot;&gt;&lt;b&gt;Business Accelerator Hub&lt;/b&gt;&lt;/font&gt;" style="text;html=1;align=left;verticalAlign=middle;resizable=0;points=[];autosize=1;strokeColor=none;fillColor=none;fontSize=12;fontColor=#1d2d3e;fontFamily=Helvetica;" vertex="1" parent="-Aj5rOMPWS9pz5DeyN8X-1">
          <mxGeometry x="-1100" y="-2280" width="220" height="30" as="geometry" />
        </mxCell>
        <mxCell id="OHP15Gqe_fe5QjpGXMBg-49" style="edgeStyle=orthogonalEdgeStyle;rounded=0;orthogonalLoop=1;jettySize=auto;html=1;" edge="1" parent="-Aj5rOMPWS9pz5DeyN8X-1" source="OHP15Gqe_fe5QjpGXMBg-46" target="-Aj5rOMPWS9pz5DeyN8X-155">
          <mxGeometry relative="1" as="geometry">
            <Array as="points">
              <mxPoint x="-1480" y="-2266" />
              <mxPoint x="-1480" y="-2266" />
            </Array>
          </mxGeometry>
        </mxCell>
        <mxCell id="OHP15Gqe_fe5QjpGXMBg-46" value="" style="shape=mxgraph.sap.icon;labelPosition=center;verticalLabelPosition=bottom;align=center;verticalAlign=top;strokeWidth=1;strokeColor=#D5DADD;fillColor=#EDEFF0;gradientColor=#FCFCFC;gradientDirection=west;aspect=fixed;SAPIcon=SAP_Integration_Suite_-_Event_Mesh" vertex="1" parent="-Aj5rOMPWS9pz5DeyN8X-1">
          <mxGeometry x="-1540" y="-2290" width="50" height="50" as="geometry" />
        </mxCell>
        <mxCell id="OHP15Gqe_fe5QjpGXMBg-53" value="" style="shape=mxgraph.sap.icon;labelPosition=center;verticalLabelPosition=bottom;align=center;verticalAlign=top;strokeWidth=1;strokeColor=#D5DADD;fillColor=#EDEFF0;gradientColor=#FCFCFC;gradientDirection=west;aspect=fixed;SAPIcon=SAP_Business_Accelerator_Hub" vertex="1" parent="-Aj5rOMPWS9pz5DeyN8X-1">
          <mxGeometry x="-1154" y="-2292.88" width="50" height="50" as="geometry" />
        </mxCell>
        <mxCell id="OHP15Gqe_fe5QjpGXMBg-54" value="" style="shape=mxgraph.sap.icon;labelPosition=center;verticalLabelPosition=bottom;align=center;verticalAlign=top;strokeWidth=1;strokeColor=#D5DADD;fillColor=#EDEFF0;gradientColor=#FCFCFC;gradientDirection=west;aspect=fixed;SAPIcon=SAP_Integration_Suite_-_Open_Connectors" vertex="1" parent="-Aj5rOMPWS9pz5DeyN8X-1">
          <mxGeometry x="-1140.93" y="-1964.5" width="50" height="50" as="geometry" />
        </mxCell>
        <mxCell id="OHP15Gqe_fe5QjpGXMBg-56" value="&lt;font size=&quot;3&quot; face=&quot;arial&quot;&gt;&lt;b&gt;Open Connectors&lt;/b&gt;&lt;/font&gt;" style="text;html=1;align=left;verticalAlign=middle;resizable=0;points=[];autosize=1;strokeColor=none;fillColor=none;fontSize=12;fontColor=#1d2d3e;fontFamily=Helvetica;" vertex="1" parent="-Aj5rOMPWS9pz5DeyN8X-1">
          <mxGeometry x="-1070" y="-1958" width="160" height="30" as="geometry" />
        </mxCell>
        <mxCell id="OHP15Gqe_fe5QjpGXMBg-63" value="" style="edgeStyle=orthogonalEdgeStyle;rounded=0;orthogonalLoop=1;jettySize=auto;html=1;" edge="1" parent="-Aj5rOMPWS9pz5DeyN8X-1" source="-Aj5rOMPWS9pz5DeyN8X-155" target="-Aj5rOMPWS9pz5DeyN8X-5">
          <mxGeometry relative="1" as="geometry">
            <mxPoint x="-1251" y="-2298" as="sourcePoint" />
            <mxPoint x="-1007" y="-2218" as="targetPoint" />
          </mxGeometry>
        </mxCell>
        <mxCell id="OHP15Gqe_fe5QjpGXMBg-66" value="" style="rounded=1;whiteSpace=wrap;html=1;strokeColor=#0070F2;strokeWidth=1.5;arcSize=16;fillColor=#FFFFFF;perimeterSpacing=0;absoluteArcSize=1;" vertex="1" parent="-Aj5rOMPWS9pz5DeyN8X-1">
          <mxGeometry x="-1661.5" y="-1913" width="351.5" height="166" as="geometry" />
        </mxCell>
        <mxCell id="OHP15Gqe_fe5QjpGXMBg-64" value="&lt;font size=&quot;3&quot; face=&quot;arial&quot;&gt;&lt;b&gt;SAP Cloud for Energy&lt;/b&gt;&lt;/font&gt;" style="text;html=1;align=left;verticalAlign=middle;resizable=0;points=[];autosize=1;strokeColor=none;fillColor=none;fontSize=12;fontColor=#1d2d3e;fontFamily=Helvetica;" vertex="1" parent="-Aj5rOMPWS9pz5DeyN8X-1">
          <mxGeometry x="-1655" y="-1913" width="190" height="30" as="geometry" />
        </mxCell>
        <mxCell id="OHP15Gqe_fe5QjpGXMBg-75" value="" style="edgeStyle=elbowEdgeStyle;elbow=horizontal;endArrow=blockThin;html=1;curved=0;rounded=0;endSize=8;startSize=8;fillColor=#ffe6cc;strokeColor=#d79b00;endFill=1;" edge="1" parent="-Aj5rOMPWS9pz5DeyN8X-1" source="OHP15Gqe_fe5QjpGXMBg-46" target="OHP15Gqe_fe5QjpGXMBg-74">
          <mxGeometry width="50" height="50" relative="1" as="geometry">
            <mxPoint x="-1490" y="-2265" as="sourcePoint" />
            <mxPoint x="-1460" y="-1950" as="targetPoint" />
            <Array as="points" />
          </mxGeometry>
        </mxCell>
        <mxCell id="OHP15Gqe_fe5QjpGXMBg-81" value="" style="edgeStyle=elbowEdgeStyle;elbow=horizontal;endArrow=blockThin;html=1;curved=0;rounded=0;endSize=8;startSize=8;fillColor=#ffe6cc;strokeColor=#d79b00;endFill=1;" edge="1" parent="-Aj5rOMPWS9pz5DeyN8X-1">
          <mxGeometry width="50" height="50" relative="1" as="geometry">
            <mxPoint x="-1791.01" y="-2050.43" as="sourcePoint" />
            <mxPoint x="-1871.01" y="-2050.43" as="targetPoint" />
            <Array as="points" />
          </mxGeometry>
        </mxCell>
        <mxCell id="-Aj5rOMPWS9pz5DeyN8X-152" value="&lt;font size=&quot;1&quot;&gt;&lt;b style=&quot;&quot;&gt;Subscribe Event&lt;/b&gt;&lt;/font&gt;" style="rounded=1;whiteSpace=wrap;html=1;arcSize=50;strokeColor=#d79b00;fillColor=#ffe6cc;strokeWidth=1.5;fontColor=#c5761c;" parent="-Aj5rOMPWS9pz5DeyN8X-1" vertex="1">
          <mxGeometry x="-1790" y="-2061.11" width="100" height="16" as="geometry" />
        </mxCell>
        <mxCell id="OHP15Gqe_fe5QjpGXMBg-83" value="" style="edgeStyle=elbowEdgeStyle;elbow=horizontal;endArrow=blockThin;html=1;curved=0;rounded=0;endSize=8;startSize=8;fillColor=#ffe6cc;strokeColor=#d79b00;endFill=1;" edge="1" parent="-Aj5rOMPWS9pz5DeyN8X-1" source="OHP15Gqe_fe5QjpGXMBg-74" target="OHP15Gqe_fe5QjpGXMBg-64">
          <mxGeometry width="50" height="50" relative="1" as="geometry">
            <mxPoint x="-1515" y="-2240" as="sourcePoint" />
            <mxPoint x="-1515" y="-1944" as="targetPoint" />
            <Array as="points" />
          </mxGeometry>
        </mxCell>
        <mxCell id="OHP15Gqe_fe5QjpGXMBg-74" value="&lt;font size=&quot;1&quot;&gt;&lt;b style=&quot;&quot;&gt;Subscribe Event&lt;/b&gt;&lt;/font&gt;" style="rounded=1;whiteSpace=wrap;html=1;arcSize=50;strokeColor=#d79b00;fillColor=#ffe6cc;strokeWidth=1.5;fontColor=#c5761c;" vertex="1" parent="-Aj5rOMPWS9pz5DeyN8X-1">
          <mxGeometry x="-1565" y="-2095.94" width="100" height="16" as="geometry" />
        </mxCell>
        <mxCell id="OHP15Gqe_fe5QjpGXMBg-15" value="Smart Inverter/Meter Simulator" style="shape=mxgraph.sap.icon;labelPosition=center;verticalLabelPosition=bottom;align=center;verticalAlign=top;strokeWidth=1;strokeColor=#D5DADD;fillColor=#EDEFF0;gradientColor=#FCFCFC;gradientDirection=west;aspect=fixed;SAPIcon=SAP_BTP,_Kyma_runtime" vertex="1" parent="-Aj5rOMPWS9pz5DeyN8X-1">
          <mxGeometry x="-1840" y="-2290" width="50" height="50" as="geometry" />
        </mxCell>
        <mxCell id="OHP15Gqe_fe5QjpGXMBg-92" style="edgeStyle=orthogonalEdgeStyle;rounded=0;orthogonalLoop=1;jettySize=auto;html=1;entryX=0.625;entryY=0;entryDx=0;entryDy=0;entryPerimeter=0;" edge="1" parent="-Aj5rOMPWS9pz5DeyN8X-1" source="OHP15Gqe_fe5QjpGXMBg-28" target="OHP15Gqe_fe5QjpGXMBg-15">
          <mxGeometry relative="1" as="geometry" />
        </mxCell>
        <mxCell id="OHP15Gqe_fe5QjpGXMBg-94" style="edgeStyle=orthogonalEdgeStyle;rounded=0;orthogonalLoop=1;jettySize=auto;html=1;entryX=0;entryY=0.325;entryDx=0;entryDy=0;entryPerimeter=0;" edge="1" parent="-Aj5rOMPWS9pz5DeyN8X-1" source="OHP15Gqe_fe5QjpGXMBg-3" target="OHP15Gqe_fe5QjpGXMBg-29">
          <mxGeometry relative="1" as="geometry">
            <Array as="points">
              <mxPoint x="-2065" y="-2338" />
            </Array>
          </mxGeometry>
        </mxCell>
        <mxCell id="OHP15Gqe_fe5QjpGXMBg-95" value="" style="shape=mxgraph.sap.icon;labelPosition=center;verticalLabelPosition=bottom;align=center;verticalAlign=top;strokeWidth=1;strokeColor=#D5DADD;fillColor=#EDEFF0;gradientColor=#FCFCFC;gradientDirection=west;aspect=fixed;SAPIcon=SAP_Build_Code" vertex="1" parent="-Aj5rOMPWS9pz5DeyN8X-1">
          <mxGeometry x="-2036.01" y="-1990" width="50" height="50" as="geometry" />
        </mxCell>
        <mxCell id="OHP15Gqe_fe5QjpGXMBg-97" style="edgeStyle=orthogonalEdgeStyle;rounded=0;orthogonalLoop=1;jettySize=auto;html=1;entryX=0.403;entryY=0.728;entryDx=0;entryDy=0;entryPerimeter=0;" edge="1" parent="-Aj5rOMPWS9pz5DeyN8X-1" source="-Aj5rOMPWS9pz5DeyN8X-124" target="-Aj5rOMPWS9pz5DeyN8X-121">
          <mxGeometry relative="1" as="geometry" />
        </mxCell>
      </root>
    </mxGraphModel>
  </diagram>
</mxfile>
